<svg width="14" height="24" viewBox="0 0 14 24" fill="none" xmlns="http://www.w3.org/2000/svg">
<path d="M12.5964 13.0607C13.1822 12.4749 13.1822 11.5251 12.5964 10.9393L3.05042 1.3934C2.46464 0.807612 1.51489 0.807612 0.929103 1.3934C0.343316 1.97919 0.343316 2.92893 0.929103 3.51472L9.41439 12L0.929105 20.4853C0.343318 21.0711 0.343318 22.0208 0.929105 22.6066C1.51489 23.1924 2.46464 23.1924 3.05043 22.6066L12.5964 13.0607ZM10.5357 10.5L10 10.5L10 13.5L10.5357 13.5L10.5357 10.5ZM10.5357 13.5L11.5357 13.5L11.5357 10.5L10.5357 10.5L10.5357 13.5Z" fill="#333333"/>
</svg>
