<svg width="1851" height="322" viewBox="0 0 1851 322" fill="none" xmlns="http://www.w3.org/2000/svg">
<path d="M583 301C583 312.598 573.598 322 562 322C550.402 322 541 312.598 541 301C541 289.402 550.402 280 562 280C573.598 280 583 289.402 583 301ZM549.128 301C549.128 308.109 554.891 313.872 562 313.872C569.109 313.872 574.872 308.109 574.872 301C574.872 293.891 569.109 288.128 562 288.128C554.891 288.128 549.128 293.891 549.128 301Z" fill="#D0231D"/>
<path d="M1851 136.5C1851 163.838 1828.84 186 1801.5 186C1774.16 186 1752 163.838 1752 136.5C1752 109.162 1774.16 87 1801.5 87C1828.84 87 1851 109.162 1851 136.5ZM1766.55 136.5C1766.55 155.801 1782.2 171.448 1801.5 171.448C1820.8 171.448 1836.45 155.801 1836.45 136.5C1836.45 117.199 1820.8 101.552 1801.5 101.552C1782.2 101.552 1766.55 117.199 1766.55 136.5Z" fill="#D0231D"/>
<path d="M206 103C206 159.885 159.885 206 103 206C46.1147 206 0 159.885 0 103C0 46.1147 46.1147 0 103 0C159.885 0 206 46.1147 206 103ZM17.1429 103C17.1429 150.418 55.5824 188.857 103 188.857C150.418 188.857 188.857 150.418 188.857 103C188.857 55.5824 150.418 17.1429 103 17.1429C55.5824 17.1429 17.1429 55.5824 17.1429 103Z" fill="#D0231D"/>
</svg>
