<svg width="1158" height="343" viewBox="0 0 1158 343" fill="none" xmlns="http://www.w3.org/2000/svg">
<path d="M1158 21C1158 32.598 1148.6 42 1137 42C1125.4 42 1116 32.598 1116 21C1116 9.40202 1125.4 0 1137 0C1148.6 0 1158 9.40202 1158 21ZM1124.13 21C1124.13 28.1093 1129.89 33.8724 1137 33.8724C1144.11 33.8724 1149.87 28.1093 1149.87 21C1149.87 13.8907 1144.11 8.12756 1137 8.12756C1129.89 8.12756 1124.13 13.8907 1124.13 21Z" fill="#D0231D"/>
<path d="M99 293.5C99 320.838 76.8381 343 49.5 343C22.1619 343 0 320.838 0 293.5C0 266.162 22.1619 244 49.5 244C76.8381 244 99 266.162 99 293.5ZM14.5525 293.5C14.5525 312.801 30.199 328.448 49.5 328.448C68.801 328.448 84.4475 312.801 84.4475 293.5C84.4475 274.199 68.801 258.552 49.5 258.552C30.199 258.552 14.5525 274.199 14.5525 293.5Z" fill="#D0231D"/>
</svg>
