<svg width="1866" height="1003" viewBox="0 0 1866 1003" fill="none" xmlns="http://www.w3.org/2000/svg">
<path d="M1866 838C1866 929.127 1792.13 1003 1701 1003C1609.87 1003 1536 929.127 1536 838C1536 746.873 1609.87 673 1701 673C1792.13 673 1866 746.873 1866 838ZM1563.46 838C1563.46 913.96 1625.04 975.538 1701 975.538C1776.96 975.538 1838.54 913.96 1838.54 838C1838.54 762.04 1776.96 700.462 1701 700.462C1625.04 700.462 1563.46 762.04 1563.46 838Z" fill="#D0231D"/>
<path d="M195 49.5C195 76.8381 172.838 99 145.5 99C118.162 99 96 76.8381 96 49.5C96 22.1619 118.162 0 145.5 0C172.838 0 195 22.1619 195 49.5ZM110.552 49.5C110.552 68.801 126.199 84.4475 145.5 84.4475C164.801 84.4475 180.448 68.801 180.448 49.5C180.448 30.199 164.801 14.5525 145.5 14.5525C126.199 14.5525 110.552 30.199 110.552 49.5Z" fill="#D0231D"/>
<path d="M97 716C97 727.598 87.598 737 76 737C64.402 737 55 727.598 55 716C55 704.402 64.402 695 76 695C87.598 695 97 704.402 97 716ZM63.1276 716C63.1276 723.109 68.8907 728.872 76 728.872C83.1093 728.872 88.8724 723.109 88.8724 716C88.8724 708.891 83.1093 703.128 76 703.128C68.8907 703.128 63.1276 708.891 63.1276 716Z" fill="#D0231D"/>
</svg>
