<svg width="16" height="16" viewBox="0 0 16 16" fill="none" xmlns="http://www.w3.org/2000/svg">
<path d="M9.61619 14.5732C9.48426 14.6061 9.34975 14.6353 9.21623 14.6598C8.8672 14.7247 8.63646 15.0604 8.70101 15.4098C8.7329 15.5816 8.83051 15.7248 8.96302 15.8182C9.0996 15.9144 9.27343 15.9578 9.45055 15.9248C9.60956 15.8953 9.7698 15.8606 9.92704 15.8214C10.2717 15.7356 10.4817 15.3864 10.3957 15.0419C10.3099 14.6971 9.96106 14.4873 9.61619 14.5732Z" fill="#D0231D"/>
<path d="M14.3728 5.95154C14.4178 6.08733 14.5038 6.19818 14.6125 6.27477C14.7736 6.38824 14.9844 6.42641 15.1856 6.3599C15.5228 6.24791 15.7056 5.88423 15.594 5.54713C15.5432 5.39346 15.4868 5.23931 15.4267 5.08921C15.2947 4.75938 14.9206 4.59879 14.5906 4.73073C14.2609 4.86259 14.1003 5.23683 14.2323 5.56677C14.2828 5.69293 14.3301 5.82242 14.3728 5.95154Z" fill="#D0231D"/>
<path d="M11.7063 13.6548C11.5928 13.7297 11.4757 13.8022 11.3577 13.8701C11.0499 14.0477 10.9445 14.4411 11.122 14.7487C11.1702 14.8324 11.2344 14.9008 11.3083 14.9531C11.5067 15.0927 11.7762 15.1136 12.0005 14.9844C12.1408 14.9035 12.2802 14.8174 12.4154 14.7281C12.7116 14.5323 12.7932 14.1333 12.5974 13.8369C12.4016 13.5403 12.0027 13.4589 11.7063 13.6548Z" fill="#D0231D"/>
<path d="M15.9939 7.7481C15.9799 7.39309 15.6809 7.11677 15.3258 7.13063C14.9711 7.14462 14.6946 7.44375 14.7085 7.79862C14.7138 7.93431 14.7152 8.07202 14.7121 8.20756C14.7071 8.4302 14.816 8.62865 14.9852 8.74793C15.086 8.81891 15.2084 8.86187 15.341 8.8649C15.696 8.87278 15.9902 8.59119 15.9981 8.23601C16.0016 8.07405 16.0003 7.90996 15.9939 7.7481Z" fill="#D0231D"/>
<path d="M14.2678 11.9626C13.9831 11.749 13.5804 11.807 13.3672 12.0912C13.2855 12.2 13.1995 12.3075 13.1115 12.411C12.8814 12.6813 12.9139 13.0874 13.1842 13.3176C13.1996 13.3307 13.2152 13.3427 13.2314 13.354C13.5001 13.5435 13.8737 13.4999 14.091 13.2449C14.1961 13.1215 14.2986 12.9931 14.3962 12.8631C14.6094 12.5789 14.5517 12.1759 14.2678 11.9626Z" fill="#D0231D"/>
<path d="M15.2133 9.63754C14.8743 9.53126 14.5134 9.71994 14.4072 10.0589C14.3665 10.1884 14.3214 10.3185 14.2728 10.4459C14.166 10.7265 14.2683 11.0351 14.5029 11.2005C14.5459 11.2307 14.5933 11.2564 14.6448 11.2758C14.9767 11.4025 15.3483 11.236 15.4748 10.904C15.5326 10.7525 15.5861 10.5976 15.6346 10.4437C15.7407 10.1047 15.5522 9.74381 15.2133 9.63754Z" fill="#D0231D"/>
<path d="M6.80993 14.6654C6.23486 14.5622 5.68322 14.3863 5.16013 14.1411C5.15393 14.1379 5.1484 14.1342 5.1419 14.1312C5.01863 14.0732 4.89557 14.0111 4.77629 13.9461C4.77588 13.9456 4.77512 13.9453 4.77447 13.9451C4.55562 13.8245 4.34203 13.6912 4.13454 13.5451C1.10884 11.4137 0.381345 7.21811 2.51287 4.19246C2.97636 3.53478 3.53725 2.98609 4.16257 2.55122C4.17027 2.54585 4.17798 2.54052 4.18561 2.53512C6.38912 1.01684 9.38114 0.91452 11.7209 2.47469L11.2184 3.20078C11.0787 3.40288 11.1646 3.55015 11.4092 3.52814L13.5921 3.33271C13.837 3.3107 13.9834 3.09887 13.9175 2.86238L13.3314 0.750392C13.2657 0.513625 13.0977 0.485285 12.9579 0.687348L12.4542 1.41516C10.7371 0.262516 8.67765 -0.177002 6.63352 0.17746C6.42764 0.213092 6.22465 0.256704 6.02444 0.307469C6.02289 0.307744 6.02166 0.307916 6.02042 0.308191C6.01268 0.310083 6.00484 0.312594 5.9973 0.314692C4.23462 0.767348 2.6967 1.79541 1.5993 3.26224C1.59005 3.27321 1.58052 3.28394 1.57178 3.29588C1.53529 3.34503 1.49908 3.39531 1.46362 3.44559C1.40563 3.528 1.34847 3.61247 1.29378 3.69694C1.28693 3.70712 1.28171 3.71748 1.27572 3.72776C0.370133 5.13106 -0.0666682 6.75342 0.00824147 8.40508C0.00841344 8.41051 0.0081039 8.41598 0.00824147 8.42155C0.0154986 8.58289 0.0282931 8.74647 0.0456619 8.9075C0.0465906 8.91789 0.048895 8.92773 0.050649 8.93811C0.0686026 9.10004 0.0911306 9.26234 0.119368 9.42461C0.40635 11.0803 1.18736 12.5701 2.35768 13.7293C2.3604 13.7321 2.36322 13.735 2.36597 13.7378C2.36693 13.7389 2.368 13.7395 2.36893 13.7405C2.68336 14.0506 3.02537 14.3374 3.39362 14.5968C4.35734 15.2759 5.43046 15.7247 6.58293 15.9315C6.93261 15.9944 7.26664 15.7616 7.32938 15.4121C7.39208 15.0623 7.15951 14.728 6.80993 14.6654Z" fill="#D0231D"/>
<path d="M7.60534 2.86157C7.3177 2.86157 7.08472 3.09476 7.08472 3.38199V8.56675L11.8266 11.018C11.9029 11.0575 11.9846 11.0762 12.0651 11.0762C12.2534 11.0762 12.4353 10.9736 12.5278 10.7946C12.6597 10.5392 12.5599 10.2255 12.3045 10.0936L8.12537 7.93301V3.38199C8.12534 3.09476 7.89263 2.86157 7.60534 2.86157Z" fill="#D0231D"/>
</svg>
