<svg width="16" height="16" viewBox="0 0 16 16" fill="none" xmlns="http://www.w3.org/2000/svg">
<path d="M8.98889 0C5.75549 0 3.125 2.63049 3.125 5.86389C3.125 7.34924 4.06091 9.44788 5.90686 12.1016C7.2561 14.0414 8.58313 15.5425 8.63904 15.6055L8.98889 16L9.33887 15.6055C9.39465 15.5425 10.7217 14.0414 12.071 12.1016C13.9169 9.44788 14.8529 7.34924 14.8529 5.86389C14.8529 2.63049 12.2223 0 8.98889 0ZM11.3082 11.5598C10.3962 12.8718 9.47449 14.001 8.98889 14.577C8.50452 14.0026 7.58618 12.8777 6.6748 11.5674C4.96448 9.10864 4.06042 7.13635 4.06042 5.86389C4.06042 3.14636 6.27136 0.935425 8.98889 0.935425C11.7065 0.935425 13.9174 3.14636 13.9174 5.86389C13.9174 7.13501 13.0151 9.10461 11.3082 11.5598Z" fill="#D0231D"/>
<path d="M8.98889 2.16724C7.08057 2.16724 5.52808 3.71973 5.52808 5.62805C5.52808 7.53638 7.08057 9.08899 8.98889 9.08899C10.8973 9.08899 12.4498 7.53638 12.4498 5.62805C12.4498 3.71973 10.8973 2.16724 8.98889 2.16724ZM8.98889 8.15356C7.59644 8.15356 6.4635 7.02063 6.4635 5.62805C6.4635 4.2356 7.59644 3.10266 8.98889 3.10266C10.3815 3.10266 11.5144 4.2356 11.5144 5.62805C11.5144 7.02063 10.3815 8.15356 8.98889 8.15356Z" fill="#D0231D"/>
</svg>
