<svg width="16" height="16" viewBox="0 0 16 16" fill="none" xmlns="http://www.w3.org/2000/svg">
<g clip-path="url(#clip0)">
<path d="M15.9651 15.5433L13.3512 10.5117L13.8259 10.1146C13.8969 10.0552 13.9379 9.96741 13.9379 9.87488V2.32812C13.9379 1.04443 12.8935 0 11.6098 0H4.39104C3.10735 0 2.06291 1.04443 2.06291 2.32812V3.40625C2.06291 3.57874 2.20293 3.71875 2.37541 3.71875C2.54802 3.71875 2.68791 3.57874 2.68791 3.40625V2.32812C2.68791 1.38904 3.45195 0.625 4.39104 0.625H11.6098C12.5489 0.625 13.3129 1.38904 13.3129 2.32812V9.72888L10.8603 11.7811H9.96916V11.328C9.96916 11.1555 9.82927 11.0155 9.65666 11.0155C9.48405 11.0155 9.34416 11.1555 9.34416 11.328V11.7811H8.39494V11.328C8.39494 11.1555 8.25505 11.0155 8.08257 11.0155C7.90996 11.0155 7.77007 11.1555 7.77007 11.328V11.7811H6.82085V11.328C6.82085 11.1555 6.68095 11.0155 6.50835 11.0155C6.33586 11.0155 6.19585 11.1555 6.19585 11.328V11.7811H5.14055L2.68791 9.72888V6.34375C2.68791 6.17114 2.54802 6.03125 2.37541 6.03125C2.20293 6.03125 2.06291 6.17114 2.06291 6.34375V9.875C2.06291 9.96753 2.10393 10.0553 2.17497 10.1146L2.64958 10.5117L0.0356913 15.5433C-0.0438985 15.6964 0.0157939 15.8851 0.16887 15.9647C0.215013 15.9886 0.264207 15.9999 0.312669 15.9999C0.425584 15.9999 0.534715 15.9386 0.590257 15.8314L3.14043 10.9225L3.57231 11.2838L1.92741 15.5756C1.86565 15.7367 1.94621 15.9174 2.10735 15.9792C2.14421 15.9933 2.18193 16 2.21916 16C2.34477 16 2.4633 15.9236 2.51103 15.7992L2.84136 14.9374H10.7817C10.9541 14.9374 11.0942 14.7975 11.0942 14.6249C11.0942 14.4523 10.9541 14.3124 10.7817 14.3124H3.08086L3.32158 13.6844C3.33489 13.6862 3.34819 13.6874 3.36198 13.6874H12.628C12.6453 13.6874 12.6622 13.6857 12.6786 13.683L13.4898 15.7992C13.5375 15.9236 13.6559 16 13.7817 16C13.8189 16 13.8566 15.9933 13.8935 15.9792C14.0546 15.9174 14.1352 15.7367 14.0734 15.5756L12.4285 11.2838L12.8604 10.9225L15.4106 15.8314C15.4662 15.9386 15.5752 15.9999 15.6882 15.9999C15.7366 15.9999 15.7859 15.9886 15.832 15.9647C15.985 15.8851 16.0447 15.6965 15.9651 15.5433ZM12.4408 13.0624H3.55998L4.07915 11.7079L4.82658 12.3334C4.88274 12.3804 4.95378 12.4061 5.02715 12.4061H10.9738C11.0472 12.4061 11.1181 12.3804 11.1742 12.3334L11.9217 11.7079L12.4408 13.0624Z" fill="#D0231D"/>
<path d="M12.0625 14.3125C11.9802 14.3125 11.8997 14.3459 11.8416 14.4041C11.7834 14.4623 11.75 14.5428 11.75 14.625C11.75 14.7073 11.7833 14.7878 11.8416 14.8459C11.8997 14.9041 11.9802 14.9375 12.0625 14.9375C12.1447 14.9375 12.2252 14.9041 12.2833 14.8459C12.3416 14.7878 12.375 14.7073 12.375 14.625C12.375 14.5428 12.3416 14.4623 12.2833 14.4041C12.2252 14.3459 12.1447 14.3125 12.0625 14.3125Z" fill="#D0231D"/>
<path d="M12.4375 3.1875C12.4375 2.67053 12.017 2.25 11.5 2.25H4.5C3.98315 2.25 3.5625 2.67053 3.5625 3.1875V5.9375C3.5625 6.45447 3.98315 6.875 4.5 6.875H11.5C12.017 6.875 12.4375 6.45447 12.4375 5.9375V3.1875ZM4.1875 5.9375V3.1875C4.1875 3.01514 4.32776 2.875 4.5 2.875H7.6875V6.25H4.5C4.32776 6.25 4.1875 6.10974 4.1875 5.9375ZM11.8125 5.9375C11.8125 6.10974 11.6722 6.25 11.5 6.25H8.3125V2.875H11.5C11.6722 2.875 11.8125 3.01514 11.8125 3.1875V5.9375Z" fill="#D0231D"/>
<path d="M4.61462 9.8125C5.20044 9.8125 5.67712 9.33582 5.67712 8.75C5.67712 8.16406 5.20044 7.6875 4.61462 7.6875C4.02881 7.6875 3.55212 8.16406 3.55212 8.75C3.55212 9.33582 4.02881 9.8125 4.61462 9.8125ZM4.61462 8.3125C4.85583 8.3125 5.05212 8.50867 5.05212 8.75C5.05212 8.99121 4.85583 9.1875 4.61462 9.1875C4.37341 9.1875 4.17712 8.99121 4.17712 8.75C4.17712 8.50867 4.37341 8.3125 4.61462 8.3125Z" fill="#D0231D"/>
<path d="M11.375 7.6875C10.7891 7.6875 10.3125 8.16406 10.3125 8.75C10.3125 9.33582 10.7891 9.8125 11.375 9.8125C11.9608 9.8125 12.4375 9.33582 12.4375 8.75C12.4375 8.16406 11.9608 7.6875 11.375 7.6875ZM11.375 9.1875C11.1337 9.1875 10.9375 8.99121 10.9375 8.75C10.9375 8.50867 11.1337 8.3125 11.375 8.3125C11.6162 8.3125 11.8125 8.50867 11.8125 8.75C11.8125 8.99121 11.6162 9.1875 11.375 9.1875Z" fill="#D0231D"/>
<path d="M9.65625 7.69141H6.50793C6.33545 7.69141 6.19543 7.8313 6.19543 8.00391C6.19543 8.17651 6.33545 8.31641 6.50793 8.31641H9.65625C9.82886 8.31641 9.96875 8.17651 9.96875 8.00391C9.96875 7.8313 9.82886 7.69141 9.65625 7.69141Z" fill="#D0231D"/>
<path d="M9.65625 9.1875H6.50793C6.33545 9.1875 6.19543 9.32739 6.19543 9.5C6.19543 9.67249 6.33545 9.8125 6.50793 9.8125H9.65625C9.82886 9.8125 9.96875 9.67249 9.96875 9.5C9.96875 9.32739 9.82886 9.1875 9.65625 9.1875Z" fill="#D0231D"/>
<path d="M2.375 5.13525C2.45728 5.13525 2.53784 5.10217 2.59595 5.0437C2.65405 4.9856 2.6875 4.90527 2.6875 4.82275C2.6875 4.7406 2.65405 4.66003 2.59595 4.60193C2.53784 4.5437 2.45728 4.51025 2.375 4.51025C2.29285 4.51025 2.21228 4.5437 2.15405 4.60193C2.09595 4.66003 2.0625 4.7406 2.0625 4.82275C2.0625 4.90527 2.09595 4.9856 2.15405 5.0437C2.21228 5.10217 2.29285 5.13525 2.375 5.13525Z" fill="#D0231D"/>
</g>
<defs>
<clipPath id="clip0">
<rect width="16" height="16" fill="white"/>
</clipPath>
</defs>
</svg>
