<svg width="16" height="16" viewBox="0 0 16 16" fill="none" xmlns="http://www.w3.org/2000/svg">
<path d="M14.125 0H1.875C0.841125 0 0 0.841125 0 1.875V14.125C0 15.1589 0.841125 16 1.875 16H14.125C15.1589 16 16 15.1589 16 14.125V1.875C16 0.841125 15.1589 0 14.125 0ZM14.75 14.125C14.75 14.4696 14.4696 14.75 14.125 14.75H1.875C1.53038 14.75 1.25 14.4696 1.25 14.125V1.875C1.25 1.53038 1.53038 1.25 1.875 1.25H14.125C14.4696 1.25 14.75 1.53038 14.75 1.875V14.125Z" fill="#D0231D"/>
<path d="M8.9375 3.125H4.5625V12.875H5.8125V9.375H8.9375C10.6606 9.375 12.0625 7.97312 12.0625 6.25C12.0625 4.52688 10.6606 3.125 8.9375 3.125ZM8.9375 8.125H5.8125V4.375H8.9375C9.97137 4.375 10.8125 5.21613 10.8125 6.25C10.8125 7.28387 9.97137 8.125 8.9375 8.125Z" fill="#D0231D"/>
</svg>
