<svg width="16" height="16" viewBox="0 0 16 16" fill="none" xmlns="http://www.w3.org/2000/svg">
<g clip-path="url(#clip0)">
<path d="M12.6529 9.92686C12.3249 9.58526 11.9292 9.40263 11.5098 9.40263C11.0938 9.40263 10.6947 9.58188 10.3531 9.92347L9.28434 10.9888C9.19641 10.9415 9.10847 10.8975 9.02392 10.8536C8.90216 10.7927 8.78717 10.7352 8.68909 10.6743C7.68798 10.0385 6.77818 9.20984 5.90559 8.13771C5.48283 7.60333 5.19873 7.15351 4.99242 6.69692C5.26975 6.44326 5.52679 6.17945 5.77707 5.92579C5.87177 5.83109 5.96647 5.73301 6.06117 5.63831C6.77142 4.92806 6.77142 4.00812 6.06117 3.29788L5.13785 2.37455C5.033 2.26971 4.92477 2.16148 4.82331 2.05325C4.62038 1.84356 4.40731 1.6271 4.18747 1.42418C3.8594 1.09949 3.46707 0.927002 3.05445 0.927002C2.64183 0.927002 2.24274 1.09949 1.90453 1.42418C1.90115 1.42756 1.90115 1.42756 1.89777 1.43094L0.74784 2.59101C0.314927 3.02392 0.0680311 3.55154 0.013917 4.1637C-0.0672542 5.15129 0.223609 6.07123 0.44683 6.67324C0.994736 8.15124 1.81321 9.521 3.03416 10.9888C4.51554 12.7577 6.29792 14.1545 8.33396 15.1387C9.11185 15.5074 10.1502 15.9437 11.3102 16.0181C11.3813 16.0215 11.4557 16.0248 11.5233 16.0248C12.3046 16.0248 12.9607 15.7441 13.4748 15.1861C13.4782 15.1793 13.485 15.1759 13.4883 15.1692C13.6642 14.9561 13.8671 14.7633 14.0802 14.557C14.2256 14.4183 14.3745 14.2729 14.5199 14.1207C14.8547 13.7723 15.0306 13.3665 15.0306 12.9505C15.0306 12.5311 14.8513 12.1286 14.5097 11.7904L12.6529 9.92686ZM13.8638 13.4882C13.8604 13.4882 13.8604 13.4916 13.8638 13.4882C13.7318 13.6303 13.5966 13.7588 13.4511 13.9009C13.2313 14.1106 13.0081 14.3304 12.7984 14.5773C12.4568 14.9426 12.0543 15.115 11.5267 15.115C11.476 15.115 11.4219 15.115 11.3711 15.1117C10.3666 15.0474 9.43316 14.6551 8.73306 14.3202C6.81877 13.3935 5.13785 12.0779 3.74103 10.4105C2.58772 9.02044 1.81659 7.73523 1.30589 6.35532C0.991354 5.51317 0.876361 4.85704 0.927093 4.23811C0.960914 3.8424 1.11311 3.51433 1.39383 3.23362L2.54713 2.08031C2.71286 1.92473 2.88873 1.84018 3.06122 1.84018C3.27429 1.84018 3.44678 1.9687 3.55501 2.07693C3.55839 2.08031 3.56177 2.08369 3.56516 2.08707C3.77147 2.27986 3.96763 2.4794 4.17394 2.69248C4.27879 2.8007 4.38701 2.90893 4.49524 3.02054L5.41857 3.94386C5.77707 4.30237 5.77707 4.63382 5.41857 4.99233C5.32048 5.09041 5.22578 5.18849 5.1277 5.28319C4.8436 5.57405 4.57303 5.84462 4.27879 6.10843C4.27202 6.11519 4.26526 6.11858 4.26188 6.12534C3.97101 6.4162 4.02513 6.7003 4.08601 6.89308C4.08939 6.90323 4.09277 6.91338 4.09615 6.92352C4.33628 7.50525 4.6745 8.05316 5.18858 8.70591L5.19196 8.70929C6.12543 9.85921 7.10963 10.7555 8.1953 11.4421C8.33396 11.53 8.47601 11.601 8.6113 11.6687C8.73306 11.7295 8.84805 11.787 8.94613 11.8479C8.95966 11.8547 8.97319 11.8648 8.98672 11.8716C9.10171 11.9291 9.20994 11.9561 9.32155 11.9561C9.60226 11.9561 9.77814 11.7803 9.83563 11.7228L10.9923 10.5661C11.1073 10.4511 11.2899 10.3124 11.503 10.3124C11.7127 10.3124 11.8852 10.4443 11.99 10.5593C11.9934 10.5627 11.9934 10.5627 11.9968 10.5661L13.8604 12.4296C14.2087 12.7746 14.2087 13.1297 13.8638 13.4882Z" fill="#D0231D"/>
<path d="M8.64847 3.81201C9.53459 3.96082 10.3395 4.38021 10.9821 5.02281C11.6247 5.66542 12.0407 6.47037 12.1929 7.35649C12.2301 7.57971 12.4229 7.73528 12.6428 7.73528C12.6698 7.73528 12.6935 7.7319 12.7206 7.72852C12.9708 7.68793 13.1366 7.45119 13.096 7.20091C12.9133 6.12877 12.406 5.15134 11.6315 4.37683C10.857 3.60232 9.87957 3.095 8.80743 2.91236C8.55716 2.87178 8.32379 3.0375 8.27982 3.2844C8.23585 3.53129 8.3982 3.77142 8.64847 3.81201Z" fill="#D0231D"/>
<path d="M15.9944 7.06885C15.6934 5.30338 14.8614 3.69687 13.5829 2.41842C12.3045 1.13998 10.698 0.307971 8.9325 0.00696093C8.6856 -0.0370068 8.45224 0.1321 8.40827 0.378996C8.36768 0.629273 8.53341 0.862641 8.78369 0.906608C10.3598 1.1738 11.7972 1.92125 12.9403 3.06103C14.0835 4.20419 14.8276 5.64159 15.0947 7.21767C15.132 7.44089 15.3247 7.59647 15.5446 7.59647C15.5716 7.59647 15.5953 7.59308 15.6224 7.5897C15.8693 7.5525 16.0384 7.31575 15.9944 7.06885Z" fill="#D0231D"/>
</g>
<defs>
<clipPath id="clip0">
<rect width="16" height="16" fill="white"/>
</clipPath>
</defs>
</svg>
