<svg width="16" height="16" viewBox="0 0 16 16" fill="none" xmlns="http://www.w3.org/2000/svg">
<path d="M15.5988 5.33559L10.6643 0.401059C10.1302 -0.133035 9.26113 -0.133035 8.72703 0.401059L1.02622 8.1019C0.759188 8.36896 0.625656 8.71975 0.625656 9.07053C0.625656 9.42131 0.759188 9.77209 1.02622 10.0392L2.26431 11.2772L0.904844 12.6367C0.843813 12.6977 0.813312 12.7777 0.813312 12.8577C0.813312 12.9377 0.843813 13.0176 0.904844 13.0787C1.02688 13.2007 1.22475 13.2007 1.34678 13.0787L2.70625 11.7192L3.27247 12.2854L0.0915312 15.4664C0.0305 15.5274 0 15.6074 0 15.6874C0 15.7673 0.0305 15.8473 0.0915312 15.9083C0.213562 16.0304 0.411438 16.0304 0.5335 15.9083L3.71447 12.7274L5.96072 14.9737C6.49484 15.5077 7.36387 15.5077 7.89797 14.9737L15.5988 7.27281C15.8575 7.01412 16 6.67009 16 6.30421C16 5.93831 15.8575 5.59431 15.5988 5.33559ZM6.70228 14.7137C6.59266 14.6788 6.48944 14.6185 6.40263 14.5317L1.46816 9.59722C1.27344 9.40247 1.20994 9.126 1.27634 8.87734H6.70228V14.7137ZM5.57269 8.25234L6.49934 7.32568C6.62138 7.20365 6.62141 7.00578 6.49934 6.88375C6.37728 6.76171 6.17944 6.76168 6.05741 6.88375L4.68878 8.25234H3.77831L6.6035 5.42715C6.7255 5.30512 6.72553 5.10725 6.6035 4.98518C6.48147 4.86315 6.28359 4.86315 6.16153 4.98518L2.89444 8.25234H1.75969L8.87747 1.13453V7.5075C8.87747 7.91821 8.54334 8.25234 8.13262 8.25234H5.57269ZM15.1569 6.8309L7.45603 14.5317C7.41631 14.5714 7.37294 14.6052 7.32731 14.6341V8.87734H8.13266C8.88797 8.87734 9.5025 8.26284 9.5025 7.5075V6.70215H13.0845L11.2762 8.51053C11.2152 8.57153 11.1846 8.65153 11.1846 8.7315C11.1846 8.8115 11.2151 8.89143 11.2762 8.95247C11.3982 9.0745 11.5961 9.0745 11.7181 8.95247L13.9682 6.7024C13.9683 6.70234 13.9683 6.70225 13.9684 6.70218H15.2599C15.2307 6.74822 15.1964 6.79143 15.1569 6.8309ZM9.50247 6.07715V0.651215C9.75116 0.584809 10.0276 0.648309 10.2223 0.843027L15.1568 5.77753C15.2422 5.86287 15.3041 5.96534 15.3398 6.07715H9.50247Z" fill="#D0231D"/>
<path d="M7.36846 4.22022C7.31033 4.16179 7.22971 4.12866 7.14752 4.12866C7.06502 4.12866 6.98471 4.16179 6.92658 4.22022C6.86846 4.27835 6.83502 4.35866 6.83502 4.44116C6.83502 4.52335 6.86846 4.60398 6.92658 4.6621C6.98471 4.72023 7.06502 4.75366 7.14752 4.75366C7.22971 4.75366 7.31033 4.72023 7.36846 4.6621C7.42658 4.60398 7.46002 4.52335 7.46002 4.44116C7.46002 4.35866 7.42658 4.27835 7.36846 4.22022Z" fill="#D0231D"/>
<path d="M0.534658 13.4485C0.476533 13.3904 0.395908 13.3569 0.313721 13.3569C0.231533 13.3569 0.150908 13.3904 0.0927832 13.4485C0.0346582 13.5066 0.0012207 13.5872 0.0012207 13.6694C0.0012207 13.7516 0.0346582 13.8322 0.0927832 13.8904C0.150908 13.9485 0.231533 13.9819 0.313721 13.9819C0.396221 13.9819 0.476533 13.9485 0.534658 13.8904C0.593096 13.8322 0.626221 13.7516 0.626221 13.6694C0.626221 13.5872 0.593096 13.5066 0.534658 13.4485Z" fill="#D0231D"/>
<path d="M3.96929 14.0468C3.84723 13.9248 3.64935 13.9248 3.52732 14.0468L2.10807 15.4661C2.04707 15.5271 2.01654 15.6071 2.01654 15.6871C2.01654 15.767 2.04704 15.847 2.10807 15.9081C2.23013 16.0301 2.42801 16.0301 2.55004 15.9081L3.96929 14.4888C4.09129 14.3668 4.09129 14.1689 3.96929 14.0468Z" fill="#D0231D"/>
</svg>
