<svg width="13" height="13" viewBox="0 0 13 13" fill="none" xmlns="http://www.w3.org/2000/svg">
<path d="M7.81317 11.8406C7.70598 11.8673 7.59668 11.891 7.4882 11.911C7.20462 11.9637 7.01714 12.2365 7.06959 12.5203C7.09549 12.6599 7.1748 12.7763 7.28247 12.8522C7.39344 12.9303 7.53467 12.9656 7.67859 12.9388C7.80778 12.9148 7.93797 12.8866 8.06574 12.8547C8.34577 12.785 8.51638 12.5013 8.44651 12.2214C8.37682 11.9413 8.09338 11.7708 7.81317 11.8406Z" fill="#FAFAFA"/>
<path d="M11.6778 4.83581C11.7144 4.94613 11.7843 5.0362 11.8726 5.09844C12.0035 5.19063 12.1747 5.22164 12.3382 5.1676C12.6122 5.07661 12.7607 4.78112 12.67 4.50723C12.6287 4.38237 12.5829 4.25712 12.5341 4.13517C12.4269 3.86718 12.1229 3.7367 11.8548 3.8439C11.5869 3.95104 11.4564 4.25511 11.5637 4.52319C11.6047 4.62569 11.6431 4.7309 11.6778 4.83581Z" fill="#FAFAFA"/>
<path d="M9.51129 11.0945C9.4191 11.1554 9.32395 11.2143 9.2281 11.2695C8.97802 11.4137 8.89237 11.7334 9.03657 11.9833C9.07572 12.0513 9.12786 12.1069 9.18792 12.1494C9.34913 12.2628 9.56808 12.2798 9.75036 12.1748C9.86432 12.1091 9.97764 12.0391 10.0874 11.9665C10.3282 11.8075 10.3944 11.4833 10.2353 11.2424C10.0762 11.0015 9.7521 10.9353 9.51129 11.0945Z" fill="#FAFAFA"/>
<path d="M12.995 6.29531C12.9836 6.00687 12.7407 5.78236 12.4521 5.79362C12.164 5.80499 11.9393 6.04803 11.9506 6.33637C11.9549 6.44661 11.9561 6.5585 11.9535 6.66863C11.9495 6.84952 12.0379 7.01076 12.1754 7.10767C12.2573 7.16535 12.3567 7.20026 12.4645 7.20272C12.753 7.20911 12.992 6.98033 12.9984 6.69174C13.0013 6.56015 13.0002 6.42682 12.995 6.29531Z" fill="#FAFAFA"/>
<path d="M11.5927 9.71971C11.3614 9.54618 11.0341 9.59329 10.8609 9.82417C10.7946 9.91259 10.7247 9.99992 10.6532 10.084C10.4662 10.3037 10.4926 10.6336 10.7123 10.8207C10.7248 10.8313 10.7375 10.841 10.7506 10.8502C10.9689 11.0041 11.2724 10.9688 11.449 10.7616C11.5344 10.6613 11.6177 10.5569 11.697 10.4513C11.8702 10.2205 11.8233 9.893 11.5927 9.71971Z" fill="#FAFAFA"/>
<path d="M12.3607 7.83047C12.0853 7.74412 11.7921 7.89742 11.7058 8.17282C11.6727 8.27804 11.6361 8.38375 11.5966 8.48729C11.5098 8.71521 11.593 8.96599 11.7836 9.10038C11.8185 9.12494 11.857 9.14576 11.8989 9.16158C12.1685 9.26447 12.4705 9.12919 12.5732 8.85944C12.6202 8.73634 12.6637 8.61056 12.7031 8.48547C12.7893 8.21002 12.6361 7.91682 12.3607 7.83047Z" fill="#FAFAFA"/>
<path d="M5.53307 11.9157C5.06583 11.8319 4.61762 11.689 4.1926 11.4898C4.18757 11.4871 4.18307 11.4841 4.17779 11.4817C4.07764 11.4346 3.97765 11.3841 3.88074 11.3313C3.8804 11.3309 3.87979 11.3307 3.87925 11.3305C3.70144 11.2325 3.5279 11.1242 3.35931 11.0055C0.900935 9.27377 0.309843 5.86482 2.0417 3.40648C2.41829 2.87211 2.87402 2.42631 3.38209 2.07297C3.38835 2.06861 3.3946 2.06428 3.40081 2.05989C5.19116 0.82629 7.62218 0.743154 9.52325 2.01079L9.11494 2.60074C9.00143 2.76494 9.07126 2.8846 9.26998 2.86672L11.0436 2.70794C11.2425 2.69005 11.3615 2.51794 11.308 2.32579L10.8317 0.609801C10.7784 0.417427 10.6419 0.394401 10.5283 0.558577L10.119 1.14992C8.72391 0.213401 7.05059 -0.143708 5.38974 0.144293C5.22246 0.173244 5.05753 0.208678 4.89486 0.249925C4.8936 0.250149 4.8926 0.250289 4.89159 0.250512C4.8853 0.252049 4.87893 0.254089 4.87281 0.255794C3.44063 0.623577 2.19107 1.45888 1.29943 2.65068C1.29191 2.65959 1.28417 2.66831 1.27707 2.67801C1.24743 2.71794 1.218 2.7588 1.18919 2.79965C1.14207 2.86661 1.09563 2.93524 1.0512 3.00387C1.04563 3.01215 1.04139 3.02056 1.03652 3.02891C0.300733 4.1691 -0.054168 5.48726 0.0066962 6.82923C0.00683592 6.83365 0.00658442 6.83809 0.0066962 6.84262C0.0125926 6.97371 0.0229881 7.10661 0.0371003 7.23745C0.0378548 7.24589 0.0397272 7.25388 0.0411524 7.26232C0.0557396 7.39389 0.0740436 7.52576 0.0969864 7.65761C0.330159 9.00282 0.964734 10.2133 1.91562 11.1552C1.91782 11.1574 1.92012 11.1598 1.92235 11.1621C1.92313 11.163 1.924 11.1634 1.92476 11.1642C2.18023 11.4162 2.45811 11.6493 2.75732 11.86C3.54034 12.4117 4.41225 12.7765 5.34863 12.9445C5.63275 12.9955 5.90415 12.8064 5.95512 12.5224C6.00606 12.2383 5.8171 11.9666 5.53307 11.9157Z" fill="#FAFAFA"/>
<path d="M6.17935 2.32495C5.94565 2.32495 5.75635 2.51442 5.75635 2.74779V6.96041L9.60913 8.95207C9.67114 8.98418 9.73754 8.9993 9.80287 8.9993C9.9559 8.9993 10.1037 8.91597 10.1788 8.77057C10.286 8.56305 10.2049 8.30811 9.9974 8.20094L6.60188 6.44549V2.74779C6.60185 2.51442 6.41278 2.32495 6.17935 2.32495Z" fill="#FAFAFA"/>
</svg>
