<svg width="13" height="12" viewBox="0 0 13 12" fill="none" xmlns="http://www.w3.org/2000/svg">
<path d="M6.74167 0C4.31662 0 2.34375 1.97287 2.34375 4.39792C2.34375 5.51193 3.04568 7.08591 4.43015 9.07617C5.44208 10.531 6.43735 11.6569 6.47928 11.7041L6.74167 12L7.00415 11.7041C7.04599 11.6569 8.04126 10.531 9.05328 9.07617C10.4377 7.08591 11.1397 5.51193 11.1397 4.39792C11.1397 1.97287 9.16672 0 6.74167 0ZM8.48117 8.66986C7.79718 9.65387 7.10587 10.5007 6.74167 10.9328C6.37839 10.5019 5.68964 9.65826 5.0061 8.67554C3.72336 6.83148 3.04532 5.35226 3.04532 4.39792C3.04532 2.35977 4.70352 0.701569 6.74167 0.701569C8.77991 0.701569 10.438 2.35977 10.438 4.39792C10.438 5.35126 9.76135 6.82846 8.48117 8.66986Z" fill="#FAFAFA"/>
<path d="M6.74161 1.62549C5.31036 1.62549 4.146 2.78986 4.146 4.2211C4.146 5.65234 5.31036 6.8168 6.74161 6.8168C8.17294 6.8168 9.33731 5.65234 9.33731 4.2211C9.33731 2.78986 8.17294 1.62549 6.74161 1.62549ZM6.74161 6.11523C5.69727 6.11523 4.84756 5.26553 4.84756 4.2211C4.84756 3.17676 5.69727 2.32706 6.74161 2.32706C7.78604 2.32706 8.63574 3.17676 8.63574 4.2211C8.63574 5.26553 7.78604 6.11523 6.74161 6.11523Z" fill="#FAFAFA"/>
</svg>
