<svg width="13" height="13" viewBox="0 0 13 13" fill="none" xmlns="http://www.w3.org/2000/svg">
<g clip-path="url(#clip0)">
<path d="M12.9718 12.629L10.848 8.54077L11.2336 8.21813C11.2914 8.16983 11.3247 8.09852 11.3247 8.02334V1.8916C11.3247 0.848602 10.4761 0 9.43309 0H3.56786C2.52486 0 1.67626 0.848602 1.67626 1.8916V2.76758C1.67626 2.90772 1.79002 3.02148 1.93016 3.02148C2.07041 3.02148 2.18407 2.90772 2.18407 2.76758V1.8916C2.18407 1.12859 2.80485 0.507812 3.56786 0.507812H9.43309C10.1961 0.507812 10.8169 1.12859 10.8169 1.8916V7.90472L8.82411 9.57217H8.10009V9.204C8.10009 9.06386 7.98642 8.9501 7.84618 8.9501C7.70594 8.9501 7.59227 9.06386 7.59227 9.204V9.57217H6.82103V9.204C6.82103 9.06386 6.70737 8.9501 6.56723 8.9501C6.42698 8.9501 6.31332 9.06386 6.31332 9.204V9.57217H5.54208V9.204C5.54208 9.06386 5.42842 8.9501 5.28817 8.9501C5.14803 8.9501 5.03427 9.06386 5.03427 9.204V9.57217H4.17684L2.18407 7.90472V5.1543C2.18407 5.01405 2.07041 4.90039 1.93016 4.90039C1.79002 4.90039 1.67626 5.01405 1.67626 5.1543V8.02344C1.67626 8.09862 1.70958 8.16993 1.76731 8.21813L2.15293 8.54077L0.0291403 12.629C-0.0355264 12.7533 0.0129737 12.9067 0.137348 12.9713C0.174839 12.9908 0.214809 12.9999 0.254185 12.9999C0.345928 12.9999 0.434597 12.9501 0.479725 12.863L2.55174 8.87452L2.90264 9.1681L1.56617 12.6551C1.51598 12.7861 1.58144 12.9329 1.71236 12.9831C1.74231 12.9945 1.77296 13 1.80321 13C1.90527 13 2.00158 12.9379 2.04036 12.8368L2.30874 12.1366H8.76024C8.90039 12.1366 9.01415 12.023 9.01415 11.8827C9.01415 11.7425 8.90039 11.6288 8.76024 11.6288H2.50334L2.69892 11.1186C2.70974 11.12 2.72055 11.121 2.73175 11.121H10.2604C10.2745 11.121 10.2881 11.1196 10.3015 11.1174L10.9606 12.8368C10.9994 12.9379 11.0956 13 11.1977 13C11.228 13 11.2586 12.9945 11.2886 12.9831C11.4195 12.9329 11.485 12.7861 11.4348 12.6551L10.0983 9.1681L10.4492 8.87452L12.5212 12.863C12.5665 12.9501 12.655 12.9999 12.7468 12.9999C12.7861 12.9999 12.8262 12.9908 12.8636 12.9713C12.988 12.9067 13.0365 12.7534 12.9718 12.629ZM10.1083 10.6132H2.89263L3.31445 9.51266L3.92174 10.0209C3.96736 10.0591 4.02509 10.08 4.0847 10.08H8.91635C8.97596 10.08 9.03359 10.0591 9.07921 10.0209L9.6865 9.51266L10.1083 10.6132Z" fill="#FAFAFA"/>
<path d="M9.80078 11.6289C9.73393 11.6289 9.66847 11.6561 9.62126 11.7033C9.57405 11.7506 9.54688 11.8161 9.54688 11.8828C9.54688 11.9497 9.57395 12.0151 9.62126 12.0623C9.66847 12.1095 9.73393 12.1367 9.80078 12.1367C9.86753 12.1367 9.93299 12.1095 9.9802 12.0623C10.0275 12.0151 10.0547 11.9497 10.0547 11.8828C10.0547 11.8161 10.0275 11.7506 9.9802 11.7033C9.93299 11.6561 9.86753 11.6289 9.80078 11.6289Z" fill="#FAFAFA"/>
<path d="M10.1055 2.58984C10.1055 2.16981 9.76379 1.82812 9.34375 1.82812H3.65625C3.23631 1.82812 2.89453 2.16981 2.89453 2.58984V4.82422C2.89453 5.24426 3.23631 5.58594 3.65625 5.58594H9.34375C9.76379 5.58594 10.1055 5.24426 10.1055 4.82422V2.58984ZM3.40234 4.82422V2.58984C3.40234 2.4498 3.5163 2.33594 3.65625 2.33594H6.24609V5.07812H3.65625C3.5163 5.07812 3.40234 4.96416 3.40234 4.82422ZM9.59766 4.82422C9.59766 4.96416 9.4837 5.07812 9.34375 5.07812H6.75391V2.33594H9.34375C9.4837 2.33594 9.59766 2.4498 9.59766 2.58984V4.82422Z" fill="#FAFAFA"/>
<path d="M3.74951 7.97266C4.22549 7.97266 4.61279 7.58535 4.61279 7.10938C4.61279 6.6333 4.22549 6.24609 3.74951 6.24609C3.27354 6.24609 2.88623 6.6333 2.88623 7.10938C2.88623 7.58535 3.27354 7.97266 3.74951 7.97266ZM3.74951 6.75391C3.9455 6.75391 4.10498 6.91329 4.10498 7.10938C4.10498 7.30536 3.9455 7.46484 3.74951 7.46484C3.55353 7.46484 3.39404 7.30536 3.39404 7.10938C3.39404 6.91329 3.55353 6.75391 3.74951 6.75391Z" fill="#FAFAFA"/>
<path d="M9.24219 6.24609C8.76611 6.24609 8.37891 6.6333 8.37891 7.10938C8.37891 7.58535 8.76611 7.97266 9.24219 7.97266C9.71816 7.97266 10.1055 7.58535 10.1055 7.10938C10.1055 6.6333 9.71816 6.24609 9.24219 6.24609ZM9.24219 7.46484C9.0461 7.46484 8.88672 7.30536 8.88672 7.10938C8.88672 6.91329 9.0461 6.75391 9.24219 6.75391C9.43817 6.75391 9.59766 6.91329 9.59766 7.10938C9.59766 7.30536 9.43817 7.46484 9.24219 7.46484Z" fill="#FAFAFA"/>
<path d="M7.8456 6.24927H5.2876C5.14745 6.24927 5.03369 6.36293 5.03369 6.50317C5.03369 6.64342 5.14745 6.75708 5.2876 6.75708H7.8456C7.98585 6.75708 8.09951 6.64342 8.09951 6.50317C8.09951 6.36293 7.98585 6.24927 7.8456 6.24927Z" fill="#FAFAFA"/>
<path d="M7.8456 7.46484H5.2876C5.14745 7.46484 5.03369 7.57851 5.03369 7.71875C5.03369 7.85889 5.14745 7.97266 5.2876 7.97266H7.8456C7.98585 7.97266 8.09951 7.85889 8.09951 7.71875C8.09951 7.57851 7.98585 7.46484 7.8456 7.46484Z" fill="#FAFAFA"/>
<path d="M1.92969 4.17236C1.99654 4.17236 2.062 4.14548 2.10921 4.09798C2.15642 4.05077 2.18359 3.9855 2.18359 3.91846C2.18359 3.85171 2.15642 3.78625 2.10921 3.73904C2.062 3.69173 1.99654 3.66455 1.92969 3.66455C1.86294 3.66455 1.79748 3.69173 1.75017 3.73904C1.70296 3.78625 1.67578 3.85171 1.67578 3.91846C1.67578 3.9855 1.70296 4.05077 1.75017 4.09798C1.79748 4.14548 1.86294 4.17236 1.92969 4.17236Z" fill="#FAFAFA"/>
</g>
<defs>
<clipPath id="clip0">
<rect width="13" height="13" fill="white"/>
</clipPath>
</defs>
</svg>
