<svg width="13" height="13" viewBox="0 0 13 13" fill="none" xmlns="http://www.w3.org/2000/svg">
<path d="M11.4766 0H1.52344C0.683414 0 0 0.683414 0 1.52344V11.4766C0 12.3166 0.683414 13 1.52344 13H11.4766C12.3166 13 13 12.3166 13 11.4766V1.52344C13 0.683414 12.3166 0 11.4766 0ZM11.9844 11.4766C11.9844 11.7566 11.7566 11.9844 11.4766 11.9844H1.52344C1.24343 11.9844 1.01562 11.7566 1.01562 11.4766V1.52344C1.01562 1.24343 1.24343 1.01562 1.52344 1.01562H11.4766C11.7566 1.01562 11.9844 1.24343 11.9844 1.52344V11.4766Z" fill="#FAFAFA"/>
<path d="M7.26172 2.53906H3.70703V10.4609H4.72266V7.61719H7.26172C8.66176 7.61719 9.80078 6.47816 9.80078 5.07812C9.80078 3.67809 8.66176 2.53906 7.26172 2.53906ZM7.26172 6.60156H4.72266V3.55469H7.26172C8.10174 3.55469 8.78516 4.2381 8.78516 5.07812C8.78516 5.91815 8.10174 6.60156 7.26172 6.60156Z" fill="#FAFAFA"/>
</svg>
