<svg width="13" height="13" viewBox="0 0 13 13" fill="none" xmlns="http://www.w3.org/2000/svg">
<g clip-path="url(#clip0)">
<path d="M10.2805 8.06556C10.014 7.78801 9.69245 7.63962 9.3517 7.63962C9.0137 7.63962 8.68944 7.78526 8.41189 8.06281L7.54353 8.92842C7.47208 8.88995 7.40063 8.85423 7.33193 8.8185C7.23301 8.76904 7.13958 8.72232 7.05988 8.67286C6.24648 8.15624 5.50727 7.48298 4.79829 6.61187C4.4548 6.17769 4.22397 5.81221 4.05634 5.44123C4.28167 5.23513 4.49052 5.02079 4.69387 4.81469C4.77081 4.73775 4.84776 4.65806 4.9247 4.58111C5.50178 4.00404 5.50178 3.25659 4.9247 2.67951L4.1745 1.92931C4.08931 1.84412 4.00138 1.75619 3.91894 1.66825C3.75406 1.49788 3.58094 1.32201 3.40232 1.15713C3.13576 0.893321 2.817 0.753174 2.48174 0.753174C2.14649 0.753174 1.82223 0.893321 1.54743 1.15713C1.54468 1.15988 1.54468 1.15988 1.54193 1.16262L0.60762 2.10518C0.255878 2.45692 0.0552753 2.88561 0.0113075 3.38299C-0.054644 4.1854 0.181682 4.93286 0.363049 5.422C0.808223 6.62287 1.47323 7.7358 2.46526 8.92842C3.66887 10.3656 5.11706 11.5005 6.77135 12.3002C7.40338 12.5997 8.24701 12.9542 9.18957 13.0147C9.24728 13.0174 9.30773 13.0202 9.36269 13.0202C9.99748 13.0202 10.5306 12.7921 10.9483 12.3387C10.951 12.3332 10.9565 12.3304 10.9593 12.3249C11.1022 12.1518 11.267 11.9952 11.4402 11.8275C11.5583 11.7149 11.6792 11.5967 11.7974 11.4731C12.0695 11.19 12.2124 10.8603 12.2124 10.5223C12.2124 10.1815 12.0667 9.85449 11.7892 9.57969L10.2805 8.06556ZM11.2643 10.9592C11.2615 10.9592 11.2615 10.9619 11.2643 10.9592C11.1571 11.0746 11.0472 11.179 10.929 11.2944C10.7504 11.4648 10.5691 11.6434 10.3987 11.844C10.1211 12.1408 9.79413 12.281 9.36544 12.281C9.32422 12.281 9.28025 12.281 9.23903 12.2782C8.42288 12.226 7.66444 11.9072 7.09561 11.6352C5.54025 10.8822 4.1745 9.81327 3.03958 8.45852C2.10252 7.3291 1.47598 6.28486 1.06104 5.16369C0.805475 4.47944 0.712043 3.94633 0.753263 3.44345C0.780743 3.12194 0.904402 2.85538 1.13248 2.6273L2.06955 1.69024C2.2042 1.56383 2.34709 1.49513 2.48724 1.49513C2.66036 1.49513 2.80051 1.59955 2.88845 1.68749C2.89119 1.69024 2.89394 1.69298 2.89669 1.69573C3.06432 1.85237 3.2237 2.0145 3.39133 2.18762C3.47651 2.27556 3.56445 2.36349 3.65238 2.45418L4.40258 3.20437C4.69387 3.49566 4.69387 3.76496 4.40258 4.05625C4.32289 4.13594 4.24595 4.21563 4.16626 4.29258C3.93543 4.5289 3.71559 4.74874 3.47651 4.96308C3.47102 4.96858 3.46552 4.97133 3.46277 4.97682C3.22645 5.21315 3.27042 5.44398 3.31988 5.60062C3.32263 5.60886 3.32538 5.6171 3.32812 5.62535C3.52323 6.098 3.79803 6.54317 4.21572 7.07353L4.21847 7.07628C4.97691 8.0106 5.77658 8.73881 6.65868 9.29665C6.77135 9.3681 6.88676 9.42581 6.99668 9.48077C7.09561 9.53023 7.18904 9.57695 7.26873 9.62641C7.27972 9.63191 7.29071 9.64015 7.30171 9.64565C7.39514 9.69236 7.48307 9.71435 7.57376 9.71435C7.80184 9.71435 7.94473 9.57145 7.99145 9.52473L8.93126 8.58493C9.02469 8.49149 9.17308 8.37883 9.34621 8.37883C9.51658 8.37883 9.65673 8.486 9.74191 8.57943C9.74466 8.58218 9.74466 8.58218 9.74741 8.58493L11.2615 10.0991C11.5446 10.3794 11.5446 10.6679 11.2643 10.9592Z" fill="#FAFAFA"/>
<path d="M7.0268 3.09726C7.74677 3.21817 8.40079 3.55892 8.9229 4.08104C9.44502 4.60315 9.78302 5.25717 9.90668 5.97714C9.93691 6.15851 10.0935 6.28492 10.2722 6.28492C10.2941 6.28492 10.3134 6.28217 10.3354 6.27942C10.5387 6.24645 10.6734 6.05409 10.6404 5.85074C10.492 4.97963 10.0798 4.18546 9.45051 3.55617C8.82123 2.92688 8.02706 2.51469 7.15595 2.36629C6.9526 2.33332 6.76299 2.46797 6.72727 2.66857C6.69154 2.86918 6.82345 3.06428 7.0268 3.09726Z" fill="#FAFAFA"/>
<path d="M12.9956 5.74344C12.751 4.309 12.075 3.0037 11.0363 1.96497C9.99754 0.92623 8.69225 0.250226 7.25781 0.00565575C7.0572 -0.030068 6.86759 0.107331 6.83187 0.307934C6.79889 0.511285 6.93354 0.700895 7.13689 0.736619C8.41745 0.95371 9.58535 1.56101 10.5142 2.48708C11.443 3.4159 12.0475 4.5838 12.2646 5.86436C12.2949 6.04572 12.4515 6.17213 12.6301 6.17213C12.6521 6.17213 12.6713 6.16938 12.6933 6.16663C12.8939 6.13641 13.0313 5.94405 12.9956 5.74344Z" fill="#FAFAFA"/>
</g>
<defs>
<clipPath id="clip0">
<rect width="13" height="13" fill="white"/>
</clipPath>
</defs>
</svg>
