<svg width="15" height="14" viewBox="0 0 15 14" fill="none" xmlns="http://www.w3.org/2000/svg">
<path d="M14.674 4.33494L10.6647 0.325476C10.2308 -0.108492 9.52466 -0.108492 9.09071 0.325476L2.8338 6.58266C2.61684 6.79965 2.50835 7.08467 2.50835 7.36969C2.50835 7.65472 2.61684 7.93974 2.8338 8.15673L3.83975 9.16272L2.73519 10.2673C2.6856 10.3169 2.66082 10.3819 2.66082 10.4469C2.66082 10.5119 2.6856 10.5768 2.73519 10.6264C2.83434 10.7256 2.99511 10.7256 3.09426 10.6264L4.19883 9.52181L4.65888 9.98191L2.07437 12.5665C2.02478 12.6161 2 12.6811 2 12.7461C2 12.8111 2.02478 12.8761 2.07437 12.9256C2.17352 13.0248 2.33429 13.0248 2.43347 12.9256L5.01801 10.341L6.84308 12.1662C7.27706 12.6001 7.98315 12.6001 8.4171 12.1662L14.674 5.90899C14.8842 5.6988 15 5.41926 15 5.12198C15 4.82467 14.8842 4.54516 14.674 4.33494ZM7.4456 11.955C7.35653 11.9266 7.27267 11.8776 7.20213 11.8071L3.19288 7.79765C3.03467 7.6394 2.98307 7.41476 3.03703 7.21272H7.4456V11.955ZM6.52781 6.70489L7.28072 5.95195C7.37987 5.8528 7.37989 5.69202 7.28072 5.59287C7.18154 5.49371 7.02079 5.49369 6.92164 5.59287L5.80963 6.70489H5.06988L7.36534 4.40934C7.46447 4.31018 7.46449 4.1494 7.36534 4.05022C7.26619 3.95107 7.10542 3.95107 7.00624 4.05022L4.35173 6.70489H3.42975L9.21294 0.921443V6.09968C9.21294 6.4334 8.94147 6.70489 8.60776 6.70489H6.52781ZM14.315 5.54993L8.05803 11.8071C8.02575 11.8394 7.99051 11.8668 7.95344 11.8903V7.21272H8.60778C9.22147 7.21272 9.72078 6.71342 9.72078 6.09968V5.44531H12.6312L11.1619 6.91468C11.1123 6.96424 11.0875 7.02924 11.0875 7.09422C11.0875 7.15922 11.1123 7.22417 11.1619 7.27377C11.261 7.37292 11.4218 7.37292 11.521 7.27377L13.3492 5.44552C13.3492 5.44547 13.3493 5.44539 13.3493 5.44534H14.3986C14.3749 5.48274 14.3471 5.51786 14.315 5.54993ZM9.72076 4.93748V0.528736C9.92281 0.474779 10.1474 0.526375 10.3057 0.68459L14.3149 4.69403C14.3843 4.76337 14.4346 4.84663 14.4635 4.93748H9.72076Z" fill="#FAFAFA"/>
<path d="M7.3684 2.22022C7.31027 2.16179 7.22965 2.12866 7.14746 2.12866C7.06496 2.12866 6.98465 2.16179 6.92652 2.22022C6.8684 2.27835 6.83496 2.35866 6.83496 2.44116C6.83496 2.52335 6.8684 2.60398 6.92652 2.6621C6.98465 2.72023 7.06496 2.75366 7.14746 2.75366C7.22965 2.75366 7.31027 2.72023 7.3684 2.6621C7.42652 2.60398 7.45996 2.52335 7.45996 2.44116C7.45996 2.35866 7.42652 2.27835 7.3684 2.22022Z" fill="#FAFAFA"/>
<path d="M0.534658 11.4485C0.476533 11.3904 0.395908 11.3569 0.313721 11.3569C0.231533 11.3569 0.150908 11.3904 0.0927832 11.4485C0.0346582 11.5066 0.0012207 11.5872 0.0012207 11.6694C0.0012207 11.7516 0.0346582 11.8322 0.0927832 11.8904C0.150908 11.9485 0.231533 11.9819 0.313721 11.9819C0.396221 11.9819 0.476533 11.9485 0.534658 11.8904C0.593096 11.8322 0.626221 11.7516 0.626221 11.6694C0.626221 11.5872 0.593096 11.5066 0.534658 11.4485Z" fill="#FAFAFA"/>
<path d="M3.96935 12.0468C3.84729 11.9248 3.64941 11.9248 3.52738 12.0468L2.10813 13.4661C2.04713 13.5271 2.0166 13.6071 2.0166 13.6871C2.0166 13.767 2.0471 13.847 2.10813 13.9081C2.2302 14.0301 2.42807 14.0301 2.5501 13.9081L3.96935 12.4888C4.09135 12.3668 4.09135 12.1689 3.96935 12.0468Z" fill="#FAFAFA"/>
</svg>
