<svg width="25" height="50" viewBox="0 0 25 50" fill="none" xmlns="http://www.w3.org/2000/svg">
<path d="M18.9163 40.6282C18.4659 40.1592 17.9227 39.9085 17.3469 39.9085C16.7758 39.9085 16.2279 40.1546 15.7589 40.6236L14.2917 42.0862C14.1709 42.0212 14.0502 41.9608 13.9341 41.9005C13.767 41.8169 13.6091 41.7379 13.4745 41.6544C12.1001 40.7814 10.851 39.6438 9.65306 38.1719C9.07265 37.4383 8.68262 36.8207 8.39938 36.1939C8.78013 35.8457 9.13302 35.4835 9.47662 35.1352C9.60663 35.0052 9.73664 34.8706 9.86665 34.7406C10.8417 33.7655 10.8417 32.5025 9.86665 31.5274L8.59904 30.2598C8.4551 30.1159 8.30652 29.9673 8.16722 29.8187C7.88862 29.5308 7.5961 29.2337 7.29429 28.9551C6.84389 28.5093 6.30528 28.2725 5.7388 28.2725C5.17232 28.2725 4.62442 28.5093 4.16009 28.9551C4.15545 28.9597 4.15545 28.9597 4.15081 28.9644L2.5721 30.557C1.97777 31.1513 1.63881 31.8757 1.56452 32.7161C1.45308 34.0719 1.8524 35.3349 2.15885 36.1614C2.91106 38.1905 4.03473 40.071 5.71094 42.0862C7.74468 44.5146 10.1917 46.4323 12.9869 47.7835C14.0549 48.2896 15.4803 48.8886 17.073 48.9907C17.1705 48.9954 17.2726 49 17.3655 49C18.4381 49 19.3389 48.6146 20.0447 47.8485C20.0493 47.8392 20.0586 47.8345 20.0632 47.8253C20.3047 47.5327 20.5833 47.2681 20.8758 46.9848C21.0755 46.7945 21.2798 46.5948 21.4794 46.3858C21.9391 45.9076 22.1805 45.3504 22.1805 44.7793C22.1805 44.2035 21.9345 43.651 21.4655 43.1866L18.9163 40.6282ZM20.5786 45.5176C20.574 45.5176 20.574 45.5222 20.5786 45.5176C20.3975 45.7126 20.2118 45.889 20.0122 46.084C19.7103 46.3719 19.4039 46.6737 19.116 47.0127C18.647 47.5142 18.0945 47.751 17.3701 47.751C17.3005 47.751 17.2262 47.751 17.1566 47.7463C15.7775 47.6581 14.496 47.1195 13.5348 46.6598C10.9067 45.3875 8.59904 43.5813 6.68138 41.2922C5.09803 39.3838 4.03937 37.6194 3.33824 35.7249C2.90642 34.5688 2.74855 33.668 2.81819 32.8183C2.86463 32.275 3.07357 31.8246 3.45896 31.4392L5.04231 29.8559C5.26983 29.6423 5.51128 29.5262 5.74809 29.5262C6.04061 29.5262 6.27742 29.7026 6.426 29.8512C6.43064 29.8559 6.43529 29.8605 6.43993 29.8652C6.72317 30.1298 6.99248 30.4038 7.27571 30.6963C7.41966 30.8449 7.56824 30.9935 7.71682 31.1467L8.98443 32.4143C9.47662 32.9065 9.47662 33.3615 8.98443 33.8537C8.84978 33.9884 8.71977 34.123 8.58511 34.253C8.19508 34.6523 7.82362 35.0238 7.41966 35.386C7.41037 35.3953 7.40108 35.3999 7.39644 35.4092C6.99712 35.8085 7.07141 36.1986 7.15499 36.4632C7.15963 36.4771 7.16428 36.4911 7.16892 36.505C7.49859 37.3036 7.96292 38.0559 8.66869 38.952L8.67333 38.9566C9.95487 40.5353 11.3061 41.7658 12.7965 42.7084C12.9869 42.8291 13.1819 42.9266 13.3677 43.0195C13.5348 43.1031 13.6927 43.182 13.8273 43.2656C13.8459 43.2749 13.8645 43.2888 13.8831 43.2981C14.0409 43.377 14.1895 43.4142 14.3427 43.4142C14.7281 43.4142 14.9696 43.1727 15.0485 43.0938L16.6365 41.5058C16.7944 41.3479 17.0451 41.1575 17.3376 41.1575C17.6255 41.1575 17.8623 41.3386 18.0063 41.4965C18.0109 41.5011 18.0109 41.5011 18.0156 41.5058L20.574 44.0642C21.0522 44.5378 21.0522 45.0254 20.5786 45.5176Z" fill="#FAFAFA"/>
<path d="M13.4186 32.2332C14.6351 32.4375 15.7402 33.0133 16.6224 33.8955C17.5046 34.7777 18.0757 35.8828 18.2847 37.0993C18.3357 37.4058 18.6004 37.6194 18.9022 37.6194C18.9394 37.6194 18.9719 37.6147 19.009 37.6101C19.3526 37.5544 19.5801 37.2294 19.5244 36.8858C19.2737 35.4138 18.5772 34.0719 17.5139 33.0086C16.4506 31.9453 15.1087 31.2488 13.6368 30.9981C13.2932 30.9424 12.9728 31.1699 12.9124 31.5089C12.8521 31.8478 13.075 32.1775 13.4186 32.2332Z" fill="#FAFAFA"/>
<path d="M23.504 36.7047C23.0908 34.2809 21.9485 32.0753 20.1934 30.3202C18.4382 28.565 16.2327 27.4228 13.8089 27.0096C13.4699 26.9492 13.1496 27.1814 13.0892 27.5203C13.0335 27.8639 13.261 28.1843 13.6046 28.2447C15.7684 28.6115 17.7417 29.6376 19.3112 31.2024C20.8806 32.7718 21.9021 34.7452 22.2689 36.909C22.32 37.2154 22.5846 37.429 22.8865 37.429C22.9236 37.429 22.9561 37.4244 22.9933 37.4197C23.3322 37.3686 23.5644 37.0436 23.504 36.7047Z" fill="#FAFAFA"/>
<path d="M18.9163 15.6282C18.4659 15.1592 17.9227 14.9085 17.3469 14.9085C16.7758 14.9085 16.2279 15.1546 15.7589 15.6236L14.2917 17.0862C14.1709 17.0212 14.0502 16.9608 13.9341 16.9005C13.767 16.8169 13.6091 16.7379 13.4745 16.6544C12.1001 15.7814 10.851 14.6438 9.65306 13.1719C9.07265 12.4383 8.68262 11.8207 8.39938 11.1939C8.78013 10.8457 9.13302 10.4835 9.47662 10.1352C9.60663 10.0052 9.73664 9.87058 9.86665 9.74057C10.8417 8.76549 10.8417 7.50252 9.86665 6.52744L8.59904 5.25983C8.4551 5.11589 8.30652 4.96731 8.16722 4.81872C7.88862 4.53084 7.5961 4.23367 7.29429 3.95508C6.84389 3.50933 6.30528 3.27252 5.7388 3.27252C5.17232 3.27252 4.62442 3.50933 4.16009 3.95508C4.15545 3.95972 4.15545 3.95972 4.15081 3.96437L2.5721 5.557C1.97777 6.15134 1.63881 6.87568 1.56452 7.71611C1.45308 9.07194 1.8524 10.3349 2.15885 11.1614C2.91106 13.1905 4.03473 15.071 5.71094 17.0862C7.74468 19.5146 10.1917 21.4323 12.9869 22.7835C14.0549 23.2896 15.4803 23.8886 17.073 23.9907C17.1705 23.9954 17.2726 24 17.3655 24C18.4381 24 19.3389 23.6146 20.0447 22.8485C20.0493 22.8392 20.0586 22.8345 20.0632 22.8253C20.3047 22.5327 20.5833 22.2681 20.8758 21.9848C21.0755 21.7945 21.2798 21.5948 21.4794 21.3858C21.9391 20.9076 22.1805 20.3504 22.1805 19.7793C22.1805 19.2035 21.9345 18.651 21.4655 18.1866L18.9163 15.6282ZM20.5786 20.5176C20.574 20.5176 20.574 20.5222 20.5786 20.5176C20.3975 20.7126 20.2118 20.889 20.0122 21.084C19.7103 21.3719 19.4039 21.6737 19.116 22.0127C18.647 22.5142 18.0945 22.751 17.3701 22.751C17.3005 22.751 17.2262 22.751 17.1566 22.7463C15.7775 22.6581 14.496 22.1195 13.5348 21.6598C10.9067 20.3875 8.59904 18.5813 6.68138 16.2922C5.09803 14.3838 4.03937 12.6194 3.33824 10.7249C2.90642 9.56877 2.74855 8.66798 2.81819 7.81826C2.86463 7.275 3.07357 6.82461 3.45896 6.43922L5.04231 4.85587C5.26983 4.64228 5.51128 4.5262 5.74809 4.5262C6.04061 4.5262 6.27742 4.70264 6.426 4.85123C6.43064 4.85587 6.43529 4.86051 6.43993 4.86516C6.72317 5.12982 6.99248 5.40377 7.27571 5.6963C7.41966 5.84488 7.56824 5.99347 7.71682 6.14669L8.98443 7.4143C9.47662 7.90649 9.47662 8.36153 8.98443 8.85371C8.84978 8.98836 8.71977 9.12302 8.58511 9.25303C8.19508 9.65235 7.82362 10.0238 7.41966 10.386C7.41037 10.3953 7.40108 10.3999 7.39644 10.4092C6.99712 10.8085 7.07141 11.1986 7.15499 11.4632C7.15963 11.4771 7.16428 11.4911 7.16892 11.505C7.49859 12.3036 7.96292 13.0559 8.66869 13.952L8.67333 13.9566C9.95487 15.5353 11.3061 16.7658 12.7965 17.7084C12.9869 17.8291 13.1819 17.9266 13.3677 18.0195C13.5348 18.1031 13.6927 18.182 13.8273 18.2656C13.8459 18.2749 13.8645 18.2888 13.8831 18.2981C14.0409 18.377 14.1895 18.4142 14.3427 18.4142C14.7281 18.4142 14.9696 18.1727 15.0485 18.0938L16.6365 16.5058C16.7944 16.3479 17.0451 16.1575 17.3376 16.1575C17.6255 16.1575 17.8623 16.3386 18.0063 16.4965C18.0109 16.5011 18.0109 16.5011 18.0156 16.5058L20.574 19.0642C21.0522 19.5378 21.0522 20.0254 20.5786 20.5176Z" fill="#D0231D"/>
<path d="M13.4186 7.23322C14.6351 7.43752 15.7402 8.01328 16.6224 8.8955C17.5046 9.77772 18.0757 10.8828 18.2847 12.0993C18.3357 12.4058 18.6004 12.6194 18.9022 12.6194C18.9394 12.6194 18.9719 12.6147 19.009 12.6101C19.3526 12.5544 19.5801 12.2294 19.5244 11.8858C19.2737 10.4138 18.5772 9.07194 17.5139 8.00864C16.4506 6.94533 15.1087 6.24885 13.6368 5.99811C13.2932 5.94239 12.9728 6.16991 12.9124 6.50887C12.8521 6.84783 13.075 7.1775 13.4186 7.23322Z" fill="#D0231D"/>
<path d="M23.504 11.7047C23.0908 9.28089 21.9485 7.07534 20.1934 5.32019C18.4382 3.56505 16.2327 2.42281 13.8089 2.00956C13.4699 1.94919 13.1496 2.18136 13.0892 2.52031C13.0335 2.86391 13.261 3.1843 13.6046 3.24466C15.7684 3.61148 17.7417 4.63764 19.3112 6.20241C20.8806 7.77183 21.9021 9.74521 22.2689 11.909C22.32 12.2154 22.5846 12.429 22.8865 12.429C22.9236 12.429 22.9561 12.4244 22.9933 12.4197C23.3322 12.3686 23.5644 12.0436 23.504 11.7047Z" fill="#D0231D"/>
</svg>
