<svg width="25" height="50" viewBox="0 0 25 50" fill="none" xmlns="http://www.w3.org/2000/svg">
<path d="M12.5 25.3906C5.82266 25.3906 0.390625 30.823 0.390625 37.5C0.390625 44.1773 5.82266 49.6094 12.5 49.6094C19.1773 49.6094 24.6094 44.1773 24.6094 37.5C24.6094 30.823 19.1773 25.3906 12.5 25.3906ZM14.0625 34.7656H12.2711L11.8469 34.3414C11.6199 34.1145 11.3059 33.9844 10.9848 33.9844C10.3125 33.9844 9.76562 34.5313 9.76562 35.2035V37.1094C9.76562 37.3582 9.80195 37.598 9.86445 37.8273C9.32578 37.4723 8.98438 36.8695 8.98438 36.2012V34.0477C8.98438 33.4773 9.34805 32.9727 9.88906 32.7926L9.97656 32.7633L10.184 32.5559C10.7742 31.9656 11.559 31.6406 12.3938 31.6406H12.8906C14.6137 31.6406 16.0156 33.0426 16.0156 34.7656V36.2012C16.0156 36.8695 15.6742 37.4719 15.1355 37.8273C15.198 37.598 15.2344 37.3582 15.2344 37.1094V35.9375C15.2344 35.2914 14.7086 34.7656 14.0625 34.7656ZM10.5469 37.1094V35.2035C10.5469 34.9621 10.7434 34.7656 10.9848 34.7656C11.1 34.7656 11.2129 34.8125 11.2945 34.8937L11.9477 35.5469H14.0625C14.2781 35.5469 14.4531 35.7223 14.4531 35.9375V37.1094C14.4531 38.1863 13.577 39.0625 12.5 39.0625C11.423 39.0625 10.5469 38.1863 10.5469 37.1094ZM15.2855 40.9488L15.5551 42.2715L14.4234 42.498L14.9461 40.8258C15.0609 40.8621 15.1742 40.9031 15.2855 40.9488ZM11.8086 43.8219L12.5 43.1305L13.1914 43.8219L12.6051 45.6977C12.5699 45.698 12.5355 45.7031 12.5 45.7031C12.4645 45.7031 12.4301 45.698 12.3949 45.6977L11.8086 43.8219ZM13.4543 42.9801L12.975 42.5008L13.9078 40.6352C13.9988 40.6402 14.0895 40.6484 14.1793 40.6594L13.4543 42.9801ZM12.5 39.8438C12.7715 39.8438 13.0336 39.8027 13.2812 39.7285V40.1422L12.5 41.7047L11.7188 40.1422V39.7285C11.9664 39.8027 12.2285 39.8438 12.5 39.8438V39.8438ZM11.0918 40.6355L12.0246 42.5012L11.5453 42.9805L10.8203 40.6594C10.9102 40.6484 11.0008 40.6406 11.0918 40.6355V40.6355ZM10.0543 40.8258L10.577 42.498L9.44531 42.2715L9.71484 40.9488C9.82578 40.9031 9.93906 40.8621 10.0543 40.8258V40.8258ZM10.1453 43.2086L9.26289 44.091L10.0973 45.3426C9.01992 45.0117 8.03906 44.4629 7.20039 43.7508C7.46797 42.8082 8.05 42.007 8.81523 41.4516L8.52344 42.8848L10.1453 43.2086ZM11.2016 45.5902L10.2684 44.1902L10.9063 43.5523L11.5602 45.6449C11.4391 45.6313 11.3211 45.6094 11.2016 45.5902V45.5902ZM14.0938 43.5523L14.7316 44.1902L13.7984 45.5902C13.6793 45.6094 13.5609 45.6313 13.4398 45.6453L14.0938 43.5523ZM14.8547 43.2086L16.4762 42.8844L16.1844 41.4512C16.9496 42.0066 17.5316 42.8082 17.7992 43.7504C16.9605 44.4629 15.9793 45.0117 14.9023 45.3422L15.7367 44.0906L14.8547 43.2086ZM18.4277 43.1551C17.7449 41.2969 16.0563 40.0078 14.0625 39.8582V39.35C14.2379 39.2273 14.3973 39.084 14.5391 38.9246L14.9273 38.7953C16.0453 38.4227 16.7969 37.3801 16.7969 36.2012V34.7656C16.7969 32.6117 15.0445 30.8594 12.8906 30.8594H12.3938C11.3504 30.8594 10.3695 31.266 9.63203 32.0035L9.55156 32.084C8.74102 32.3953 8.20312 33.1727 8.20312 34.0477V36.2012C8.20312 37.3801 8.95469 38.4227 10.0727 38.7949L10.4609 38.9242C10.6031 39.0836 10.7621 39.227 10.9375 39.3496V39.8578C8.94375 40.0074 7.25508 41.2965 6.57227 43.1543C5.16641 41.6816 4.29688 39.6922 4.29688 37.5C4.29688 32.9766 7.97695 29.2969 12.5 29.2969C17.023 29.2969 20.7031 32.9766 20.7031 37.5C20.7031 39.6922 19.8336 41.6816 18.4277 43.1551ZM18.5672 30.8805C17.0574 29.4953 15.0738 28.6195 12.8906 28.5254V26.1816C15.7195 26.2781 18.2875 27.4156 20.2234 29.2238L18.5672 30.8805ZM12.1094 28.5254C9.92617 28.6191 7.94258 29.4953 6.43281 30.8805L4.77656 29.2238C6.7125 27.4156 9.28047 26.2781 12.1094 26.1816V28.5254ZM5.88047 31.4328C4.49531 32.943 3.61953 34.9262 3.52539 37.1094H1.18164C1.27813 34.2805 2.41562 31.7125 4.22383 29.7762L5.88047 31.4328ZM3.52539 37.8906C3.61914 40.0738 4.49492 42.0574 5.88008 43.5672L4.22383 45.2234C2.41602 43.2875 1.27813 40.7195 1.18164 37.8906H3.52539ZM6.43281 44.1195C7.94297 45.5047 9.92617 46.3805 12.1094 46.4742V48.818C9.28047 48.7215 6.7125 47.584 4.77656 45.7758L6.43281 44.1195ZM12.8906 46.4746C15.0738 46.3809 17.0574 45.5051 18.5672 44.1199L20.2234 45.7762C18.2875 47.584 15.7195 48.7219 12.8906 48.8184V46.4746ZM19.1195 43.5672C20.5047 42.057 21.3805 40.0738 21.4742 37.8906H23.818C23.7215 40.7195 22.584 43.2875 20.7758 45.2234L19.1195 43.5672ZM21.4746 37.1094C21.3809 34.9262 20.5051 32.943 19.1199 31.4328L20.7762 29.7762C22.5844 31.7125 23.7219 34.2805 23.8184 37.1094H21.4746Z" fill="#FAFAFA"/>
<path d="M6.02419 36.0238L5.26208 35.8512C5.20076 36.1227 5.15388 36.4 5.12341 36.6758L5.89998 36.7621C5.92693 36.5152 5.96873 36.2668 6.02419 36.0238V36.0238Z" fill="#FAFAFA"/>
<path d="M5.07812 37.5C5.07812 38.9762 5.51016 40.4023 6.32813 41.6238L6.97734 41.1891C6.2457 40.0961 5.85938 38.8207 5.85938 37.5H5.07812Z" fill="#FAFAFA"/>
<path d="M20.198 31.4906C20.3527 31.6883 20.5003 31.893 20.6375 32.0992L21.2882 31.6672C21.1402 31.4445 20.9808 31.2231 20.8136 31.0094L20.198 31.4906Z" fill="#FAFAFA"/>
<path d="M21.3707 33.4098L22.0793 33.0809C21.9652 32.8352 21.8418 32.5926 21.7113 32.359L21.0293 32.7402C21.1504 32.9566 21.2648 33.1816 21.3707 33.4098Z" fill="#FAFAFA"/>
<path d="M22.1911 36.2863L22.9661 36.1898C22.9325 35.9207 22.8887 35.6516 22.8356 35.3898L22.0696 35.5449C22.1192 35.7875 22.1598 36.0367 22.1911 36.2863V36.2863Z" fill="#FAFAFA"/>
<path d="M21.8922 34.8156L22.6437 34.6012C22.5699 34.3418 22.4847 34.0824 22.391 33.8301L21.6586 34.1023C21.7453 34.3359 21.8238 34.5758 21.8922 34.8156Z" fill="#FAFAFA"/>
<path d="M2.80894 38.7133L2.03394 38.8102C2.06753 39.0789 2.11128 39.3484 2.1644 39.6102L2.93042 39.4547C2.8812 39.2125 2.84019 38.9629 2.80894 38.7133V38.7133Z" fill="#FAFAFA"/>
<path d="M4.8019 43.5094C4.64722 43.3121 4.49995 43.1074 4.36245 42.9004L3.71167 43.332C3.85972 43.5555 4.01948 43.7773 4.18628 43.9906L4.8019 43.5094Z" fill="#FAFAFA"/>
<path d="M3.10776 40.184L2.3562 40.3984C2.43003 40.6578 2.51519 40.9172 2.60894 41.1699L3.34136 40.8977C3.25464 40.6641 3.17612 40.4238 3.10776 40.184Z" fill="#FAFAFA"/>
<path d="M3.62925 41.5906L2.92065 41.9188C3.03394 42.1641 3.15776 42.407 3.28862 42.6414L3.97065 42.2598C3.84917 42.043 3.73472 41.8176 3.62925 41.5906V41.5906Z" fill="#FAFAFA"/>
<path d="M16.5906 46.3707L16.9187 47.0793C17.164 46.966 17.407 46.8422 17.6414 46.7113L17.2597 46.0293C17.0429 46.1508 16.8175 46.2652 16.5906 46.3707V46.3707Z" fill="#FAFAFA"/>
<path d="M13.7133 47.191L13.8101 47.966C14.0789 47.9324 14.3484 47.8887 14.6101 47.8355L14.4547 47.0695C14.2125 47.1188 13.9629 47.1598 13.7133 47.191V47.191Z" fill="#FAFAFA"/>
<path d="M15.184 46.8922L15.3984 47.6437C15.6578 47.5699 15.9172 47.4848 16.1699 47.391L15.8976 46.6586C15.664 46.7453 15.4238 46.8238 15.184 46.8922Z" fill="#FAFAFA"/>
<path d="M18.5094 45.198C18.3121 45.3527 18.1074 45.5 17.9004 45.6375L18.332 46.2883C18.5555 46.1402 18.7773 45.9805 18.9906 45.8137L18.5094 45.198Z" fill="#FAFAFA"/>
<path d="M12.5 0.390625C5.82266 0.390625 0.390625 5.82305 0.390625 12.5C0.390625 19.1773 5.82266 24.6094 12.5 24.6094C19.1773 24.6094 24.6094 19.1773 24.6094 12.5C24.6094 5.82305 19.1773 0.390625 12.5 0.390625ZM14.0625 9.76562H12.2711L11.8469 9.34141C11.6199 9.11445 11.3059 8.98438 10.9848 8.98438C10.3125 8.98438 9.76562 9.53125 9.76562 10.2035V12.1094C9.76562 12.3582 9.80195 12.598 9.86445 12.8273C9.32578 12.4723 8.98438 11.8695 8.98438 11.2012V9.04766C8.98438 8.47734 9.34805 7.97266 9.88906 7.79258L9.97656 7.76328L10.184 7.55586C10.7742 6.96563 11.559 6.64062 12.3938 6.64062H12.8906C14.6137 6.64062 16.0156 8.04258 16.0156 9.76562V11.2012C16.0156 11.8695 15.6742 12.4719 15.1355 12.8273C15.198 12.598 15.2344 12.3582 15.2344 12.1094V10.9375C15.2344 10.2914 14.7086 9.76562 14.0625 9.76562ZM10.5469 12.1094V10.2035C10.5469 9.96211 10.7434 9.76562 10.9848 9.76562C11.1 9.76562 11.2129 9.8125 11.2945 9.89375L11.9477 10.5469H14.0625C14.2781 10.5469 14.4531 10.7223 14.4531 10.9375V12.1094C14.4531 13.1863 13.577 14.0625 12.5 14.0625C11.423 14.0625 10.5469 13.1863 10.5469 12.1094ZM15.2855 15.9488L15.5551 17.2715L14.4234 17.498L14.9461 15.8258C15.0609 15.8621 15.1742 15.9031 15.2855 15.9488ZM11.8086 18.8219L12.5 18.1305L13.1914 18.8219L12.6051 20.6977C12.5699 20.698 12.5355 20.7031 12.5 20.7031C12.4645 20.7031 12.4301 20.698 12.3949 20.6977L11.8086 18.8219ZM13.4543 17.9801L12.975 17.5008L13.9078 15.6352C13.9988 15.6402 14.0895 15.6484 14.1793 15.6594L13.4543 17.9801ZM12.5 14.8438C12.7715 14.8438 13.0336 14.8027 13.2812 14.7285V15.1422L12.5 16.7047L11.7188 15.1422V14.7285C11.9664 14.8027 12.2285 14.8438 12.5 14.8438V14.8438ZM11.0918 15.6355L12.0246 17.5012L11.5453 17.9805L10.8203 15.6594C10.9102 15.6484 11.0008 15.6406 11.0918 15.6355V15.6355ZM10.0543 15.8258L10.577 17.498L9.44531 17.2715L9.71484 15.9488C9.82578 15.9031 9.93906 15.8621 10.0543 15.8258V15.8258ZM10.1453 18.2086L9.26289 19.091L10.0973 20.3426C9.01992 20.0117 8.03906 19.4629 7.20039 18.7508C7.46797 17.8082 8.05 17.007 8.81523 16.4516L8.52344 17.8848L10.1453 18.2086ZM11.2016 20.5902L10.2684 19.1902L10.9063 18.5523L11.5602 20.6449C11.4391 20.6313 11.3211 20.6094 11.2016 20.5902V20.5902ZM14.0938 18.5523L14.7316 19.1902L13.7984 20.5902C13.6793 20.6094 13.5609 20.6313 13.4398 20.6453L14.0938 18.5523ZM14.8547 18.2086L16.4762 17.8844L16.1844 16.4512C16.9496 17.0066 17.5316 17.8082 17.7992 18.7504C16.9605 19.4629 15.9793 20.0117 14.9023 20.3422L15.7367 19.0906L14.8547 18.2086ZM18.4277 18.1551C17.7449 16.2969 16.0563 15.0078 14.0625 14.8582V14.35C14.2379 14.2273 14.3973 14.084 14.5391 13.9246L14.9273 13.7953C16.0453 13.4227 16.7969 12.3801 16.7969 11.2012V9.76562C16.7969 7.61172 15.0445 5.85938 12.8906 5.85938H12.3938C11.3504 5.85938 10.3695 6.26602 9.63203 7.00352L9.55156 7.08398C8.74102 7.39531 8.20312 8.17266 8.20312 9.04766V11.2012C8.20312 12.3801 8.95469 13.4227 10.0727 13.7949L10.4609 13.9242C10.6031 14.0836 10.7621 14.227 10.9375 14.3496V14.8578C8.94375 15.0074 7.25508 16.2965 6.57227 18.1543C5.16641 16.6816 4.29688 14.6922 4.29688 12.5C4.29688 7.97656 7.97695 4.29688 12.5 4.29688C17.023 4.29688 20.7031 7.97656 20.7031 12.5C20.7031 14.6922 19.8336 16.6816 18.4277 18.1551ZM18.5672 5.88047C17.0574 4.49531 15.0738 3.61953 12.8906 3.52539V1.18164C15.7195 1.27813 18.2875 2.41562 20.2234 4.22383L18.5672 5.88047ZM12.1094 3.52539C9.92617 3.61914 7.94258 4.49531 6.43281 5.88047L4.77656 4.22383C6.7125 2.41562 9.28047 1.27813 12.1094 1.18164V3.52539ZM5.88047 6.43281C4.49531 7.94297 3.61953 9.92617 3.52539 12.1094H1.18164C1.27813 9.28047 2.41562 6.7125 4.22383 4.77617L5.88047 6.43281ZM3.52539 12.8906C3.61914 15.0738 4.49492 17.0574 5.88008 18.5672L4.22383 20.2234C2.41602 18.2875 1.27813 15.7195 1.18164 12.8906H3.52539ZM6.43281 19.1195C7.94297 20.5047 9.92617 21.3805 12.1094 21.4742V23.818C9.28047 23.7215 6.7125 22.584 4.77656 20.7758L6.43281 19.1195ZM12.8906 21.4746C15.0738 21.3809 17.0574 20.5051 18.5672 19.1199L20.2234 20.7762C18.2875 22.584 15.7195 23.7219 12.8906 23.8184V21.4746ZM19.1195 18.5672C20.5047 17.057 21.3805 15.0738 21.4742 12.8906H23.818C23.7215 15.7195 22.584 18.2875 20.7758 20.2234L19.1195 18.5672ZM21.4746 12.1094C21.3809 9.92617 20.5051 7.94297 19.1199 6.43281L20.7762 4.77617C22.5844 6.7125 23.7219 9.28047 23.8184 12.1094H21.4746Z" fill="#D0231D"/>
<path d="M6.02419 11.0238L5.26208 10.8512C5.20076 11.1227 5.15388 11.4 5.12341 11.6758L5.89998 11.7621C5.92693 11.5152 5.96873 11.2668 6.02419 11.0238V11.0238Z" fill="#D0231D"/>
<path d="M5.07812 12.5C5.07812 13.9762 5.51016 15.4023 6.32813 16.6238L6.97734 16.1891C6.2457 15.0961 5.85938 13.8207 5.85938 12.5H5.07812Z" fill="#D0231D"/>
<path d="M20.198 6.49063C20.3527 6.68828 20.5003 6.89297 20.6375 7.09922L21.2882 6.66719C21.1402 6.44454 20.9808 6.22305 20.8136 6.00938L20.198 6.49063Z" fill="#D0231D"/>
<path d="M21.3707 8.40976L22.0793 8.08086C21.9652 7.83516 21.8418 7.59258 21.7113 7.35898L21.0293 7.74023C21.1504 7.95664 21.2648 8.18164 21.3707 8.40976Z" fill="#D0231D"/>
<path d="M22.1911 11.2863L22.9661 11.1898C22.9325 10.9207 22.8887 10.6516 22.8356 10.3898L22.0696 10.5449C22.1192 10.7875 22.1598 11.0367 22.1911 11.2863V11.2863Z" fill="#D0231D"/>
<path d="M21.8922 9.81563L22.6437 9.60117C22.5699 9.3418 22.4847 9.08242 22.391 8.83008L21.6586 9.10234C21.7453 9.33594 21.8238 9.57578 21.8922 9.81563Z" fill="#D0231D"/>
<path d="M2.80894 13.7133L2.03394 13.8102C2.06753 14.0789 2.11128 14.3484 2.1644 14.6102L2.93042 14.4547C2.8812 14.2125 2.84019 13.9629 2.80894 13.7133V13.7133Z" fill="#D0231D"/>
<path d="M4.8019 18.5094C4.64722 18.3121 4.49995 18.1074 4.36245 17.9004L3.71167 18.332C3.85972 18.5555 4.01948 18.7773 4.18628 18.9906L4.8019 18.5094Z" fill="#D0231D"/>
<path d="M3.10776 15.184L2.3562 15.3984C2.43003 15.6578 2.51519 15.9172 2.60894 16.1699L3.34136 15.8977C3.25464 15.6641 3.17612 15.4238 3.10776 15.184Z" fill="#D0231D"/>
<path d="M3.62925 16.5906L2.92065 16.9188C3.03394 17.1641 3.15776 17.407 3.28862 17.6414L3.97065 17.2598C3.84917 17.043 3.73472 16.8176 3.62925 16.5906V16.5906Z" fill="#D0231D"/>
<path d="M16.5906 21.3707L16.9187 22.0793C17.164 21.966 17.407 21.8422 17.6414 21.7113L17.2597 21.0293C17.0429 21.1508 16.8175 21.2652 16.5906 21.3707V21.3707Z" fill="#D0231D"/>
<path d="M13.7133 22.191L13.8101 22.966C14.0789 22.9324 14.3484 22.8887 14.6101 22.8355L14.4547 22.0695C14.2125 22.1188 13.9629 22.1598 13.7133 22.191V22.191Z" fill="#D0231D"/>
<path d="M15.184 21.8922L15.3984 22.6437C15.6578 22.5699 15.9172 22.4848 16.1699 22.391L15.8976 21.6586C15.664 21.7453 15.4238 21.8238 15.184 21.8922Z" fill="#D0231D"/>
<path d="M18.5094 20.198C18.3121 20.3527 18.1074 20.5 17.9004 20.6375L18.332 21.2883C18.5555 21.1402 18.7773 20.9805 18.9906 20.8137L18.5094 20.198Z" fill="#D0231D"/>
</svg>
