<svg width="25" height="50" viewBox="0 0 25 50" fill="none" xmlns="http://www.w3.org/2000/svg">
<g clip-path="url(#clip0)">
<path d="M23.8891 41.3907C23.3453 40.739 22.731 40.1571 22.1368 39.5944C21.928 39.3966 21.712 39.1921 21.504 38.989C21.5039 38.9889 21.5039 38.9889 21.5038 38.9888C21.224 38.7159 21.0871 38.5222 21.0728 38.3792C21.0587 38.2385 21.1548 38.0299 21.3759 37.7215C21.7064 37.2576 22.0587 36.793 22.3995 36.3437C22.7024 35.9442 23.0156 35.5312 23.3158 35.1158L23.3832 35.0226C23.9689 34.2119 24.5745 33.3737 24.899 32.3522C24.9916 32.0593 25.0879 31.6259 24.8557 31.2454C24.6235 30.8649 24.193 30.7521 23.8896 30.7004C23.7414 30.675 23.6008 30.6729 23.4699 30.6729L19.6708 30.6696C19.0139 30.6586 18.5583 30.9699 18.3099 31.5951C18.1112 32.0945 17.8765 32.6731 17.6046 33.2221C17.0843 34.2818 16.4232 35.5023 15.465 36.5193L15.4224 36.5646C15.3572 36.6342 15.2506 36.7481 15.1959 36.7742C15.0921 36.709 14.9723 36.3359 14.9777 36.1404C14.9779 36.1356 14.9779 36.1308 14.9779 36.126L14.9746 31.7362C14.9746 31.7139 14.973 31.6916 14.97 31.6695C14.8848 31.0432 14.7187 30.4154 13.7275 30.2198C13.6957 30.2135 13.6634 30.2103 13.6311 30.2103H9.67914C8.93564 30.2103 8.54237 30.5508 8.22709 30.9199C8.13583 31.0276 7.89335 31.3133 8.01688 31.6626C8.14188 32.0161 8.51435 32.0867 8.63661 32.1098C9.06728 32.1915 9.28998 32.4349 9.35893 32.9003C9.49521 33.8044 9.51191 34.7717 9.41156 35.9427C9.38359 36.2571 9.33154 36.4961 9.24755 36.6948C9.22431 36.7499 9.2039 36.7839 9.18964 36.804C9.16689 36.7948 9.13149 36.7772 9.08246 36.7437C8.77982 36.5366 8.55175 36.2147 8.33119 35.9035C7.45023 34.6597 6.70921 33.2859 6.06551 31.7032C5.80042 31.0546 5.30208 30.6923 4.66321 30.6829C3.44602 30.6627 2.32028 30.6632 1.22282 30.6845C0.705192 30.6935 0.342202 30.8564 0.143764 31.1689C-0.0549179 31.4819 -0.0476425 31.881 0.165444 32.3554C1.68869 35.7426 3.0718 38.2066 4.64993 40.345C5.76111 41.8505 6.87967 42.8955 8.17006 43.6338C9.52582 44.4095 11.0548 44.7896 12.8287 44.7895C13.0304 44.7895 13.2356 44.7846 13.4436 44.7747C14.5379 44.7248 14.9832 44.2895 15.0318 43.2237C15.059 42.6603 15.1217 42.204 15.3393 41.8075C15.4001 41.6965 15.4688 41.6221 15.5229 41.6085C15.5804 41.5941 15.6824 41.6293 15.7958 41.703C16.0032 41.8377 16.1818 42.0203 16.3286 42.1806C16.4774 42.3435 16.6278 42.5118 16.7734 42.6746C17.0831 43.0211 17.4033 43.3795 17.7389 43.7213C18.4978 44.4949 19.3727 44.8497 20.3404 44.7754L23.8172 44.777C23.8173 44.777 23.8173 44.777 23.8174 44.777C23.8284 44.777 23.8394 44.7766 23.8505 44.7759C24.2515 44.7492 24.5982 44.5272 24.8018 44.1666C25.047 43.7325 25.0433 43.1825 24.7917 42.6949C24.5292 42.1881 24.1887 41.7518 23.8891 41.3907ZM23.9346 43.6769C23.8867 43.7618 23.8275 43.7773 23.797 43.781L20.3209 43.7794C20.3208 43.7794 20.3207 43.7794 20.3206 43.7794C20.3069 43.7794 20.2931 43.78 20.2795 43.7811C19.5947 43.8382 19.0126 43.5974 18.4497 43.0237C18.1304 42.6984 17.818 42.3489 17.5159 42.011C17.3687 41.8463 17.2165 41.6759 17.0636 41.5085C16.8739 41.3014 16.6395 41.0633 16.3383 40.8677C15.8873 40.575 15.5136 40.5839 15.2796 40.6428C15.048 40.7012 14.7188 40.8677 14.4661 41.3288C14.1387 41.9255 14.0665 42.5691 14.0371 43.1772C14.0201 43.5491 13.9572 43.6473 13.931 43.6722C13.8965 43.705 13.7815 43.7625 13.3977 43.78C11.5531 43.8667 10.0052 43.5364 8.66469 42.7695C7.49857 42.1023 6.47747 41.1439 5.45135 39.7537C3.91692 37.6747 2.56682 35.267 1.07389 31.9472C1.01979 31.8269 1.00309 31.7519 0.998259 31.7117C1.03634 31.6992 1.11076 31.6827 1.24123 31.6804C2.32756 31.6593 3.44153 31.6587 4.64773 31.6788C4.81287 31.6813 5.00091 31.7308 5.14329 32.0792C5.81585 33.733 6.59276 35.1722 7.51854 36.4792C7.76434 36.8262 8.0703 37.258 8.51996 37.5657C8.93183 37.8477 9.26606 37.8342 9.47397 37.7733C9.68198 37.7123 9.97065 37.5429 10.1651 37.0825C10.2905 36.7858 10.3664 36.4517 10.4039 36.0295C10.5112 34.7769 10.4921 33.7355 10.3441 32.7532C10.2397 32.0494 9.87636 31.541 9.30395 31.2814C9.40561 31.2285 9.52016 31.2064 9.67924 31.2064H13.5795C13.7989 31.2556 13.8424 31.3135 13.8573 31.3332C13.9205 31.4173 13.9566 31.616 13.9787 31.7714L13.982 36.1207C13.9732 36.5376 14.1758 37.4624 14.8658 37.7159C14.8714 37.718 14.8772 37.72 14.8829 37.7218C15.511 37.9271 15.9265 37.4837 16.1495 37.2455L16.1893 37.2032C17.2389 36.0892 17.9457 34.7875 18.4979 33.6627C18.7857 33.0819 19.0294 32.4811 19.2355 31.9633C19.3386 31.7035 19.4325 31.6608 19.6564 31.6655C19.6595 31.6656 19.6625 31.6656 19.6656 31.6656L23.4696 31.669C23.5581 31.669 23.6504 31.67 23.7221 31.6823C23.9033 31.7131 23.978 31.7507 24.0026 31.7663C24.0051 31.7951 24.0045 31.8782 23.9497 32.0514C23.6738 32.92 23.1406 33.658 22.5761 34.4393L22.5086 34.5328C22.2153 34.9386 21.9056 35.347 21.6061 35.7419C21.2609 36.1971 20.9041 36.6676 20.5657 37.1425C19.8424 38.1518 19.906 38.8215 20.8087 39.702C21.022 39.9102 21.2407 40.1173 21.4522 40.3176C22.0518 40.8857 22.6183 41.4221 23.1238 42.0279C23.3885 42.3469 23.6885 42.7301 23.9071 43.1524C24.0212 43.3734 23.9932 43.5731 23.9346 43.6769Z" fill="#FAFAFA"/>
<path d="M3.63205 33.283C3.5589 33.1383 3.48639 32.9932 3.41457 32.8477C3.29269 32.6012 2.99425 32.4999 2.74752 32.6218C2.50094 32.7436 2.39977 33.0423 2.52159 33.2889C2.59479 33.437 2.66866 33.5849 2.74313 33.7323C2.83077 33.9057 3.00612 34.0057 3.18795 34.0057C3.26344 34.0057 3.34015 33.9885 3.41217 33.9521C3.65773 33.828 3.75612 33.5285 3.63205 33.283Z" fill="#FAFAFA"/>
<path d="M6.75546 38.4493C5.93886 37.3429 5.17489 36.1412 4.42001 34.7755C4.28695 34.5348 3.98392 34.4476 3.74325 34.5806C3.50257 34.7137 3.41527 35.0167 3.54832 35.2574C4.3245 36.6615 5.11146 37.8991 5.95414 39.0408C6.0518 39.1732 6.20253 39.2431 6.35522 39.2431C6.45795 39.2431 6.56157 39.2115 6.65053 39.1457C6.87177 38.9824 6.91875 38.6707 6.75546 38.4493Z" fill="#FAFAFA"/>
</g>
<g clip-path="url(#clip1)">
<path d="M23.8891 16.3907C23.3453 15.739 22.731 15.1571 22.1368 14.5944C21.928 14.3966 21.712 14.192 21.504 13.989C21.5039 13.9889 21.5039 13.9889 21.5038 13.9888C21.224 13.7159 21.0871 13.5222 21.0728 13.3792C21.0587 13.2385 21.1548 13.0299 21.3759 12.7215C21.7064 12.2576 22.0587 11.793 22.3995 11.3436C22.7024 10.9442 23.0156 10.5312 23.3158 10.1158L23.3832 10.0225C23.9689 9.2119 24.5745 8.37367 24.899 7.35218C24.9916 7.05931 25.0879 6.6259 24.8557 6.24543C24.6235 5.86487 24.193 5.75207 23.8896 5.70041C23.7414 5.67502 23.6008 5.67292 23.4699 5.67292L19.6708 5.66955C19.0139 5.65862 18.5583 5.96995 18.3099 6.59514C18.1112 7.09446 17.8765 7.67313 17.6046 8.22205C17.0843 9.28177 16.4232 10.5023 15.465 11.5193L15.4224 11.5646C15.3572 11.6342 15.2506 11.7481 15.1959 11.7742C15.0921 11.709 14.9723 11.3359 14.9777 11.1404C14.9779 11.1356 14.9779 11.1308 14.9779 11.126L14.9746 6.73621C14.9746 6.71389 14.973 6.69158 14.97 6.66946C14.8848 6.04319 14.7187 5.41535 13.7275 5.21975C13.6957 5.21345 13.6634 5.21032 13.6311 5.21032H9.67914C8.93564 5.21032 8.54237 5.5508 8.22709 5.91995C8.13583 6.02756 7.89335 6.31331 8.01688 6.66262C8.14188 7.01609 8.51435 7.08665 8.63661 7.10979C9.06728 7.19153 9.28998 7.43494 9.35893 7.90028C9.49521 8.80443 9.51191 9.77167 9.41156 10.9427C9.38359 11.2571 9.33154 11.4961 9.24755 11.6948C9.22431 11.7499 9.2039 11.7839 9.18964 11.804C9.16689 11.7948 9.13149 11.7772 9.08246 11.7437C8.77982 11.5366 8.55175 11.2147 8.33119 10.9035C7.45023 9.65966 6.70921 8.28592 6.06551 6.70315C5.80042 6.05456 5.30208 5.69231 4.66321 5.68293C3.44602 5.66267 2.32028 5.66316 1.22282 5.6845C0.705192 5.69348 0.342202 5.85642 0.143764 6.16887C-0.0549179 6.48191 -0.0476425 6.88103 0.165444 7.35535C1.68869 10.7426 3.0718 13.2066 4.64993 15.345C5.76111 16.8505 6.87967 17.8955 8.17006 18.6338C9.52582 19.4095 11.0548 19.7896 12.8287 19.7895C13.0304 19.7895 13.2356 19.7846 13.4436 19.7747C14.5379 19.7248 14.9832 19.2895 15.0318 18.2237C15.059 17.6603 15.1217 17.204 15.3393 16.8075C15.4001 16.6965 15.4688 16.6221 15.5229 16.6085C15.5804 16.5941 15.6824 16.6293 15.7958 16.703C16.0032 16.8377 16.1818 17.0203 16.3286 17.1806C16.4774 17.3435 16.6278 17.5118 16.7734 17.6746C17.0831 18.0211 17.4033 18.3795 17.7389 18.7213C18.4978 19.4949 19.3727 19.8497 20.3404 19.7754L23.8172 19.777C23.8173 19.777 23.8173 19.777 23.8174 19.777C23.8284 19.777 23.8394 19.7766 23.8505 19.7759C24.2515 19.7492 24.5982 19.5272 24.8018 19.1666C25.047 18.7324 25.0433 18.1825 24.7917 17.6949C24.5292 17.1881 24.1887 16.7518 23.8891 16.3907ZM23.9346 18.6769C23.8867 18.7618 23.8275 18.7773 23.797 18.781L20.3209 18.7794C20.3208 18.7794 20.3207 18.7794 20.3206 18.7794C20.3069 18.7794 20.2931 18.78 20.2795 18.7811C19.5947 18.8382 19.0126 18.5974 18.4497 18.0237C18.1304 17.6984 17.818 17.3489 17.5159 17.011C17.3687 16.8463 17.2165 16.6759 17.0636 16.5085C16.8739 16.3014 16.6395 16.0633 16.3383 15.8677C15.8873 15.575 15.5136 15.5839 15.2796 15.6428C15.048 15.7012 14.7188 15.8677 14.4661 16.3288C14.1387 16.9255 14.0665 17.5691 14.0371 18.1772C14.0201 18.549 13.9572 18.6473 13.931 18.6722C13.8965 18.705 13.7815 18.7625 13.3977 18.78C11.5531 18.8667 10.0052 18.5364 8.66469 17.7695C7.49857 17.1023 6.47747 16.1439 5.45135 14.7537C3.91692 12.6747 2.56682 10.267 1.07389 6.9472C1.01979 6.82693 1.00309 6.75188 0.998259 6.7117C1.03634 6.6992 1.11076 6.68274 1.24123 6.68035C2.32756 6.6593 3.44153 6.65872 4.64773 6.67883C4.81287 6.68128 5.00091 6.73084 5.14329 7.07923C5.81585 8.73299 6.59276 10.1722 7.51854 11.4792C7.76434 11.8262 8.0703 12.258 8.51996 12.5657C8.93183 12.8477 9.26606 12.8342 9.47397 12.7733C9.68198 12.7123 9.97065 12.5429 10.1651 12.0825C10.2905 11.7858 10.3664 11.4517 10.4039 11.0295C10.5112 9.77689 10.4921 8.73548 10.3441 7.7532C10.2397 7.04944 9.87636 6.54104 9.30395 6.28142C9.40561 6.22849 9.52016 6.20642 9.67924 6.20642H13.5795C13.7989 6.25564 13.8424 6.31345 13.8573 6.33323C13.9205 6.41726 13.9566 6.61604 13.9787 6.77136L13.982 11.1207C13.9732 11.5376 14.1758 12.4624 14.8658 12.7159C14.8714 12.718 14.8772 12.72 14.8829 12.7218C15.511 12.9271 15.9265 12.4837 16.1495 12.2455L16.1893 12.2032C17.2389 11.0892 17.9457 9.78749 18.4979 8.66273C18.7857 8.08192 19.0294 7.48113 19.2355 6.96326C19.3386 6.70354 19.4325 6.66077 19.6564 6.6655C19.6595 6.6656 19.6625 6.6656 19.6656 6.6656L23.4696 6.66897C23.5581 6.66897 23.6504 6.67 23.7221 6.68225C23.9033 6.71311 23.978 6.75071 24.0026 6.76629C24.0051 6.79514 24.0045 6.87815 23.9497 7.0514C23.6738 7.92 23.1406 8.65799 22.5761 9.43934L22.5086 9.53275C22.2153 9.93861 21.9056 10.347 21.6061 10.7419C21.2609 11.1971 20.9041 11.6676 20.5657 12.1425C19.8424 13.1518 19.906 13.8215 20.8087 14.702C21.022 14.9102 21.2407 15.1173 21.4522 15.3176C22.0518 15.8857 22.6183 16.4221 23.1238 17.0279C23.3885 17.3469 23.6885 17.7301 23.9071 18.1524C24.0212 18.3734 23.9932 18.5731 23.9346 18.6769Z" fill="#D0231D"/>
<path d="M3.63205 8.28299C3.5589 8.13827 3.48639 7.99315 3.41457 7.84774C3.29269 7.6012 2.99425 7.49993 2.74752 7.62181C2.50094 7.74363 2.39977 8.04227 2.52159 8.28885C2.59479 8.437 2.66866 8.58485 2.74313 8.73226C2.83077 8.9057 3.00612 9.0057 3.18795 9.0057C3.26344 9.0057 3.34015 8.98847 3.41217 8.95209C3.65773 8.82797 3.75612 8.52845 3.63205 8.28299Z" fill="#D0231D"/>
<path d="M6.75546 13.4493C5.93886 12.3429 5.17489 11.1412 4.42001 9.77553C4.28695 9.5348 3.98392 9.44759 3.74325 9.5806C3.50257 9.71366 3.41527 10.0167 3.54832 10.2574C4.3245 11.6615 5.11146 12.8991 5.95414 14.0408C6.0518 14.1732 6.20253 14.2431 6.35522 14.2431C6.45795 14.2431 6.56157 14.2115 6.65053 14.1457C6.87177 13.9824 6.91875 13.6707 6.75546 13.4493Z" fill="#D0231D"/>
</g>
<defs>
<clipPath id="clip0">
<rect width="25" height="25" fill="white" transform="translate(0 25)"/>
</clipPath>
<clipPath id="clip1">
<rect width="25" height="25" fill="white"/>
</clipPath>
</defs>
</svg>
