<svg width="25" height="50" viewBox="0 0 25 50" fill="none" xmlns="http://www.w3.org/2000/svg">
<path d="M24.3731 33.3365L16.6629 25.6263C15.8284 24.7918 14.4705 24.7918 13.636 25.6263L1.60347 37.6589C1.18623 38.0762 0.977588 38.6243 0.977588 39.1724C0.977588 39.7205 1.18623 40.2686 1.60347 40.6859L3.53799 42.6204L1.41382 44.7445C1.31846 44.8399 1.2708 44.9649 1.2708 45.0898C1.2708 45.2148 1.31846 45.3397 1.41382 45.4351C1.60449 45.6257 1.91367 45.6258 2.10435 45.4351L4.22852 43.3109L5.11323 44.1957L0.143018 49.1659C0.0476562 49.2612 0 49.3862 0 49.5112C0 49.6361 0.0476562 49.7612 0.143018 49.8565C0.333691 50.0471 0.642871 50.0471 0.833594 49.8565L5.80386 44.8862L9.31362 48.396C10.1482 49.2305 11.5061 49.2305 12.3406 48.396L24.3731 36.3634C24.7773 35.9592 25 35.4217 25 34.85C25 34.2783 24.7773 33.7408 24.3731 33.3365ZM10.4723 47.9899C10.301 47.9353 10.1397 47.8411 10.0041 47.7055L2.29399 39.9953C1.98975 39.691 1.89053 39.2591 1.99429 38.8705H10.4723V47.9899ZM8.70732 37.894L10.1552 36.4461C10.3459 36.2554 10.3459 35.9462 10.1552 35.7555C9.9645 35.5649 9.65537 35.5648 9.4647 35.7555L7.32622 37.894H5.90361L10.318 33.4796C10.5086 33.2889 10.5086 32.9798 10.318 32.789C10.1273 32.5984 9.81812 32.5984 9.62739 32.789L4.52256 37.894H2.74951L13.871 26.7724V36.7301C13.871 37.3719 13.349 37.894 12.7072 37.894H8.70732ZM23.6826 35.673L11.65 47.7055C11.588 47.7675 11.5202 47.8203 11.4489 47.8654V38.8705H12.7073C13.8875 38.8705 14.8477 37.9104 14.8477 36.7301V35.4718H20.4445L17.619 38.2974C17.5237 38.3927 17.476 38.5177 17.476 38.6426C17.476 38.7676 17.5236 38.8925 17.619 38.9879C17.8097 39.1786 18.1188 39.1786 18.3096 38.9879L21.8253 35.4722C21.8254 35.4721 21.8255 35.4719 21.8256 35.4718H23.8436C23.7979 35.5438 23.7443 35.6113 23.6826 35.673ZM14.8476 34.4952V26.0172C15.2362 25.9134 15.6682 26.0127 15.9724 26.3169L23.6826 34.0271C23.816 34.1604 23.9127 34.3205 23.9684 34.4952H14.8476Z" fill="#FAFAFA"/>
<path d="M11.5132 31.5942C11.4224 31.5029 11.2964 31.4512 11.168 31.4512C11.0391 31.4512 10.9136 31.5029 10.8228 31.5942C10.7319 31.6851 10.6797 31.8105 10.6797 31.9395C10.6797 32.0679 10.7319 32.1938 10.8228 32.2847C10.9136 32.3755 11.0391 32.4277 11.168 32.4277C11.2964 32.4277 11.4224 32.3755 11.5132 32.2847C11.604 32.1938 11.6562 32.0679 11.6562 31.9395C11.6562 31.8105 11.604 31.6851 11.5132 31.5942Z" fill="#FAFAFA"/>
<path d="M0.835449 46.0132C0.744629 45.9224 0.618652 45.8701 0.490234 45.8701C0.361816 45.8701 0.23584 45.9224 0.14502 46.0132C0.0541992 46.104 0.00195312 46.23 0.00195312 46.3584C0.00195312 46.4868 0.0541992 46.6128 0.14502 46.7036C0.23584 46.7944 0.361816 46.8467 0.490234 46.8467C0.619141 46.8467 0.744629 46.7944 0.835449 46.7036C0.926758 46.6128 0.978516 46.4868 0.978516 46.3584C0.978516 46.23 0.926758 46.104 0.835449 46.0132Z" fill="#FAFAFA"/>
<path d="M6.20205 46.9481C6.01133 46.7574 5.70215 46.7574 5.51147 46.9481L3.2939 49.1657C3.19858 49.261 3.15088 49.386 3.15088 49.511C3.15088 49.6359 3.19854 49.7609 3.2939 49.8563C3.48462 50.0469 3.7938 50.0469 3.98447 49.8563L6.20205 47.6387C6.39268 47.448 6.39268 47.1388 6.20205 46.9481Z" fill="#FAFAFA"/>
<path d="M24.3731 8.33654L16.6629 0.626334C15.8284 -0.208188 14.4705 -0.208188 13.636 0.626334L1.60347 12.6589C1.18623 13.0762 0.977588 13.6243 0.977588 14.1724C0.977588 14.7205 1.18623 15.2686 1.60347 15.6859L3.53799 17.6204L1.41382 19.7445C1.31846 19.8399 1.2708 19.9649 1.2708 20.0898C1.2708 20.2148 1.31846 20.3397 1.41382 20.4351C1.60449 20.6257 1.91367 20.6258 2.10435 20.4351L4.22852 18.3109L5.11323 19.1957L0.143018 24.1659C0.0476562 24.2612 0 24.3862 0 24.5112C0 24.6361 0.0476562 24.7612 0.143018 24.8565C0.333691 25.0471 0.642871 25.0471 0.833594 24.8565L5.80386 19.8862L9.31362 23.396C10.1482 24.2305 11.5061 24.2305 12.3406 23.396L24.3731 11.3634C24.7773 10.9592 25 10.4217 25 9.85002C25 9.27829 24.7773 8.74079 24.3731 8.33654ZM10.4723 22.9899C10.301 22.9353 10.1397 22.8411 10.0041 22.7055L2.29399 14.9953C1.98975 14.691 1.89053 14.2591 1.99429 13.8705H10.4723V22.9899ZM8.70732 12.894L10.1552 11.4461C10.3459 11.2554 10.3459 10.9462 10.1552 10.7555C9.9645 10.5649 9.65537 10.5648 9.4647 10.7555L7.32622 12.894H5.90361L10.318 8.47961C10.5086 8.28893 10.5086 7.97975 10.318 7.78903C10.1273 7.59836 9.81812 7.59836 9.62739 7.78903L4.52256 12.894H2.74951L13.871 1.77238V11.7301C13.871 12.3719 13.349 12.894 12.7072 12.894H8.70732ZM23.6826 10.673L11.65 22.7055C11.588 22.7675 11.5202 22.8203 11.4489 22.8654V13.8705H12.7073C13.8875 13.8705 14.8477 12.9104 14.8477 11.7301V10.4718H20.4445L17.619 13.2974C17.5237 13.3927 17.476 13.5177 17.476 13.6426C17.476 13.7676 17.5236 13.8925 17.619 13.9879C17.8097 14.1786 18.1188 14.1786 18.3096 13.9879L21.8253 10.4722C21.8254 10.4721 21.8255 10.4719 21.8256 10.4718H23.8436C23.7979 10.5438 23.7443 10.6113 23.6826 10.673ZM14.8476 9.49523V1.0172C15.2362 0.913443 15.6682 1.01266 15.9724 1.31691L23.6826 9.02707C23.816 9.16042 23.9127 9.32052 23.9684 9.49523H14.8476Z" fill="#D0231D"/>
<path d="M11.5132 6.59424C11.4224 6.50293 11.2964 6.45117 11.168 6.45117C11.0391 6.45117 10.9136 6.50293 10.8228 6.59424C10.7319 6.68506 10.6797 6.81055 10.6797 6.93945C10.6797 7.06787 10.7319 7.19385 10.8228 7.28467C10.9136 7.37549 11.0391 7.42773 11.168 7.42773C11.2964 7.42773 11.4224 7.37549 11.5132 7.28467C11.604 7.19385 11.6562 7.06787 11.6562 6.93945C11.6562 6.81055 11.604 6.68506 11.5132 6.59424Z" fill="#D0231D"/>
<path d="M0.835449 21.0132C0.744629 20.9224 0.618652 20.8701 0.490234 20.8701C0.361816 20.8701 0.23584 20.9224 0.14502 21.0132C0.0541992 21.104 0.00195312 21.23 0.00195312 21.3584C0.00195312 21.4868 0.0541992 21.6128 0.14502 21.7036C0.23584 21.7944 0.361816 21.8467 0.490234 21.8467C0.619141 21.8467 0.744629 21.7944 0.835449 21.7036C0.926758 21.6128 0.978516 21.4868 0.978516 21.3584C0.978516 21.23 0.926758 21.104 0.835449 21.0132Z" fill="#D0231D"/>
<path d="M6.20205 21.9481C6.01133 21.7574 5.70215 21.7574 5.51147 21.9481L3.2939 24.1657C3.19858 24.261 3.15088 24.386 3.15088 24.511C3.15088 24.6359 3.19854 24.7609 3.2939 24.8563C3.48462 25.0469 3.7938 25.0469 3.98447 24.8563L6.20205 22.6387C6.39268 22.448 6.39268 22.1388 6.20205 21.9481Z" fill="#D0231D"/>
</svg>
