<svg width="31" height="30" viewBox="0 0 31 30" fill="none" xmlns="http://www.w3.org/2000/svg">
<path d="M15.5 0C6.93956 0 0 6.7157 0 15C0 23.2843 6.93956 30 15.5 30C24.0604 30 31 23.2843 31 15C31 6.7157 24.0604 0 15.5 0ZM21.4133 7.63887L19.2695 7.63979C17.5883 7.63979 17.2633 8.41289 17.2633 9.54721V12.0485H21.2722L21.2703 15.9661H17.2636V26.0197H13.0822V15.9661H9.58669V12.0485H13.0822V9.15928C13.0822 5.80634 15.199 3.98026 18.2895 3.98026L21.4136 3.98486V7.63887H21.4133Z" fill="#D0231D"/>
</svg>
