<svg width="30" height="30" viewBox="0 0 30 30" fill="none" xmlns="http://www.w3.org/2000/svg">
<path d="M15.0212 19.2539C17.473 19.2539 19.4606 17.3279 19.4606 14.952C19.4606 12.5762 17.473 10.6501 15.0212 10.6501C12.5694 10.6501 10.5818 12.5762 10.5818 14.952C10.5818 17.3279 12.5694 19.2539 15.0212 19.2539Z" fill="#D0231D"/>
<rect x="6" y="6" width="6" height="4" rx="1" fill="#D0231D"/>
<path d="M21.8926 15.1921C21.8926 18.8691 18.8162 21.8495 15.0213 21.8495C11.2264 21.8495 8.14998 18.8691 8.14998 15.1921C8.14998 14.5332 8.24942 13.8966 8.43356 13.2954H6.40308V22.6336C6.40308 23.1173 6.79837 23.5123 7.28175 23.5123H22.6758C23.1595 23.5123 23.5551 23.1173 23.5551 22.6336V13.2954H21.609C21.7928 13.8966 21.8926 14.5332 21.8926 15.1921Z" fill="#D0231D"/>
<path d="M20.1086 10H22.8917C23.5016 10 24 9.59065 24 9.08977V6.91051C24 6.40935 23.5016 6 22.8917 6H20.1086C19.4984 6 19 6.40935 19 6.91051V9.08977C18.9997 9.59037 19.4984 10 20.1086 10Z" fill="#D0231D"/>
<path d="M15 0C6.7157 0 0 6.7157 0 15C0 23.2843 6.7157 30 15 30C23.2843 30 30 23.2843 30 15C30 6.7157 23.2843 0 15 0ZM23.2159 26.0535H6.78445C5.22322 26.0535 3.9468 24.898 3.9468 23.2165V6.78414C3.9468 5.10199 5.22322 3.9468 6.78445 3.9468H23.2159C24.7768 3.9468 26.0535 5.10199 26.0535 6.78414V23.2165C26.0535 24.898 24.7765 26.0535 23.2159 26.0535Z" fill="#D0231D"/>
</svg>
