<svg width="57" height="94" viewBox="0 0 57 94" fill="none" xmlns="http://www.w3.org/2000/svg">
<path fill-rule="evenodd" clip-rule="evenodd" d="M34.6293 59.8501C34.8663 59.4393 35.1372 59.0489 35.4392 58.6828C35.4242 58.3386 35.4476 57.9938 35.5092 57.6548C35.541 57.3172 35.6416 56.9895 35.8049 56.6919C35.9682 56.3943 36.1908 56.1329 36.4591 55.9238C35.4992 56.2554 35.056 56.975 34.7927 57.9135C34.6412 58.5518 34.5817 59.2084 34.616 59.8634L34.6293 59.8501ZM37.3824 66.8273C37.4939 67.0067 37.5682 67.2066 37.6009 67.415C37.6335 67.6235 37.6238 67.8364 37.5723 68.041C37.8023 67.7592 37.9423 67.2087 37.639 66.9268C37.574 66.8605 37.4881 66.8183 37.3957 66.8074L37.3824 66.8273ZM19.2845 54.6205C19.3465 54.1553 19.5104 53.7093 19.7644 53.3139C20.351 52.4418 21.4309 51.9875 22.4608 51.8814C23.0558 51.8294 23.6551 51.854 24.2439 51.9543C23.6586 51.6599 23.0099 51.5119 22.3541 51.5232C21.3109 51.5564 20.0944 52.1135 19.5578 53.0321C19.2873 53.5151 19.1908 54.0755 19.2845 54.6205ZM11.0488 51.9178C11.2087 53.4333 12.0487 55.1644 13.4285 55.8972C13.988 56.1786 14.6081 56.3198 15.2349 56.3084C14.6215 56.5243 13.9495 56.5066 13.3485 56.2587C11.782 55.5789 10.7921 53.6058 11.0488 51.9178ZM19.6911 40.0692C18.9784 40.2308 18.3125 40.553 17.7446 41.011C18.0513 41.5051 18.6745 41.7439 19.4111 41.8964C16.5315 41.7903 12.5419 42.2081 10.0056 43.7336C9.4684 44.0494 8.97438 44.4328 8.53573 44.8743C7.72996 45.1165 7.01437 45.5908 6.4793 46.2373C5.23611 47.6997 4.89949 49.6695 4.84283 51.5431C4.82491 53.6838 5.16276 55.8128 5.84271 57.8438C6.38923 59.7383 7.30295 61.5081 8.53239 63.0535C9.78847 64.6145 11.4054 65.8501 13.2452 66.6549C15.4283 67.5602 18.1546 67.8918 20.4577 67.3181C21.9042 66.9633 23.7406 66.1973 24.5105 64.8476C24.7838 64.37 25.0605 63.6305 24.7838 63.1033C24.6491 62.8979 24.4773 62.7192 24.2772 62.576C23.1794 61.5551 22.2761 60.3451 21.6109 59.0045C22.5072 60.3095 23.501 61.5455 24.5838 62.702C24.3505 61.601 24.4372 60.5034 24.0606 59.482C23.5906 58.2086 22.9074 57.2668 21.5975 56.776C20.9693 56.5498 20.3015 56.4527 19.6344 56.4908C20.861 57.0247 22.4808 57.6548 23.144 58.8818C23.3984 59.3685 23.5082 59.9171 23.4606 60.4636C22.9407 59.5152 22.6474 58.8453 21.6509 58.265C21.2014 58.0089 20.7071 57.8401 20.1944 57.7676C20.8035 58.5675 21.3666 59.4012 21.8808 60.2646C22.4844 61.2362 23.2777 62.0774 24.2139 62.7385C24.3043 62.7852 24.3818 62.853 24.4399 62.9362C24.498 63.0194 24.5348 63.1155 24.5472 63.216C24.5883 63.7401 24.4471 64.2623 24.1472 64.695C23.3507 65.9286 21.5875 66.5454 20.2177 66.8373C18.1023 67.2834 15.9016 67.0992 13.8908 66.3076C11.8801 65.5161 10.1484 64.1524 8.91235 62.387C7.9217 60.9925 7.17672 59.4405 6.70927 57.7974C6.07849 55.8172 5.81092 53.7403 5.91937 51.6658C6.02935 50.1536 6.33265 48.6382 7.32587 47.4443C7.70699 46.9838 8.17885 46.6057 8.71237 46.3334C8.08245 47.3747 7.82914 48.8836 7.75582 50.084C7.62443 51.7198 7.84018 53.3648 8.38908 54.9123C8.54239 55.3733 8.79236 55.874 8.76237 56.3582C8.73038 56.8259 8.562 57.2743 8.27786 57.6483C7.99371 58.0223 7.60613 58.3057 7.16255 58.464C7.56291 59.631 8.1058 60.7447 8.77903 61.7801C9.54228 61.1666 9.35563 61.2893 9.81891 60.5001C10.2822 59.7108 10.5088 59.6677 11.2521 59.1968C11.9853 58.842 12.182 57.8704 11.9687 57.1541C11.8284 56.7027 11.5735 56.295 11.2287 55.9702C10.4766 55.1802 9.8424 54.2867 9.34563 53.3173C8.77436 52.1855 8.47866 50.9359 8.4824 49.6695C8.4577 48.8573 8.49894 48.0444 8.60572 47.2387C8.60572 48.0015 8.63572 48.7575 8.69238 49.5037C8.76134 50.5386 8.95378 51.5616 9.26564 52.5512C9.5566 53.3382 9.97422 54.073 10.5022 54.7266C11.0354 55.4263 11.9653 56.2488 12.1886 57.0678C12.315 57.5608 12.2989 58.0792 12.142 58.5634C11.8653 59.293 11.2187 59.3096 10.6455 59.7971C10.245 60.2188 9.93337 60.7161 9.72892 61.2595C9.5692 61.6881 9.45743 62.133 9.39563 62.5859C10.2164 63.7157 11.2696 64.6586 12.4853 65.3516C12.5345 64.8894 12.6678 64.44 12.8786 64.0252C13.8351 62.1515 16.0215 61.6044 17.6447 60.5366C18.6447 59.9062 19.4634 59.0287 20.021 57.9897C19.8034 57.7467 19.5409 57.5475 19.2478 57.4028C19.5664 57.3464 19.8925 57.3464 20.211 57.4028C20.2553 57.3047 20.2899 57.2025 20.3143 57.0977C19.2478 56.7992 18.4646 56.4146 18.0513 55.9105C18.812 56.2162 19.6449 56.298 20.451 56.146C20.4977 55.626 20.491 55.1027 20.431 54.584C20.7129 54.3197 21.0566 54.1294 21.4309 54.0302C23.1707 53.5129 25.4971 53.9341 27.2869 54.6935C27.7535 54.8858 28.4534 55.181 28.78 55.5756C28.96 55.7911 29.0533 55.9602 28.93 56.2388C28.8925 56.3177 28.843 56.3904 28.7834 56.4544C28.9385 56.456 29.0913 56.4171 29.2266 56.3416C29.8166 56.0365 29.8766 55.6087 30.3065 55.2207C30.4586 55.0779 30.6442 54.9753 30.8464 54.9223C30.5132 56.1592 30.6365 56.8788 30.8964 57.426C30.9124 57.1793 31.0123 56.9454 31.1797 56.7628C31.5664 56.3516 32.2163 56.3715 32.7462 56.2355C33.0922 56.1479 33.4318 56.0371 33.7628 55.9039C33.586 56.1978 33.4578 56.518 33.3828 56.8523C33.2704 57.4167 33.3032 58.0001 33.478 58.5486C33.6528 59.097 33.964 59.5926 34.3827 59.9894C34.3394 58.6132 34.546 56.7628 35.8692 55.9901C36.1842 55.8065 36.5357 55.6934 36.8991 55.6585C36.6589 55.8804 36.4513 56.135 36.2825 56.4146C35.9032 57.0807 35.6812 57.824 35.6332 58.5881C35.5853 59.3522 35.7127 60.1172 36.0058 60.8251C36.2247 60.2465 36.4739 59.6798 36.7524 59.1272C37.209 58.2318 37.819 57.4691 38.2056 56.5439C38.4196 56.0243 38.575 55.4827 38.6689 54.9289C38.6775 55.5354 38.5642 56.1375 38.3356 56.6998C38.0023 57.5852 37.3557 58.3578 36.9391 59.2797C36.7705 59.6539 36.6226 60.037 36.4958 60.4271C36.5791 61.7844 36.745 63.1355 36.9924 64.4728L37.1624 65.7628C37.2287 66.1059 37.241 66.4572 37.199 66.8041C37.1376 67.0587 37.0505 67.3064 36.9391 67.5436C36.8524 67.7757 36.8924 67.8752 37.2124 68.1505C37.6707 68.5185 38.0717 68.9521 38.4022 69.4371C38.7355 69.918 38.9788 70.5646 39.4421 70.9062C39.9054 71.2478 40.6753 71.2113 41.2886 71.2677C42.1785 71.3506 43.495 71.5993 44.3449 71.4932C44.7282 71.4368 45.6314 71.072 45.0648 70.6674C44.4982 70.2629 43.4516 70.0639 42.0651 70.0606C43.0178 69.8368 44.0127 69.8643 44.9515 70.1402C45.2681 70.2397 45.2514 70.3027 45.1214 69.9677C45.0581 69.8119 44.9948 69.656 44.9115 69.4968C44.7748 69.2382 44.8048 69.2647 44.5148 69.2548C43.8663 69.2363 43.2183 69.3055 42.5884 69.4604C43.136 69.2005 43.7246 69.0367 44.3282 68.9762C44.5515 68.953 44.6948 68.9762 44.3615 68.827C44.2976 68.7975 44.2305 68.7752 44.1616 68.7606C43.7683 68.6777 43.615 68.8203 43.265 68.8535C42.7791 68.8655 42.295 68.7913 41.8352 68.6346C41.5144 68.5307 41.2085 68.3858 40.9253 68.2035C40.7486 66.4194 40.6486 63.6239 41.0619 61.863C41.3567 60.6601 41.8671 59.5199 42.5684 58.4971C43.5016 57.0977 44.7148 56.0432 45.6914 54.6802C46.4809 53.6374 47.0552 52.4496 47.3812 51.185C47.5433 50.4988 47.6304 49.7972 47.6411 49.0925C47.0336 49.973 46.2036 50.6787 45.2348 51.1385C45.5683 50.4555 45.8523 49.7495 46.0847 49.0261C46.5171 47.7203 46.742 46.3553 46.7513 44.9804C46.7855 44.0724 46.6004 43.1695 46.2113 42.3474C46.0102 41.9472 45.7483 41.5803 45.4347 41.2597C45.6487 41.6439 45.824 42.0482 45.958 42.4668C46.187 43.1669 46.2776 43.9045 46.2246 44.6389C46.1909 45.955 45.7626 47.231 44.9948 48.3032C45.0203 47.6838 44.9891 47.0633 44.9015 46.4495C44.6748 44.8942 44.0116 43.717 43.115 42.4336C42.7034 41.8409 42.2394 41.286 41.7285 40.7755C42.1285 41.3492 42.5184 41.9229 42.8517 42.4966C43.2494 43.0786 43.4998 43.7475 43.5816 44.4465C43.5958 44.717 43.5432 44.9869 43.4283 45.2325C43.2297 44.8405 42.9822 44.4751 42.6917 44.1448C41.8918 43.2195 40.7953 42.4867 39.7887 41.7903C38.6722 41.011 37.4557 40.3544 36.6458 39.2236C36.2506 38.6656 35.9698 38.0357 35.8192 37.3698C35.3757 38.3361 35.2587 39.4193 35.4859 40.4572C35.9459 40.7457 36.4091 41.0077 36.8691 41.2464C38.2522 41.9627 39.6154 42.4336 40.9119 43.3356C41.7952 43.9491 42.7484 44.798 43.1017 45.8393C43.3045 46.469 43.3219 47.1434 43.1517 47.7826C43.1633 47.1409 43.0288 46.5049 42.7584 45.9222C42.2751 44.9274 41.3119 44.2641 40.3987 43.6871C39.2288 42.9443 38.1089 42.5066 36.9057 41.8831C35.4292 41.1237 33.7494 40.1554 32.6062 38.9516C31.5895 37.8652 30.889 36.524 30.5798 35.0717C30.3032 33.8746 30.1832 32.3359 30.6531 31.1752C30.7646 30.8987 30.9138 30.6387 31.0964 30.4026C31.4297 29.9781 31.5064 29.7393 31.1664 29.2983C30.9683 29.038 30.7558 28.7889 30.5298 28.5521C29.7499 27.7198 28.8633 27.0864 28.0701 26.2043C26.227 24.1284 24.9038 20.6 24.4539 17.831C24.1217 16.1894 24.1217 14.4984 24.4539 12.8567C24.0338 13.0033 23.6458 13.2284 23.3107 13.52C22.3108 14.3822 21.8942 15.5826 21.6975 16.8361C21.4827 18.296 21.6339 19.786 22.1375 21.1737C22.9193 23.6153 24.3304 25.8106 26.2303 27.5407C26.7303 28.0216 27.2935 28.4328 27.7701 28.897C28.5634 29.673 28.3701 30.1439 28.3634 31.1454C28.3634 33.1351 28.6767 35.4962 29.5999 37.3035C30.6565 39.3662 32.4229 40.4174 34.306 41.7007C33.7671 41.5021 33.2491 41.251 32.7596 40.9513C32.6796 42.4535 32.1696 44.4863 30.9631 45.5143C30.6206 45.8078 30.2246 46.033 29.7966 46.1776C29.4192 45.5612 29.2197 44.8533 29.22 44.1315C28.0834 45.1728 26.9436 45.5707 25.807 45.3386C25.9551 44.8734 26.1482 44.4236 26.3836 43.9955C25.0905 44.5526 23.8773 44.4996 22.7674 43.7336C22.9991 43.4916 23.2511 43.2697 23.5206 43.0703C22.1875 43.1764 20.9276 43.1267 19.9211 42.1949C20.9377 41.7883 21.9131 41.2864 22.8341 40.6959C21.6175 40.6628 20.5143 40.5235 19.6911 40.0692ZM30.3732 56.723C30.465 57.2123 30.6832 57.6694 31.0064 58.0494C31.0219 57.7995 31.1035 57.5581 31.2431 57.3497C31.5764 56.8722 32.183 56.8191 32.6896 56.6069C32.9102 56.5132 33.1231 56.4024 33.3262 56.2753C33.1777 56.5736 33.084 56.8959 33.0495 57.227C32.9329 58.3545 33.6195 59.671 34.4127 60.4338C34.1219 60.9569 33.8637 61.4974 33.6395 62.052C33.3062 62.8446 32.123 65.7595 32.7996 66.5322C33.0829 66.8638 33.7561 66.9799 34.306 67.0628C34.603 67.1264 34.9055 67.1608 35.2093 67.1656C35.427 67.1097 35.651 67.0819 35.8759 67.0827C35.9565 67.0948 36.0324 67.128 36.0958 67.1788C36.2358 67.2816 36.1958 67.2617 36.0592 67.2783C35.348 67.3402 34.6661 67.5885 34.0827 67.9979C34.856 67.7028 35.5992 67.4806 36.2058 67.6099C36.4125 67.653 36.4025 67.653 36.4725 67.852C36.5294 68.0175 36.5675 68.1888 36.5858 68.3627C36.6091 68.5617 36.6291 68.5285 36.4458 68.5186C35.8554 68.4841 35.2664 68.6066 34.7393 68.8734C35.4359 68.7374 36.0925 68.6413 36.5158 68.8038C36.6924 68.8701 36.6724 68.8701 36.6758 69.0425C36.6799 69.2155 36.6698 69.3885 36.6458 69.5598C36.6158 69.7688 36.5958 69.9346 36.3958 70.0539C36.1321 70.167 35.8392 70.1937 35.5592 70.1302C34.3324 69.9949 33.1148 69.7868 31.913 69.5068C31.703 69.467 31.4897 69.4272 31.2764 69.394C30.6498 69.3012 30.6631 69.2747 30.3532 68.7308C29.8666 67.8719 29.9865 67.0727 29.6866 66.184C29.4433 65.4677 29.1833 65.5208 29.4433 64.831C29.9432 63.5045 29.9232 61.9492 30.0365 60.5531C30.1232 59.2698 30.2465 57.9964 30.3732 56.723ZM5.93603 58.8984C6.47452 60.3702 7.22687 61.7556 8.1691 63.0104C7.64525 64.11 7.31602 65.2913 7.19588 66.5023C7.17922 66.6681 7.17255 66.6383 7.3192 66.7378C7.78637 67.0431 8.34816 67.1713 8.90235 67.0992C9.09233 67.0992 9.05233 67.0993 9.02567 66.9102C8.88489 65.9086 8.83691 64.8962 8.88235 63.8859C9.9071 64.9754 11.1194 65.8738 12.4619 66.5388C12.4933 67.1611 12.4844 67.7847 12.4353 68.4058C12.762 68.4973 13.0968 68.5573 13.4352 68.5849C14.1148 68.5947 14.7946 68.5692 15.4716 68.5086C15.8815 68.5086 16.3082 68.5086 16.5981 68.8071C16.7481 68.9662 16.6981 68.9331 16.5315 68.943C16.1137 68.9649 15.7046 69.0697 15.3283 69.2514C15.7798 69.1781 16.2385 69.1581 16.6948 69.1917C16.9481 69.2216 16.9314 69.1917 17.0681 69.4073C17.1281 69.4935 17.1847 69.5831 17.2347 69.6693C17.3614 69.8749 17.348 69.8251 17.1147 69.8085C16.5307 69.7658 15.9435 69.815 15.3749 69.9545C16.0259 69.92 16.6784 69.9815 17.3114 70.1369C17.5547 70.2131 17.548 70.1932 17.598 70.4419C17.6847 70.8598 17.7346 71.2743 17.308 71.5031C16.9747 71.6921 15.9749 71.6258 15.5182 71.6125C14.3673 71.586 13.2318 71.5064 12.112 71.3738C11.652 71.3174 10.8388 71.261 10.4455 71.0422C10.0522 70.8233 9.74559 70.1667 9.44562 69.7688C9.19565 69.4371 9.26897 69.4902 8.84902 69.4703C8.29576 69.4504 7.74582 69.4106 7.18255 69.3476C6.61929 69.2846 5.38943 69.1851 4.96948 68.817C4.67618 68.5584 4.66951 68.1538 4.53286 67.8222C4.40223 67.5975 4.33434 67.3422 4.33622 67.0827C4.33622 66.6914 4.62619 66.1044 4.72951 65.6766C5.15946 63.8958 5.1128 61.9426 5.53275 60.0889C5.63918 59.6832 5.77394 59.2854 5.93603 58.8984ZM31.0464 39.7939C31.2169 39.936 31.3949 40.0689 31.5797 40.1919C30.8364 41.6842 29.4099 43.8927 27.7901 44.5924C27.3992 44.7683 26.9722 44.8501 26.5436 44.8312C26.6869 44.4731 26.8403 44.105 27.0336 43.707C28.2534 42.9907 29.5666 41.8135 31.0464 39.7939ZM31.8997 40.4108L31.9996 40.4738C31.6076 41.7866 31.0978 43.0619 30.4765 44.284C31.2119 43.1364 31.8008 41.9021 32.2296 40.6097L32.3896 40.6993C32.3571 41.3379 32.2577 41.9714 32.093 42.5895C31.793 43.6838 31.1831 45.133 30.0299 45.5442C29.6908 44.9639 29.595 44.2741 29.7632 43.6241C30.6033 42.6392 31.3206 41.5569 31.8997 40.4008V40.4108ZM29.7032 38.2984C26.1337 39.2103 23.4207 39.2932 21.4409 38.6797C20.6676 38.7593 19.8444 38.8057 18.9945 38.8356C19.4585 39.3973 20.0788 39.8102 20.7776 40.0228C22.7141 40.6595 25.1105 40.1421 27.0036 39.5883C27.9715 39.3088 28.9155 38.9528 29.8266 38.5239C29.7812 38.4477 29.74 38.3691 29.7032 38.2884V38.2984ZM20.9676 42.1617C21.9108 41.6709 22.7941 41.1668 23.634 40.6528C25.8763 40.3995 28.0598 39.7729 30.0932 38.7991L30.1399 38.8522C29.4419 39.4944 28.6978 40.0851 27.9135 40.6197C27.1154 41.1552 26.271 41.619 25.3904 42.0058C23.9972 42.6226 22.3774 42.9045 20.9676 42.1617ZM24.2406 42.8846C24.0372 43.1134 23.8206 43.3389 23.5973 43.5478C23.9837 43.7573 24.4212 43.8549 24.8605 43.8297C26.477 43.7899 27.8601 42.7685 28.9667 41.6709C29.6215 41.0032 30.2149 40.2785 30.7398 39.5054C30.6231 39.3827 30.5098 39.26 30.4065 39.1208C29.7966 39.6646 29.2166 40.1156 28.6634 40.5368C27.3385 41.5707 25.8415 42.3654 24.2406 42.8846ZM28.2767 34.7567C25.2924 34.3893 22.4039 33.4681 19.7611 32.0408C19.0306 31.6194 18.3391 31.1345 17.6947 30.5916C17.77 31.5757 18.1871 32.5031 18.8745 33.2147C21.1076 35.6487 25.6037 36.5806 28.7467 37.0249C27.2526 37.1428 25.75 36.9567 24.3305 36.4778C22.0141 36.239 19.8144 35.7648 17.8646 34.7965C18.1468 35.5962 18.6124 36.3194 19.2245 36.9089C21.7575 39.3098 26.4136 38.7361 29.4733 37.9037C29.4266 37.8142 29.3833 37.7247 29.34 37.6351C26.0603 37.8606 23.0574 37.6716 20.6043 36.6403C23.3838 37.3768 26.2817 37.5627 29.1333 37.1874C28.9433 36.7563 28.77 36.302 28.6167 35.8311C25.6618 35.6674 22.791 34.7923 20.251 33.281C22.8254 34.534 25.6254 35.2623 28.4867 35.4232C28.4034 35.2243 28.3301 34.9921 28.2767 34.7567ZM19.0478 39.7309C17.598 39.4325 16.2082 39.0213 15.2049 37.9402C16.4137 37.8759 17.6177 37.7431 18.8112 37.5423C17.8719 37.3589 16.9578 37.065 16.0882 36.6668C15.0283 36.1694 14.0251 35.5891 13.9718 34.2825C14.8817 34.6705 16.0848 34.8363 17.3347 34.9457C17.9155 36.4266 19.0419 37.6314 20.4843 38.3149C19.6591 38.4341 18.8238 38.4696 17.9913 38.4211C18.2771 38.9019 18.6332 39.3377 19.0478 39.7144V39.7309ZM17.2714 34.7567C16.2987 34.4061 15.3851 33.9108 14.5617 33.2876C13.5951 32.5017 12.7886 31.2548 12.8119 29.9715C13.7684 30.6844 15.145 31.3245 17.0781 31.8584C16.0011 31.3181 14.9939 30.65 14.0784 29.8687C12.5819 28.5422 11.7753 27.1726 12.282 25.1299C13.3516 26.3286 14.6618 27.2911 16.1282 27.9552C15.1259 27.2607 14.2281 26.4278 13.4618 25.4814C12.1286 23.7636 11.622 21.5617 12.4219 19.4891C13.2754 20.9095 14.3903 22.1571 15.7082 23.1667C14.8144 22.1583 14.025 21.0628 13.3518 19.897C12.0553 17.5756 11.4454 15.2842 13.0485 12.996C13.4752 14.737 14.525 16.2724 15.9715 17.6784C15.3618 16.6313 14.8732 15.5188 14.515 14.3623C13.921 12.4251 13.8498 10.3665 14.3084 8.39318C14.7117 6.7351 15.5682 4.98748 17.1247 4.11533C16.9328 4.78187 16.821 5.46868 16.7914 6.1614C16.7048 8.36665 17.518 12.0774 18.5879 13.9245C18.2428 12.8027 18.0095 11.6497 17.8913 10.4824C17.6452 8.16992 18.049 5.83488 19.0578 3.73729C19.8977 2.07921 21.1876 0.52724 23.0574 0.0298157C22.1075 1.46571 21.7775 3.59469 21.6642 5.32573C21.5109 7.83607 21.7742 10.8107 22.7274 13.1452C22.3601 13.5611 22.0383 14.0146 21.7675 14.4982C20.4943 11.8453 19.8411 9.46762 19.8644 6.4897C19.8644 5.89943 19.8977 5.31247 19.9511 4.7255C19.7922 5.28114 19.6807 5.84911 19.6178 6.42338C19.2845 9.53726 20.151 12.4389 21.4309 15.2444C21.0243 16.4747 21.0543 18.1029 21.2209 19.2967C21.455 20.7497 21.9161 22.1573 22.5874 23.4685C21.9208 22.6228 21.2542 21.7407 20.6443 20.8155C19.1349 18.542 17.9135 16.0916 17.0081 13.52C16.4734 11.9873 16.0665 10.4135 15.7915 8.81434C16.3615 13.2646 17.5147 16.2127 18.8579 18.6932C18.5758 19.213 18.3735 19.7719 18.2579 20.3513C17.878 22.2382 18.5112 23.9991 19.4744 25.6273C20.2627 26.9006 21.2455 28.044 22.3874 29.0164C20.3431 27.7141 18.493 26.1323 16.8914 24.3174C16.6741 24.957 16.5979 25.6356 16.6681 26.3071C16.8648 28.2139 18.1613 29.6929 19.5878 30.8768C20.6212 31.7142 21.738 32.4442 22.9207 33.0555C20.7556 32.3246 18.7766 31.1329 17.1214 29.5636C17.0738 30.2066 17.145 30.8529 17.3314 31.4704C17.848 33.1649 19.2978 34.372 20.8276 35.1546C19.4445 34.949 18.1179 34.6473 17.0747 33.921C17.1155 34.1972 17.1813 34.4691 17.2714 34.7335V34.7567ZM27.0969 28.8506C24.6826 27.0574 22.5427 24.925 20.7443 22.52C20.0975 21.6176 19.5225 20.6663 19.0245 19.6748C18.7785 20.4147 18.68 21.1954 18.7345 21.9729C18.8579 23.7669 19.8044 25.4515 20.9276 26.8211C22.8074 29.1126 25.0538 30.4689 27.6102 31.8948C25.3338 31.4803 21.5109 29.0098 19.7211 27.6137C18.8406 26.93 18.0097 26.1853 17.2347 25.3852C17.0959 26.533 17.3763 27.6923 18.0246 28.6516C19.4445 30.8569 22.4641 32.5846 24.9138 33.4932C25.9791 33.8797 27.075 34.177 28.1901 34.382C28.1234 34.0072 28.0734 33.6027 28.0334 33.1716C24.8123 32.4677 21.8278 30.9499 19.3678 28.7644C21.9456 30.661 24.8799 32.0233 27.9968 32.7703C27.9468 32.1071 27.9268 31.3709 27.9235 30.5949C24.9038 29.1822 22.3308 26.7614 20.2277 23.2131C22.4574 26.3635 25.0138 28.6981 27.8935 30.1771C27.8789 29.9082 27.7988 29.647 27.66 29.4159C27.5212 29.1848 27.3279 28.9907 27.0969 28.8506ZM48.3611 41.8433C48.1871 41.106 47.9088 40.397 47.5345 39.7376C46.8857 38.6553 46.1018 37.6592 45.2014 36.7729C44.3682 35.9107 43.2017 35.0253 42.6617 33.9741C42.4775 33.6237 42.3462 33.2483 42.2718 32.8598C42.4395 33.158 42.6301 33.443 42.8417 33.7121C43.6916 34.8031 44.7815 35.4763 45.7514 36.4711C46.7717 37.4336 47.5493 38.6221 48.0211 39.9399C48.2262 40.5593 48.3407 41.2048 48.3611 41.8566V41.8433ZM37.8323 32.1966C37.589 35.7781 38.2789 37.8042 39.1655 39.4922C38.5783 38.6959 38.108 37.8205 37.769 36.8923C37.1969 35.3747 37.2196 33.6984 37.8323 32.1966ZM36.8324 26.8907C34.5627 27.753 33.0762 29.3945 32.1396 31.5831C32.2871 30.7613 32.6104 29.9806 33.0877 29.294C33.565 28.6074 34.1851 28.031 34.906 27.6037C35.5084 27.267 36.1593 27.0243 36.8357 26.8841L36.8324 26.8907ZM42.1318 27.4843C41.6774 27.7929 41.1526 27.9833 40.6053 28.0381C40.0948 28.101 39.5769 28.0207 39.1099 27.8062C38.6429 27.5918 38.2454 27.2517 37.9623 26.8244C37.4757 26.0849 37.7823 25.498 38.6289 25.3288C39.6521 25.1332 40.6486 25.614 41.4452 26.2109C41.8949 26.555 42.3091 26.9427 42.6817 27.3683C42.7462 27.1033 42.737 26.8259 42.6551 26.5658C42.1618 25.0403 39.6354 24.0322 38.1189 24.3439C36.8791 24.5993 36.6258 25.3952 37.179 26.4199C37.4591 26.9224 37.8642 27.3449 38.3556 27.6468C39.2855 28.2404 40.4587 28.5256 41.4919 28.0348C41.7586 27.9191 41.9832 27.7246 42.1351 27.4777L42.1318 27.4843ZM42.3884 24.9442C41.7254 24.3728 40.9567 23.9358 40.1254 23.6575C38.7876 23.266 37.3545 23.3504 36.0725 23.8963C35.5122 24.1139 34.977 24.3907 34.476 24.722C34.8512 24.1825 35.3476 23.7374 35.9259 23.422C36.6049 23.081 37.3549 22.9033 38.1156 22.9033C38.8763 22.9033 39.6263 23.081 40.3053 23.422C41.0906 23.7919 41.7984 24.3061 42.3918 24.9375L42.3884 24.9442ZM47.0812 28.3432C47.4426 28.7661 47.9233 29.0711 48.461 29.2187C48.5889 28.935 48.6306 28.6203 48.581 28.3134C48.7499 28.3536 48.9272 28.3397 49.0876 28.2736C48.9473 28.0926 48.7641 27.949 48.5544 27.8558C48.1011 27.6502 47.4878 27.7264 46.9846 27.6999C46.1587 27.6559 45.3447 27.4847 44.5715 27.1925C44.8783 27.5574 45.2631 27.8495 45.6979 28.0475C46.1327 28.2454 46.6065 28.3442 47.0845 28.3366L47.0812 28.3432ZM45.1748 47.6632C45.1774 46.9281 45.0969 46.1951 44.9348 45.4779C44.6515 44.2675 44.1082 43.4285 43.4016 42.4203C42.5284 41.1768 41.5819 40.162 40.8353 38.8057C40.2029 37.6778 39.7944 36.4394 39.6321 35.1579C39.3954 33.4037 39.7754 31.9612 40.222 30.2666C39.4967 31.8152 39.1539 33.5138 39.2221 35.221C39.2461 35.6148 39.2939 36.0068 39.3655 36.3949C39.6787 38.0795 40.412 39.5386 41.2886 40.9911C41.7052 41.6808 42.1785 42.3175 42.5351 43.0305C42.7264 43.4269 42.8934 43.8344 43.035 44.2509C42.6781 43.775 42.2799 43.3312 41.8452 42.9244C40.9019 42.0324 39.7787 41.3724 38.7489 40.5832C37.719 39.7939 36.8158 39.1042 36.2725 37.8706C35.7769 36.6283 35.6406 35.2728 35.8792 33.9575C36.0902 32.0896 36.9425 30.3514 38.2922 29.0363C36.6658 30.26 35.8259 32.1867 35.6259 34.1631C35.5309 35.1752 35.5578 36.195 35.7059 37.2007C35.2588 38.0934 35.0401 39.0821 35.0693 40.0791C34.6573 39.3541 34.3222 38.5883 34.0694 37.7943C33.4905 36.0852 33.3834 34.2528 33.7594 32.4884C34.0476 31.3253 34.6071 30.246 35.3926 29.3381C35.874 28.7851 36.4357 28.3067 37.0591 27.9188C35.5092 28.7047 34.4627 29.988 33.6961 31.55C33.5098 31.6992 33.3151 31.8376 33.1128 31.9645C32.3296 32.4387 31.883 32.4984 31.5597 33.4932C31.4597 32.9555 31.4294 32.4071 31.4697 31.8617C31.5655 30.577 32.0081 29.3418 32.7508 28.2865C33.4934 27.2313 34.5086 26.395 35.6892 25.8661C36.0034 25.7196 36.3261 25.5923 36.6558 25.4847C36.0511 25.5245 35.4627 25.6966 34.9326 25.9888C34.0875 26.0711 33.2373 26.0877 32.3896 26.0385C32.6832 25.3645 33.1016 24.7514 33.6228 24.2312C34.956 22.9047 36.9157 22.079 38.7888 22.3642C39.7532 22.5282 40.666 22.913 41.4552 23.4884C40.8838 22.893 40.1408 22.4887 39.3288 22.331C39.0547 21.8329 38.7497 21.3522 38.4156 20.8918C39.1696 20.852 39.9252 20.9292 40.6553 21.1206C42.0433 21.4772 43.2559 22.3188 44.0716 23.4917C44.5481 24.1311 44.9506 24.8219 45.2714 25.551C44.8229 24.0427 43.9101 22.7124 42.6617 21.7474C42.3138 21.2936 42.0642 20.7731 41.9285 20.2186C42.6543 20.3735 43.3514 20.6397 43.9949 21.0079C45.868 22.0956 46.5979 23.6907 47.1345 25.7268C46.8979 23.9758 46.2613 22.6195 45.2681 21.6214C46.8712 22.0889 48.601 23.3955 48.7377 25.1763C48.7676 25.7769 48.6534 26.376 48.4044 26.9239C47.6622 26.4672 46.8618 26.1114 46.0247 25.8661C46.7679 26.1977 47.4878 26.5691 48.1878 26.9703C48.5261 27.1852 48.8306 27.449 49.091 27.753C49.6309 28.2968 50.3108 28.5588 50.9874 28.8904C51.664 29.222 52.3273 29.5138 53.0139 29.8189C53.3286 29.9099 53.6236 30.0583 53.8838 30.2567C53.9862 30.3584 54.0599 30.4853 54.0973 30.6245C54.1348 30.7636 54.1347 30.9101 54.0971 31.0492C54.0104 31.2913 53.7638 31.3211 53.5971 31.5002C53.5084 31.6412 53.4283 31.7874 53.3571 31.938C53.177 32.2518 52.9143 32.5109 52.5972 32.6874C52.1573 32.8963 52.2339 32.7239 51.9506 32.6343C51.8307 32.5979 51.8373 32.6343 51.8273 32.7139C51.8192 32.8316 51.7817 32.9453 51.7182 33.0449C51.6548 33.1445 51.5674 33.2267 51.464 33.2843C51.1307 33.4932 51.0574 33.4004 51.0974 33.0654C51.1206 32.8916 51.1206 32.7154 51.0974 32.5415C51.0474 32.2099 51.0074 32.1203 50.7241 31.9811C50.4533 31.8089 50.1489 31.6958 49.8309 31.6494C49.5784 31.6449 49.332 31.7272 49.1334 31.8825C48.9349 32.0378 48.7963 32.2565 48.741 32.5017C48.4311 33.417 48.741 33.9144 49.4776 34.4118C49.9842 34.7434 50.0842 34.8661 50.5775 34.4815C50.7403 34.3538 50.8879 34.2081 51.0174 34.047C51.3307 33.6524 51.4807 34.2394 51.444 34.4947C51.3909 34.7564 51.247 34.9912 51.0374 35.1579C51.16 35.1749 51.2754 35.2254 51.3707 35.3039C51.7673 35.6653 51.1007 36.6535 50.9008 37.0183C50.6475 37.4826 50.5175 37.4693 50.0475 37.2471C49.7809 37.1244 49.5176 37.0084 49.2476 36.9155C48.8343 36.7431 48.971 36.8492 48.8443 36.4413C48.8055 36.3196 48.7576 36.201 48.701 36.0865C48.4011 35.4995 47.5678 34.8363 47.4478 35.9107C47.4243 36.1695 47.4423 36.4303 47.5012 36.6834C47.2006 36.3066 46.8659 35.958 46.5013 35.6421C45.5847 34.8363 44.4615 34.3156 43.6649 33.417C42.8017 32.4221 42.7517 31.2847 42.9117 30.0444C42.6366 30.6272 42.5362 31.2766 42.6225 31.9147C42.7088 32.5529 42.9782 33.1527 43.3983 33.6425C44.1816 34.5511 45.3614 35.1513 46.268 36.0102C47.0258 36.6675 47.6289 37.4826 48.0344 38.3978C48.6544 39.7243 49.1143 41.326 49.0043 42.5696C48.9633 43.0242 48.8578 43.4708 48.691 43.896C48.6104 43.3061 48.4478 42.7302 48.2077 42.1849C47.6184 40.9921 46.7811 39.9375 45.7514 39.0909C44.6515 38.1491 43.3483 37.5157 42.2051 36.5972C41.8019 36.2785 41.4262 35.9269 41.0819 35.5459C41.3238 36.0247 41.6646 36.4473 42.0818 36.7862C43.215 37.8241 44.5482 38.4443 45.6514 39.4789C46.7546 40.5136 47.7678 41.6941 48.1778 43.1565C48.5286 44.4804 48.5469 45.8697 48.2311 47.2023C47.8345 48.8404 47.0645 49.7723 45.668 50.7074C46.5119 49.0058 46.9672 47.1396 47.0012 45.2424C47.048 44.0276 46.7376 42.8255 46.108 41.7836C45.7639 41.2492 45.28 40.8181 44.7082 40.5368C45.3118 41.6141 45.6671 42.8116 45.7483 44.0424C45.8296 45.2732 45.6348 46.5066 45.1781 47.6533L45.1748 47.6632Z" fill="#D0231D"/>
<path d="M45.7946 86.6049H48.111L48.061 79.7902H48.0844L50.2508 86.6049H52.4272L54.6936 79.7902H54.7203L54.6803 86.6049H57.0133V77.7375H53.4071L51.434 83.6303H51.4107L49.5242 77.7375H45.7946V86.6049ZM40.012 79.3326C40.297 79.3229 40.5799 79.384 40.8354 79.5101C41.0908 79.6363 41.3106 79.8238 41.4752 80.0555C41.9618 80.7187 42.0251 81.6008 42.0251 82.1712C42.0251 82.7416 41.9618 83.6403 41.4752 84.2869C41.3039 84.5116 41.0827 84.6938 40.8288 84.8192C40.575 84.9446 40.2954 85.0099 40.012 85.0099C39.7286 85.0099 39.449 84.9446 39.1952 84.8192C38.9413 84.6938 38.7201 84.5116 38.5488 84.2869C38.0622 83.6403 37.9989 82.7416 37.9989 82.1712C37.9989 81.6008 38.0622 80.7022 38.5488 80.0555C38.7134 79.8238 38.9332 79.6363 39.1886 79.5101C39.444 79.384 39.727 79.3229 40.012 79.3326ZM40.012 77.585C39.2621 77.585 37.7956 77.6878 36.7257 78.7622C35.6558 79.8366 35.5558 81.2957 35.5558 82.1712C35.5558 83.0467 35.6825 84.529 36.7257 85.5802C37.7689 86.6315 39.2621 86.7575 40.012 86.7575C40.7619 86.7575 42.2284 86.658 43.2983 85.5802C44.3681 84.5025 44.4681 83.0467 44.4681 82.1712C44.4681 81.2957 44.3415 79.8134 43.2983 78.7622C42.2551 77.711 40.7619 77.5982 40.012 77.5982V77.585ZM29.6799 77.7375H27.3135V86.6049H29.6632V82.7913H30.2965L32.8928 86.6049H35.6192L32.2429 81.8296L35.2859 77.7375H32.6628L30.3298 81.1333H29.6632L29.6799 77.7375ZM21.3808 82.1215V83.8989H25.457V82.1248L21.3808 82.1215ZM15.8415 79.4089H16.4514C16.8193 79.3888 17.1845 79.4814 17.498 79.6741C17.6414 79.783 17.755 79.926 17.8284 80.09C17.9018 80.254 17.9325 80.4337 17.9179 80.6126C17.9278 80.7757 17.9032 80.939 17.8458 81.0921C17.7884 81.2451 17.6994 81.3846 17.5846 81.5013C17.2598 81.7373 16.863 81.8544 16.4614 81.833H15.8415V79.4089ZM13.4718 77.7508V86.6182H15.8415V83.501H16.758C17.3813 83.501 18.7578 83.4247 19.6244 82.4896C20.0704 81.9821 20.3083 81.3263 20.291 80.6524C20.3119 80.2808 20.2558 79.9089 20.1262 79.5598C19.9966 79.2107 19.7963 78.8918 19.5377 78.6229C18.6978 77.8138 17.2047 77.7375 16.3048 77.7375L13.4718 77.7508ZM7.75576 79.3458C8.03198 79.3383 8.30575 79.3992 8.55244 79.5231C8.79912 79.6469 9.01097 79.8299 9.16893 80.0555C9.6522 80.7187 9.7022 81.6274 9.7022 82.1845C9.7022 82.7416 9.6522 83.6801 9.16893 84.3267C9.00571 84.5459 8.79245 84.7234 8.54674 84.8445C8.30104 84.9655 8.02993 85.0268 7.75576 85.0231C7.47667 85.0309 7.20008 84.9687 6.95141 84.8424C6.70274 84.7161 6.48995 84.5297 6.33259 84.3002C5.84932 83.637 5.79599 82.7681 5.79599 82.1712C5.79599 81.5743 5.88598 80.5894 6.39592 79.956C6.558 79.7538 6.76539 79.592 7.00151 79.4838C7.23763 79.3755 7.49593 79.3238 7.75576 79.3326V79.3458ZM2.36972 81.1333V77.7375H0V86.6049H2.36972V82.8046H3.50292C3.55319 83.8237 3.93711 84.7985 4.59613 85.5802C5.61601 86.6712 7.07917 86.7575 7.75576 86.7575C8.49234 86.7575 9.9455 86.658 10.9887 85.5802C12.0319 84.5025 12.1486 83.0467 12.1486 82.1712C12.1486 81.2957 11.9986 79.8134 10.9987 78.7622C9.99883 77.711 8.49234 77.5982 7.75576 77.5982C7.06917 77.5982 5.61601 77.701 4.59613 78.7755C4.0198 79.4454 3.65668 80.2707 3.55292 81.1465L2.36972 81.1333Z" fill="#582007"/>
</svg>
