<svg width="47" height="76" viewBox="0 0 47 76" fill="none" xmlns="http://www.w3.org/2000/svg">
<path fill-rule="evenodd" clip-rule="evenodd" d="M28.4306 48.3107C28.6211 47.9848 28.839 47.675 29.0819 47.3845C29.0698 47.1114 29.0887 46.8378 29.1382 46.5688C29.1637 46.3009 29.2446 46.0409 29.376 45.8048C29.5073 45.5686 29.6863 45.3612 29.9021 45.1953C29.1302 45.4584 28.7737 46.0294 28.5619 46.7741C28.4401 47.2806 28.3923 47.8015 28.4199 48.3213L28.4306 48.3107ZM30.6446 53.847C30.7343 53.9893 30.7941 54.1479 30.8203 54.3133C30.8465 54.4787 30.8387 54.6476 30.7973 54.81C30.9823 54.5864 31.0949 54.1496 30.851 53.9259C30.7987 53.8733 30.7296 53.8399 30.6553 53.8312L30.6446 53.847ZM16.0901 44.1612C16.14 43.7921 16.2718 43.4382 16.4761 43.1244C16.9478 42.4324 17.8163 42.0719 18.6445 41.9877C19.1231 41.9465 19.605 41.966 20.0785 42.0456C19.6078 41.812 19.0861 41.6945 18.5587 41.7035C17.7198 41.7299 16.7415 42.1719 16.3099 42.9008C16.0924 43.284 16.0148 43.7287 16.0901 44.1612ZM9.46691 42.0167C9.59557 43.2192 10.271 44.5927 11.3807 45.1742C11.8307 45.3975 12.3294 45.5095 12.8335 45.5005C12.3402 45.6718 11.7997 45.6577 11.3164 45.461C10.0566 44.9216 9.26052 43.356 9.46691 42.0167ZM16.4171 32.615C15.844 32.7433 15.3084 32.9989 14.8518 33.3623C15.0984 33.7544 15.5996 33.9438 16.192 34.0649C13.8761 33.9807 10.6677 34.3122 8.62795 35.5226C8.19597 35.7732 7.79868 36.0775 7.44591 36.4278C6.79791 36.6199 6.22242 36.9963 5.79212 37.5092C4.79234 38.6697 4.52162 40.2326 4.47605 41.7193C4.46165 43.4179 4.73335 45.1072 5.28016 46.7188C5.71968 48.222 6.4545 49.6263 7.44323 50.8526C8.45337 52.0912 9.75369 53.0716 11.2333 53.7102C12.9889 54.4285 15.1815 54.6916 17.0336 54.2364C18.1969 53.9549 19.6738 53.347 20.293 52.2761C20.5127 51.8972 20.7352 51.3104 20.5127 50.892C20.4044 50.7291 20.2662 50.5873 20.1053 50.4737C19.2224 49.6636 18.496 48.7035 17.961 47.6398C18.6818 48.6752 19.4811 49.656 20.3519 50.5737C20.1643 49.7001 20.234 48.8291 19.9311 48.0187C19.5532 47.0082 19.0037 46.261 17.9503 45.8715C17.4451 45.692 16.908 45.615 16.3716 45.6452C17.3579 46.0689 18.6606 46.5688 19.194 47.5424C19.3986 47.9285 19.4869 48.3639 19.4486 48.7975C19.0305 48.045 18.7946 47.5135 17.9932 47.053C17.6317 46.8498 17.2342 46.7158 16.8219 46.6583C17.3118 47.293 17.7646 47.9545 18.1781 48.6396C18.6635 49.4106 19.3015 50.0781 20.0544 50.6026C20.1271 50.6396 20.1895 50.6935 20.2362 50.7595C20.2829 50.8255 20.3125 50.9017 20.3224 50.9815C20.3555 51.3973 20.2419 51.8117 20.0008 52.1551C19.3602 53.1339 17.9423 53.6233 16.8406 53.8549C15.1394 54.2089 13.3696 54.0627 11.7525 53.4346C10.1354 52.8066 8.74283 51.7245 7.74879 50.3237C6.95211 49.2172 6.35298 47.9857 5.97706 46.682C5.46978 45.1107 5.2546 43.4627 5.34181 41.8167C5.43027 40.6168 5.67418 39.4143 6.47293 38.467C6.77943 38.1016 7.1589 37.8016 7.58797 37.5856C7.08138 38.4118 6.87767 39.609 6.8187 40.5616C6.71303 41.8595 6.88654 43.1648 7.32797 44.3927C7.45127 44.7585 7.6523 45.1558 7.62817 45.54C7.60245 45.9111 7.46704 46.2669 7.23853 46.5636C7.01001 46.8604 6.69832 47.0853 6.34159 47.2108C6.66356 48.1369 7.10016 49.0206 7.64158 49.8422C8.25538 49.3554 8.10528 49.4527 8.47785 48.8265C8.85043 48.2002 9.03269 48.166 9.63041 47.7924C10.2201 47.5108 10.3782 46.7398 10.2067 46.1715C10.0939 45.8134 9.88892 45.4898 9.61165 45.2321C9.00676 44.6053 8.49675 43.8963 8.09724 43.1271C7.63782 42.2291 7.40001 41.2375 7.40302 40.2326C7.38316 39.5882 7.41632 38.9431 7.5022 38.3039C7.5022 38.9091 7.52632 39.509 7.57189 40.1011C7.62735 40.9222 7.78211 41.734 8.03291 42.5192C8.2669 43.1437 8.60276 43.7267 9.02733 44.2454C9.45619 44.8006 10.204 45.4531 10.3836 46.1031C10.4853 46.4942 10.4722 46.9056 10.3461 47.2898C10.1236 47.8687 9.60361 47.8818 9.14259 48.2686C8.82052 48.6033 8.56991 48.9979 8.40548 49.429C8.27704 49.7691 8.18715 50.1221 8.13745 50.4816C8.79749 51.378 9.64453 52.1261 10.6222 52.6761C10.6618 52.3093 10.7689 51.9527 10.9384 51.6235C11.7077 50.1369 13.466 49.7027 14.7714 48.8554C15.5756 48.3553 16.2341 47.659 16.6825 46.8346C16.5074 46.6417 16.2963 46.4836 16.0606 46.3688C16.3168 46.3241 16.5791 46.3241 16.8353 46.3688C16.8709 46.291 16.8987 46.2099 16.9184 46.1268C16.0606 45.8899 15.4307 45.5847 15.0984 45.1848C15.7101 45.4273 16.38 45.4922 17.0283 45.3716C17.0658 44.959 17.0604 44.5437 17.0122 44.1322C17.2389 43.9225 17.5152 43.7715 17.8163 43.6928C19.2154 43.2823 21.0863 43.6165 22.5257 44.2191C22.901 44.3717 23.4638 44.6059 23.7265 44.919C23.8713 45.09 23.9463 45.2242 23.8471 45.4452C23.817 45.5079 23.7772 45.5655 23.7292 45.6163C23.854 45.6176 23.9769 45.5867 24.0857 45.5268C24.5601 45.2847 24.6084 44.9453 24.9541 44.6374C25.0764 44.5241 25.2257 44.4427 25.3883 44.4006C25.1203 45.3821 25.2195 45.9531 25.4286 46.3873C25.4414 46.1915 25.5217 46.0059 25.6564 45.861C25.9673 45.5347 26.49 45.5505 26.9162 45.4426C27.1944 45.3731 27.4675 45.2852 27.7337 45.1795C27.5915 45.4127 27.4884 45.6668 27.4281 45.932C27.3377 46.3799 27.3641 46.8428 27.5046 47.278C27.6452 47.7132 27.8955 48.1064 28.2322 48.4212C28.1974 47.3293 28.3636 45.861 29.4277 45.2479C29.681 45.1022 29.9637 45.0125 30.2559 44.9848C30.0627 45.1609 29.8958 45.3629 29.76 45.5847C29.455 46.1133 29.2765 46.703 29.2379 47.3093C29.1994 47.9157 29.3018 48.5226 29.5376 49.0843C29.7136 48.6253 29.914 48.1756 30.138 47.7371C30.5052 47.0267 30.9957 46.4215 31.3066 45.6873C31.4788 45.275 31.6037 44.8453 31.6792 44.4059C31.6861 44.8871 31.595 45.3648 31.4112 45.811C31.1431 46.5136 30.6231 47.1266 30.2881 47.8582C30.1525 48.1551 30.0335 48.459 29.9316 48.7686C29.9986 49.8456 30.132 50.9176 30.331 51.9788L30.4677 53.0023C30.521 53.2746 30.5309 53.5533 30.4971 53.8286C30.4477 54.0306 30.3777 54.2271 30.2881 54.4153C30.2184 54.5995 30.2506 54.6785 30.5079 54.8969C30.8765 55.1889 31.1989 55.533 31.4648 55.9178C31.7328 56.2994 31.9285 56.8125 32.301 57.0835C32.6736 57.3545 33.2928 57.3256 33.786 57.3703C34.5016 57.4361 35.5604 57.6334 36.2439 57.5492C36.5521 57.5045 37.2785 57.2151 36.8228 56.894C36.3672 56.573 35.5255 56.4151 34.4105 56.4125C35.1767 56.235 35.9767 56.2567 36.7317 56.4757C36.9863 56.5546 36.9729 56.6046 36.8684 56.3388C36.8175 56.2152 36.7665 56.0915 36.6995 55.9652C36.5896 55.7599 36.6138 55.781 36.3806 55.7731C35.859 55.7584 35.3378 55.8133 34.8313 55.9362C35.2717 55.73 35.745 55.6 36.2305 55.5521C36.4101 55.5336 36.5253 55.5521 36.2573 55.4337C36.2058 55.4103 36.1519 55.3926 36.0965 55.381C35.7802 55.3153 35.6569 55.4284 35.3754 55.4547C34.9847 55.4642 34.5953 55.4054 34.2255 55.281C33.9676 55.1986 33.7216 55.0836 33.4938 54.939C33.3517 53.5233 33.2713 51.3052 33.6037 49.9079C33.8408 48.9534 34.2512 48.0487 34.8152 47.2372C35.5657 46.1268 36.5414 45.29 37.3267 44.2085C37.9617 43.3811 38.4235 42.4386 38.6857 41.4352C38.8161 40.8907 38.8861 40.334 38.8948 39.7748C38.4062 40.4735 37.7387 41.0334 36.9595 41.3983C37.2277 40.8563 37.4562 40.2962 37.643 39.7222C37.9908 38.686 38.1717 37.6029 38.1791 36.512C38.2067 35.7915 38.0578 35.075 37.7449 34.4227C37.5832 34.1052 37.3725 33.8141 37.1204 33.5597C37.2924 33.8645 37.4334 34.1854 37.5412 34.5175C37.7254 35.073 37.7982 35.6583 37.7556 36.241C37.7284 37.2853 37.384 38.2978 36.7665 39.1486C36.7871 38.657 36.762 38.1647 36.6915 37.6777C36.5092 36.4436 35.9758 35.5095 35.2548 34.4911C34.9238 34.0209 34.5506 33.5806 34.1398 33.1755C34.4614 33.6307 34.775 34.0859 35.0431 34.5411C35.3629 35.0029 35.5642 35.5337 35.6301 36.0883C35.6415 36.303 35.5991 36.5171 35.5068 36.712C35.3471 36.401 35.148 36.111 34.9144 35.8489C34.2711 35.1148 33.3893 34.5332 32.5798 33.9807C31.6819 33.3623 30.7035 32.8413 30.0522 31.9441C29.7344 31.5013 29.5086 31.0015 29.3875 30.4732C29.0308 31.2398 28.9367 32.0993 29.1194 32.9229C29.4893 33.1518 29.8619 33.3597 30.2318 33.5491C31.3441 34.1175 32.4404 34.4911 33.4831 35.2069C34.1934 35.6937 34.96 36.3673 35.2441 37.1935C35.4072 37.6932 35.4212 38.2282 35.2843 38.7354C35.2936 38.2263 35.1855 37.7216 34.968 37.2593C34.5794 36.4699 33.8047 35.9436 33.0703 35.4858C32.1295 34.8964 31.2289 34.549 30.2613 34.0544C29.0739 33.4518 27.723 32.6834 26.8036 31.7283C25.9859 30.8662 25.4226 29.802 25.1739 28.6497C24.9514 27.6998 24.855 26.4788 25.2329 25.5579C25.3226 25.3385 25.4425 25.1322 25.5894 24.9448C25.8574 24.608 25.9191 24.4185 25.6457 24.0686C25.4864 23.862 25.3155 23.6644 25.1337 23.4765C24.5065 22.8161 23.7935 22.3135 23.1556 21.6136C21.6733 19.9664 20.6092 17.1667 20.2474 14.9695C19.9802 13.667 19.9802 12.3252 20.2474 11.0226C19.9096 11.1389 19.5975 11.3175 19.328 11.5489C18.5239 12.233 18.1889 13.1855 18.0307 14.1802C17.858 15.3385 17.9795 16.5208 18.3845 17.6219C19.0133 19.5593 20.1481 21.3011 21.676 22.674C22.0781 23.0555 22.5311 23.3818 22.9144 23.7502C23.5523 24.3659 23.3968 24.7396 23.3915 25.5342C23.3915 27.113 23.6434 28.9865 24.3859 30.4205C25.2356 32.0572 26.6562 32.8913 28.1706 33.9096C27.7371 33.752 27.3206 33.5528 26.9269 33.315C26.8626 34.5069 26.4525 36.1199 25.4822 36.9356C25.2067 37.1685 24.8882 37.3472 24.544 37.4619C24.2405 36.9728 24.0801 36.4111 24.0803 35.8384C23.1663 36.6646 22.2496 36.9804 21.3356 36.7962C21.4547 36.427 21.61 36.0701 21.7993 35.7305C20.7593 36.1726 19.7837 36.1305 18.8911 35.5226C19.0774 35.3306 19.2801 35.1546 19.4969 34.9964C18.4247 35.0806 17.4115 35.0411 16.6021 34.3017C17.4196 33.9791 18.2041 33.5809 18.9447 33.1124C17.9664 33.086 17.0792 32.9755 16.4171 32.615ZM25.0077 45.8294C25.0816 46.2177 25.2571 46.5804 25.517 46.8819C25.5294 46.6836 25.5951 46.4921 25.7073 46.3267C25.9753 45.9478 26.4632 45.9057 26.8706 45.7373C27.0481 45.663 27.2192 45.575 27.3825 45.4742C27.2632 45.7109 27.1878 45.9667 27.1601 46.2294C27.0663 47.124 27.6184 48.1686 28.2564 48.7738C28.0225 49.189 27.8148 49.6178 27.6345 50.0579C27.3665 50.6868 26.4149 52.9997 26.959 53.6128C27.1869 53.8759 27.7283 53.968 28.1706 54.0338C28.4094 54.0843 28.6527 54.1116 28.897 54.1154C29.0721 54.0711 29.2522 54.049 29.433 54.0496C29.4979 54.0592 29.5589 54.0855 29.6099 54.1259C29.7225 54.2075 29.6904 54.1917 29.5805 54.2048C29.0086 54.254 28.4601 54.451 27.991 54.7758C28.6128 54.5417 29.2106 54.3654 29.6984 54.468C29.8646 54.5022 29.8565 54.5022 29.9128 54.6601C29.9587 54.7913 29.9892 54.9273 30.004 55.0653C30.0227 55.2232 30.0388 55.1968 29.8914 55.1889C29.4166 55.1616 28.9429 55.2588 28.519 55.4705C29.0792 55.3626 29.6073 55.2863 29.9477 55.4152C30.0897 55.4679 30.0736 55.4679 30.0763 55.6047C30.0796 55.7419 30.0715 55.8792 30.0522 56.0152C30.0281 56.1809 30.012 56.3125 29.8512 56.4072C29.6391 56.497 29.4035 56.5182 29.1784 56.4678C28.1918 56.3604 27.2126 56.1952 26.2461 55.9731C26.0772 55.9415 25.9057 55.9099 25.7341 55.8836C25.2302 55.8099 25.2409 55.7889 24.9917 55.3574C24.6003 54.6758 24.6968 54.0417 24.4556 53.3365C24.2599 52.7682 24.0508 52.8103 24.2599 52.2629C24.662 51.2104 24.6459 49.9763 24.737 48.8686C24.8067 47.8503 24.9059 46.8398 25.0077 45.8294ZM5.35521 47.5555C5.78827 48.7234 6.39332 49.8227 7.15107 50.8184C6.72978 51.6909 6.46501 52.6282 6.3684 53.5891C6.355 53.7207 6.34963 53.697 6.46757 53.7759C6.84327 54.0182 7.29506 54.1199 7.74075 54.0628C7.89353 54.0628 7.86137 54.0628 7.83992 53.9128C7.7267 53.118 7.68812 52.3147 7.72467 51.513C8.54878 52.3775 9.52369 53.0904 10.6034 53.6181C10.6286 54.1118 10.6215 54.6066 10.5819 55.0995C10.8447 55.1721 11.114 55.2197 11.3861 55.2416C11.9327 55.2494 12.4793 55.2292 13.0238 55.1811C13.3535 55.1811 13.6965 55.1811 13.9297 55.4179C14.0504 55.5442 14.0101 55.5179 13.8761 55.5258C13.5402 55.5431 13.2112 55.6263 12.9085 55.7705C13.2717 55.7123 13.6405 55.6964 14.0075 55.7231C14.2112 55.7468 14.1978 55.7231 14.3077 55.8941C14.3559 55.9626 14.4015 56.0336 14.4417 56.102C14.5435 56.2652 14.5328 56.2257 14.3452 56.2125C13.8755 56.1786 13.4033 56.2177 12.946 56.3283C13.4696 56.301 13.9943 56.3497 14.5033 56.473C14.699 56.5335 14.6936 56.5178 14.7339 56.7151C14.8035 57.0466 14.8437 57.3756 14.5007 57.5571C14.2326 57.7071 13.4285 57.6545 13.0613 57.644C12.1357 57.6229 11.2226 57.5597 10.322 57.4545C9.95206 57.4098 9.29805 57.365 8.98176 57.1914C8.66548 57.0177 8.41888 56.4967 8.17765 56.181C7.97662 55.9178 8.03559 55.9599 7.69786 55.9441C7.25292 55.9283 6.81066 55.8968 6.35768 55.8468C5.90469 55.7968 4.91563 55.7178 4.57791 55.4258C4.34203 55.2205 4.33667 54.8995 4.22678 54.6364C4.12172 54.4581 4.06712 54.2555 4.06863 54.0496C4.06863 53.7391 4.30183 53.2734 4.38492 52.9339C4.73069 51.5209 4.69316 49.9711 5.03089 48.5002C5.11649 48.1783 5.22486 47.8626 5.35521 47.5555ZM25.5492 32.3966C25.6862 32.5094 25.8294 32.6148 25.978 32.7124C25.3803 33.8965 24.2331 35.6489 22.9304 36.2041C22.6161 36.3436 22.2727 36.4085 21.928 36.3936C22.0432 36.1094 22.1665 35.8173 22.322 35.5016C23.303 34.9332 24.3591 33.9991 25.5492 32.3966ZM26.2353 32.8861L26.3158 32.9361C26.0004 33.9778 25.5905 34.9896 25.0908 35.9594C25.6822 35.0488 26.1558 34.0694 26.5007 33.0439L26.6294 33.115C26.6032 33.6217 26.5232 34.1244 26.3908 34.6148C26.1496 35.4831 25.6591 36.633 24.7317 36.9593C24.459 36.4989 24.382 35.9516 24.5172 35.4358C25.1928 34.6543 25.7697 33.7955 26.2353 32.8782V32.8861ZM24.469 31.2099C21.5983 31.9335 19.4165 31.9993 17.8243 31.5125C17.2025 31.5757 16.5404 31.6125 15.8569 31.6362C16.2301 32.0819 16.7289 32.4096 17.2909 32.5782C18.8482 33.0834 20.7754 32.6729 22.2979 32.2335C23.0763 32.0117 23.8355 31.7292 24.5682 31.3888C24.5317 31.3284 24.4986 31.266 24.469 31.202V31.2099ZM17.4437 34.2754C18.2023 33.886 18.9126 33.486 19.588 33.0781C21.3913 32.8771 23.1473 32.3799 24.7826 31.6072L24.8201 31.6493C24.2588 32.1589 23.6604 32.6276 23.0296 33.0518C22.3878 33.4767 21.7088 33.8448 21.0006 34.1517C19.8802 34.6411 18.5775 34.8648 17.4437 34.2754ZM20.0758 34.849C19.9123 35.0306 19.7381 35.2095 19.5585 35.3753C19.8692 35.5415 20.2211 35.6189 20.5744 35.5989C21.8744 35.5674 22.9867 34.7569 23.8766 33.886C24.4032 33.3561 24.8804 32.7811 25.3026 32.1677C25.2088 32.0704 25.1176 31.973 25.0345 31.8625C24.544 32.294 24.0776 32.6519 23.6327 32.986C22.5672 33.8065 21.3633 34.437 20.0758 34.849ZM23.3218 28.3997C20.9218 28.1082 18.5988 27.3772 16.4734 26.2447C15.8859 25.9103 15.3298 25.5255 14.8116 25.0948C14.8722 25.8757 15.2076 26.6115 15.7604 27.1761C17.5563 29.1075 21.1721 29.8469 23.6997 30.1995C22.4981 30.293 21.2897 30.1453 20.1482 29.7653C18.2854 29.5759 16.5163 29.1996 14.9483 28.4313C15.1752 29.0658 15.5497 29.6397 16.0419 30.1074C18.079 32.0125 21.8234 31.5573 24.284 30.8968C24.2465 30.8258 24.2117 30.7547 24.1768 30.6837C21.5393 30.8626 19.1243 30.7126 17.1516 29.8943C19.3869 30.4787 21.7174 30.6262 24.0106 30.3284C23.8579 29.9864 23.7185 29.6259 23.5952 29.2522C21.2188 29.1223 18.9101 28.4279 16.8674 27.2288C18.9377 28.223 21.1896 28.8009 23.4906 28.9286C23.4236 28.7707 23.3647 28.5865 23.3218 28.3997ZM15.8998 32.3466C14.7339 32.1098 13.6161 31.7835 12.8093 30.9257C13.7814 30.8747 14.7497 30.7693 15.7095 30.61C14.9541 30.4645 14.219 30.2313 13.5196 29.9153C12.6673 29.5206 11.8605 29.0601 11.8176 28.0234C12.5493 28.3313 13.517 28.4628 14.5221 28.5497C14.9892 29.7247 15.895 30.6807 17.0551 31.2231C16.3914 31.3176 15.7196 31.3458 15.0501 31.3073C15.28 31.6888 15.5664 32.0346 15.8998 32.3335V32.3466ZM14.4712 28.3997C13.6889 28.1215 12.9542 27.7285 12.292 27.234C11.5147 26.6104 10.8661 25.621 10.8848 24.6027C11.6541 25.1685 12.7611 25.6763 14.3157 26.0999C13.4496 25.6712 12.6396 25.1411 11.9034 24.5212C10.6999 23.4686 10.0512 22.3819 10.4587 20.761C11.3189 21.7122 12.3725 22.4759 13.5518 23.0029C12.7457 22.4518 12.0237 21.7909 11.4075 21.0399C10.3354 19.6769 9.92794 17.9298 10.5712 16.2852C11.2576 17.4122 12.1542 18.4022 13.2141 19.2033C12.4953 18.4031 11.8604 17.5339 11.3191 16.6088C10.2764 14.7669 9.78588 12.9487 11.0751 11.1331C11.4182 12.5145 12.2625 13.7328 13.4258 14.8485C12.9355 14.0176 12.5425 13.1349 12.2545 12.2172C11.7768 10.6801 11.7195 9.04662 12.0883 7.48086C12.4126 6.16521 13.1015 4.77852 14.3532 4.08649C14.1989 4.61537 14.1089 5.16034 14.0852 5.71C14.0155 7.45981 14.6695 10.4042 15.5299 11.8699C15.2524 10.9797 15.0647 10.0648 14.9697 9.13858C14.7718 7.30371 15.0966 5.45091 15.9079 3.78652C16.5833 2.47087 17.6206 1.23942 19.1243 0.844727C18.3604 1.98408 18.095 3.67337 18.0039 5.04691C17.8806 7.0388 18.0924 9.39908 18.859 11.2515C18.5635 11.5815 18.3048 11.9413 18.087 12.3251C17.0631 10.22 16.5377 8.3334 16.5565 5.9705C16.5565 5.50213 16.5833 5.03639 16.6262 4.57065C16.4985 5.01153 16.4088 5.4622 16.3582 5.91787C16.0901 8.38866 16.787 10.691 17.8163 12.9171C17.4893 13.8933 17.5134 15.1853 17.6474 16.1326C17.8357 17.2855 18.2065 18.4023 18.7464 19.4427C18.2103 18.7718 17.6742 18.0718 17.1837 17.3377C15.9698 15.5337 14.9876 13.5893 14.2594 11.5489C13.8294 10.3327 13.5022 9.0839 13.2811 7.81504C13.7394 11.3462 14.6668 13.6855 15.747 15.6537C15.5202 16.0661 15.3575 16.5096 15.2646 16.9693C14.959 18.4665 15.4683 19.8638 16.2429 21.1557C16.8769 22.1661 17.6672 23.0733 18.5856 23.8449C16.9415 22.8116 15.4536 21.5564 14.1656 20.1164C13.9908 20.6238 13.9296 21.1623 13.986 21.6951C14.1442 23.2081 15.1868 24.3817 16.334 25.3211C17.1651 25.9855 18.0633 26.5648 19.0144 27.0498C17.2732 26.4699 15.6817 25.5243 14.3506 24.2791C14.3123 24.7893 14.3696 25.3021 14.5194 25.7921C14.9349 27.1367 16.1008 28.0945 17.3311 28.7154C16.2188 28.5523 15.152 28.3129 14.313 27.7366C14.3458 27.9557 14.3987 28.1715 14.4712 28.3813V28.3997ZM22.3729 23.7133C20.4313 22.2905 18.7105 20.5985 17.2641 18.6902C16.744 17.9741 16.2816 17.2193 15.8811 16.4325C15.6832 17.0197 15.604 17.6391 15.6479 18.256C15.747 19.6796 16.5083 21.0163 17.4115 22.103C18.9233 23.9212 20.7299 24.9974 22.7857 26.1289C20.955 25.8 17.8806 23.8397 16.4413 22.7319C15.7332 22.1894 15.065 21.5985 14.4417 20.9636C14.3301 21.8744 14.5555 22.7942 15.0769 23.5555C16.2188 25.3053 18.6472 26.6762 20.6173 27.3972C21.474 27.7038 22.3553 27.9397 23.2521 28.1024C23.1985 27.805 23.1583 27.484 23.1261 27.1419C20.5356 26.5835 18.1355 25.3791 16.1571 23.6449C18.2302 25.1499 20.59 26.2308 23.0966 26.8235C23.0564 26.2973 23.0403 25.7131 23.0377 25.0974C20.6092 23.9765 18.54 22.0556 16.8487 19.2401C18.6418 21.7399 20.6977 23.5923 23.0135 24.7659C23.0018 24.5526 22.9374 24.3453 22.8258 24.1619C22.7141 23.9785 22.5587 23.8245 22.3729 23.7133ZM39.4737 34.0228C39.3338 33.4377 39.11 32.8752 38.809 32.3519C38.2873 31.4932 37.6568 30.7027 36.9327 29.9995C36.2626 29.3154 35.3245 28.6128 34.8903 27.7787C34.7422 27.5007 34.6365 27.2028 34.5767 26.8946C34.7116 27.1312 34.8648 27.3573 35.035 27.5708C35.7185 28.4365 36.595 28.9707 37.375 29.7601C38.1955 30.5238 38.8209 31.4668 39.2003 32.5124C39.3653 33.0039 39.4573 33.5161 39.4737 34.0333V34.0228ZM31.0064 26.3683C30.8108 29.2101 31.3656 30.8179 32.0786 32.1572C31.6063 31.5254 31.2282 30.8308 30.9555 30.0942C30.4955 28.89 30.5136 27.56 31.0064 26.3683ZM30.2023 22.1583C28.377 22.8424 27.1815 24.1449 26.4283 25.8815C26.5469 25.2294 26.807 24.61 27.1908 24.0652C27.5747 23.5204 28.0733 23.063 28.653 22.724C29.1376 22.4568 29.661 22.2642 30.205 22.153L30.2023 22.1583ZM34.4641 22.6293C34.0987 22.8741 33.6767 23.0252 33.2365 23.0687C32.826 23.1186 32.4094 23.0548 32.0339 22.8846C31.6583 22.7145 31.3386 22.4447 31.111 22.1056C30.7196 21.5188 30.9662 21.0531 31.647 20.9189C32.4699 20.7637 33.2713 21.1452 33.9119 21.6188C34.2736 21.8918 34.6067 22.1994 34.9064 22.5372C34.9582 22.3269 34.9508 22.1068 34.8849 21.9004C34.4882 20.69 32.4565 19.8901 31.2369 20.1374C30.2398 20.34 30.0361 20.9715 30.4811 21.7846C30.7063 22.1834 31.0321 22.5186 31.4272 22.7582C32.1751 23.2292 33.1186 23.4555 33.9495 23.066C34.164 22.9742 34.3446 22.8199 34.4668 22.624L34.4641 22.6293ZM34.6705 20.6137C34.1373 20.1603 33.5191 19.8135 32.8505 19.5927C31.7747 19.2821 30.6222 19.3491 29.5912 19.7822C29.1406 19.9549 28.7101 20.1745 28.3073 20.4374C28.609 20.0093 29.0082 19.6561 29.4732 19.4059C30.0193 19.1353 30.6225 18.9943 31.2342 18.9943C31.846 18.9943 32.4492 19.1353 32.9953 19.4059C33.6267 19.6994 34.196 20.1074 34.6732 20.6084L34.6705 20.6137ZM38.4445 23.3108C38.7351 23.6463 39.1217 23.8883 39.5541 24.0054C39.6569 23.7803 39.6905 23.5306 39.6506 23.2871C39.7864 23.319 39.929 23.3079 40.058 23.2555C39.9452 23.1119 39.7979 22.998 39.6292 22.924C39.2647 22.7608 38.7715 22.8213 38.3667 22.8003C37.7026 22.7654 37.0479 22.6296 36.4261 22.3977C36.6729 22.6872 36.9824 22.919 37.332 23.0761C37.6817 23.2331 38.0627 23.3115 38.4471 23.3055L38.4445 23.3108ZM36.9113 38.6407C36.9134 38.0574 36.8486 37.4758 36.7183 36.9067C36.4905 35.9463 36.0536 35.2805 35.4853 34.4806C34.7831 33.4939 34.0218 32.6887 33.4214 31.6125C32.9129 30.7175 32.5844 29.7349 32.4538 28.7181C32.2635 27.3261 32.5691 26.1815 32.9282 24.8369C32.345 26.0657 32.0693 27.4135 32.1241 28.7681C32.1434 29.0806 32.1819 29.3916 32.2394 29.6996C32.4913 31.0363 33.081 32.194 33.786 33.3465C34.121 33.8938 34.5016 34.3991 34.7884 34.9648C34.9423 35.2793 35.0766 35.6026 35.1905 35.9331C34.9034 35.5555 34.5832 35.2034 34.2336 34.8806C33.475 34.1728 32.5718 33.6491 31.7435 33.0229C30.9153 32.3966 30.1889 31.8493 29.752 30.8705C29.3534 29.8848 29.2439 28.8092 29.4357 27.7656C29.6054 26.2834 30.2909 24.9042 31.3763 23.8607C30.0683 24.8316 29.3928 26.3604 29.232 27.9287C29.1556 28.7318 29.1772 29.5409 29.2963 30.339C28.9368 31.0473 28.7609 31.8318 28.7844 32.6229C28.453 32.0476 28.1836 31.44 27.9803 30.81C27.5147 29.4538 27.4286 27.9998 27.731 26.5999C27.9627 25.6769 28.4127 24.8206 29.0444 24.1002C29.4315 23.6614 29.8832 23.2818 30.3846 22.974C29.1382 23.5976 28.2966 24.6159 27.6801 25.8552C27.5303 25.9736 27.3737 26.0834 27.211 26.1841C26.5811 26.5604 26.2219 26.6078 25.9619 27.3972C25.8815 26.9704 25.8572 26.5354 25.8896 26.1026C25.9666 25.0832 26.3226 24.1031 26.9198 23.2658C27.5171 22.4284 28.3335 21.7649 29.2829 21.3452C29.5356 21.229 29.7952 21.1279 30.0602 21.0426C29.574 21.0741 29.1008 21.2107 28.6745 21.4425C27.9949 21.5079 27.3111 21.5211 26.6294 21.482C26.8655 20.9472 27.2019 20.4608 27.6211 20.0479C28.6933 18.9954 30.2693 18.3402 31.7757 18.5665C32.5512 18.6966 33.2853 19.002 33.92 19.4585C33.4604 18.9862 32.863 18.6653 32.2099 18.5402C31.9895 18.145 31.7442 17.7636 31.4755 17.3982C32.0818 17.3667 32.6895 17.4279 33.2767 17.5798C34.3929 17.8627 35.3681 18.5305 36.0241 19.4612C36.4073 19.9685 36.731 20.5166 36.989 21.0952C36.6283 19.8984 35.8943 18.8428 34.8903 18.0771C34.6105 17.7171 34.4097 17.3041 34.3006 16.8641C34.8843 16.9869 35.4449 17.1982 35.9624 17.4903C37.4688 18.3534 38.0558 19.619 38.4873 21.2347C38.297 19.8453 37.7851 18.7691 36.9863 17.9771C38.2756 18.3481 39.6667 19.3849 39.7766 20.7979C39.8007 21.2744 39.7088 21.7498 39.5086 22.1846C38.9117 21.8222 38.268 21.5399 37.5948 21.3452C38.1925 21.6083 38.7715 21.903 39.3343 22.2214C39.6065 22.3919 39.8513 22.6012 40.0607 22.8424C40.4949 23.2739 41.0417 23.4818 41.5859 23.7449C42.13 24.0081 42.6634 24.2396 43.2155 24.4817C43.4686 24.5539 43.7059 24.6717 43.9151 24.829C43.9975 24.9098 44.0568 25.0104 44.0869 25.1209C44.117 25.2313 44.1169 25.3475 44.0867 25.4579C44.017 25.65 43.8186 25.6737 43.6846 25.8158C43.6133 25.9277 43.5488 26.0436 43.4916 26.1631C43.3467 26.4121 43.1354 26.6177 42.8805 26.7578C42.5267 26.9235 42.5883 26.7867 42.3605 26.7157C42.264 26.6867 42.2694 26.7157 42.2613 26.7788C42.2547 26.8721 42.2246 26.9624 42.1736 27.0414C42.1226 27.1204 42.0523 27.1857 41.9692 27.2314C41.7011 27.3972 41.6422 27.3235 41.6743 27.0577C41.693 26.9198 41.693 26.78 41.6743 26.642C41.6341 26.3789 41.6019 26.3078 41.3741 26.1973C41.1563 26.0606 40.9115 25.971 40.6558 25.9342C40.4527 25.9306 40.2546 25.9959 40.0949 26.1191C39.9352 26.2423 39.8237 26.4158 39.7793 26.6104C39.53 27.3366 39.7793 27.7313 40.3717 28.126C40.7791 28.3892 40.8595 28.4865 41.2562 28.1813C41.3871 28.08 41.5059 27.9644 41.61 27.8366C41.8619 27.5235 41.9826 27.9892 41.9531 28.1918C41.9104 28.3995 41.7946 28.5858 41.6261 28.7181C41.7246 28.7315 41.8174 28.7716 41.8941 28.8339C42.2131 29.1207 41.677 29.9048 41.5162 30.1942C41.3125 30.5626 41.2079 30.5521 40.83 30.3758C40.6156 30.2784 40.4038 30.1863 40.1867 30.1127C39.8543 29.9758 39.9642 30.06 39.8624 29.7364C39.8312 29.6399 39.7926 29.5457 39.7471 29.4548C39.5059 28.9891 38.8358 28.4628 38.7393 29.3154C38.7204 29.5207 38.7349 29.7276 38.7822 29.9285C38.5405 29.6295 38.2713 29.3529 37.9781 29.1023C37.241 28.4628 36.3377 28.0497 35.6971 27.3366C35.0029 26.5473 34.9627 25.6447 35.0913 24.6606C34.8701 25.1231 34.7894 25.6383 34.8588 26.1447C34.9282 26.651 35.1448 27.127 35.4826 27.5156C36.1125 28.2366 37.0614 28.7128 37.7905 29.3943C38.3999 29.9158 38.8849 30.5627 39.211 31.2889C39.7096 32.3414 40.0795 33.6123 39.991 34.599C39.958 34.9598 39.8732 35.3141 39.7391 35.6516C39.6743 35.1835 39.5434 34.7265 39.3504 34.2938C38.8765 33.3474 38.2031 32.5106 37.375 31.8388C36.4905 31.0915 35.4424 30.5889 34.5231 29.8601C34.1988 29.6072 33.8967 29.3282 33.6198 29.0259C33.8143 29.4058 34.0883 29.7412 34.4239 30.01C35.3352 30.8336 36.4074 31.3257 37.2946 32.1467C38.1818 32.9676 38.9966 33.9044 39.3263 35.0648C39.6085 36.1152 39.6232 37.2176 39.3692 38.275C39.0502 39.5748 38.4311 40.3142 37.308 41.0562C37.9866 39.706 38.3527 38.2252 38.3801 36.7199C38.4178 35.7559 38.1681 34.8021 37.6618 33.9754C37.3851 33.5513 36.9959 33.2093 36.536 32.986C37.0215 33.8409 37.3072 34.791 37.3726 35.7677C37.4379 36.7443 37.2813 37.7229 36.914 38.6328L36.9113 38.6407Z" fill="white"/>
<path d="M37.4099 69.5402H39.2728L39.2326 64.1329H39.2513L40.9936 69.5402H42.7439L44.5665 64.1329H44.588L44.5558 69.5402H46.4321V62.5041H43.5319L41.9451 67.1799H41.9264L40.4093 62.5041H37.4099V69.5402ZM32.7595 63.7697C32.9887 63.7621 33.2162 63.8105 33.4216 63.9106C33.627 64.0108 33.8038 64.1595 33.9362 64.3434C34.3275 64.8696 34.3784 65.5696 34.3784 66.0221C34.3784 66.4747 34.3275 67.1878 33.9362 67.7009C33.7984 67.8792 33.6205 68.0237 33.4164 68.1233C33.2122 68.2228 32.9874 68.2746 32.7595 68.2746C32.5315 68.2746 32.3067 68.2228 32.1026 68.1233C31.8984 68.0237 31.7205 67.8792 31.5828 67.7009C31.1914 67.1878 31.1405 66.4747 31.1405 66.0221C31.1405 65.5696 31.1914 64.8565 31.5828 64.3434C31.7151 64.1595 31.8919 64.0108 32.0973 63.9106C32.3027 63.8105 32.5303 63.7621 32.7595 63.7697ZM32.7595 62.3831C32.1564 62.3831 30.977 62.4646 30.1166 63.3172C29.2562 64.1697 29.1758 65.3275 29.1758 66.0221C29.1758 66.7168 29.2777 67.893 30.1166 68.7271C30.9556 69.5612 32.1564 69.6612 32.7595 69.6612C33.3626 69.6612 34.5419 69.5823 35.4023 68.7271C36.2627 67.8719 36.3431 66.7168 36.3431 66.0221C36.3431 65.3275 36.2413 64.1513 35.4023 63.3172C34.5634 62.483 33.3626 62.3936 32.7595 62.3936V62.3831ZM24.4503 62.5041H22.5472V69.5402H24.4369V66.5142H24.9462L27.0342 69.5402H29.2267L26.5115 65.7511L28.9587 62.5041H26.8492L24.973 65.1985H24.4369L24.4503 62.5041ZM17.7762 65.9827V67.393H21.0543V65.9853L17.7762 65.9827ZM13.3214 63.8303H13.8119C14.1077 63.8144 14.4015 63.8878 14.6535 64.0408C14.7689 64.1272 14.8602 64.2406 14.9193 64.3708C14.9783 64.5009 15.003 64.6435 14.9912 64.7854C14.9992 64.9148 14.9794 65.0444 14.9333 65.1659C14.8871 65.2873 14.8155 65.3979 14.7232 65.4906C14.462 65.6778 14.1429 65.7708 13.8199 65.7537H13.3214V63.8303ZM11.4156 62.5146V69.5507H13.3214V67.0773H14.0585C14.5597 67.0773 15.6667 67.0168 16.3636 66.2747C16.7223 65.8721 16.9137 65.3517 16.8997 64.817C16.9165 64.5222 16.8714 64.2271 16.7672 63.9501C16.663 63.673 16.5019 63.42 16.2939 63.2066C15.6185 62.5646 14.4176 62.5041 13.6939 62.5041L11.4156 62.5146ZM6.81878 63.7803C7.04092 63.7743 7.26109 63.8226 7.45947 63.9209C7.65786 64.0192 7.82823 64.1644 7.95526 64.3434C8.34391 64.8696 8.38412 65.5906 8.38412 66.0327C8.38412 66.4747 8.34391 67.2194 7.95526 67.7325C7.824 67.9064 7.65249 68.0472 7.4549 68.1433C7.2573 68.2394 7.03927 68.288 6.81878 68.2851C6.59433 68.2912 6.3719 68.2419 6.17192 68.1417C5.97193 68.0415 5.80081 67.8935 5.67426 67.7114C5.2856 67.1852 5.24272 66.4958 5.24272 66.0221C5.24272 65.5485 5.31509 64.767 5.72519 64.2644C5.85553 64.1039 6.02231 63.9756 6.2122 63.8897C6.40209 63.8038 6.60982 63.7627 6.81878 63.7697V63.7803ZM2.48729 65.1985V62.5041H0.581543V69.5402H2.48729V66.5247H3.39862C3.43904 67.3333 3.7478 68.1068 4.27778 68.7271C5.09798 69.5928 6.27466 69.6612 6.81878 69.6612C7.41114 69.6612 8.57979 69.5823 9.41875 68.7271C10.2577 67.8719 10.3515 66.7168 10.3515 66.0221C10.3515 65.3275 10.2309 64.1513 9.42679 63.3172C8.62267 62.483 7.41114 62.3936 6.81878 62.3936C6.26662 62.3936 5.09798 62.4752 4.27778 63.3277C3.81429 63.8593 3.52227 64.5142 3.43882 65.2091L2.48729 65.1985Z" fill="white"/>
</svg>
