<svg width="84" height="85" viewBox="0 0 84 85" fill="none" xmlns="http://www.w3.org/2000/svg">
<path d="M0.67279 50.3897C0.0230707 51.4182 -0.168032 52.6762 0.146434 53.8547C0.4609 55.0331 1.25179 56.0228 2.32479 56.5806L9.68879 60.4339C10.2125 60.7021 10.5308 61.2574 10.5008 61.8506L10.1088 70.2514C10.0567 71.4691 10.5119 72.6531 11.3636 73.515C12.2153 74.3768 13.3854 74.8375 14.5888 74.7847L22.8908 74.3881C23.477 74.3577 24.0258 74.6798 24.2908 75.2097L28.0988 82.6614C28.6532 83.7439 29.6312 84.5413 30.7944 84.8591C31.9576 85.1769 33.1993 84.9861 34.2168 84.3331L41.2168 79.7856C41.7045 79.4749 42.3251 79.4749 42.8128 79.7856L49.8128 84.3331C50.8303 84.9861 52.072 85.1769 53.2352 84.8591C54.3984 84.5413 55.3764 83.7439 55.9308 82.6614L59.7388 75.2097C59.9859 74.663 60.5471 74.3336 61.1388 74.3881L69.4408 74.7847C70.6442 74.8375 71.8142 74.3768 72.666 73.515C73.5177 72.6531 73.9729 71.4691 73.9208 70.2514L73.5288 61.8506C73.4988 61.2574 73.8171 60.7021 74.3408 60.4339L81.7048 56.5806C82.7746 56.0196 83.5625 55.03 83.8766 53.8529C84.1907 52.6758 84.0021 51.4194 83.3568 50.3897L78.8628 43.3064C78.5558 42.8129 78.5558 42.1849 78.8628 41.6914L83.3568 34.6081C84.0065 33.5796 84.1976 32.3216 83.8832 31.1432C83.5687 29.9647 82.7778 28.975 81.7048 28.4172L74.3408 24.5639C73.8171 24.2957 73.4988 23.7404 73.5288 23.1472L73.9208 14.7464C73.9729 13.5287 73.5177 12.3447 72.666 11.4828C71.8142 10.621 70.6442 10.1603 69.4408 10.2131L61.1388 10.6097C60.5526 10.6401 60.0038 10.318 59.7388 9.78808L55.9168 2.35058C55.3624 1.26807 54.3844 0.470738 53.2212 0.152899C52.058 -0.164941 50.8163 0.0259007 49.7988 0.678915L42.7988 5.22642C42.3111 5.53706 41.6905 5.53706 41.2028 5.22642L34.2028 0.678915C33.1853 0.0259007 31.9436 -0.164941 30.7804 0.152899C29.6172 0.470738 28.6392 1.26807 28.0848 2.35058L24.2768 9.80225C24.0145 10.3348 23.4639 10.658 22.8768 10.6239L14.5748 10.2272C13.3714 10.1745 12.2013 10.6351 11.3496 11.497C10.4979 12.3589 10.0427 13.5429 10.0948 14.7606L10.4868 23.1614C10.5168 23.7546 10.1985 24.3099 9.67479 24.5781L2.32479 28.4172C1.25501 28.9782 0.467062 29.9679 0.152962 31.1449C-0.161138 32.322 0.0274579 33.5785 0.67279 34.6081L5.16679 41.6914C5.47379 42.1849 5.47379 42.8129 5.16679 43.3064L0.67279 50.3897ZM7.51879 40.1614L3.03879 33.0781C2.81465 32.7238 2.74766 32.2906 2.85412 31.8839C2.96057 31.4773 3.23071 31.1345 3.59879 30.9389L10.9768 27.0856C12.4628 26.2986 13.3676 24.7156 13.3008 23.0197L12.9088 14.6331C12.8886 14.2101 13.0458 13.7981 13.3417 13.4987C13.6376 13.1992 14.0448 13.0401 14.4628 13.0606L22.7508 13.4572C24.4284 13.5319 25.9962 12.6143 26.7688 11.1056L30.5768 3.63975C30.7485 3.24588 31.0879 2.9524 31.4992 2.84217C31.9104 2.73193 32.3489 2.8169 32.6908 3.07308L39.6908 7.60641C41.1009 8.51166 42.9007 8.51166 44.3108 7.60641L51.3108 3.07308C51.6609 2.84628 52.089 2.77849 52.4909 2.88621C52.8928 2.99393 53.2315 3.26729 53.4248 3.63975L57.2328 11.1056C58.0157 12.6043 59.5766 13.5179 61.2508 13.4572L69.5388 13.0606C69.9568 13.0401 70.3639 13.1992 70.6599 13.4987C70.9558 13.7981 71.113 14.2101 71.0928 14.6331L70.7008 23.0197C70.634 24.7156 71.5388 26.2986 73.0248 27.0856L80.4028 30.9389C80.7709 31.1345 81.041 31.4773 81.1475 31.8839C81.2539 32.2906 81.1869 32.7238 80.9628 33.0781L76.4828 40.1614C75.5882 41.5883 75.5882 43.4095 76.4828 44.8364L80.9628 51.9197C81.1869 52.274 81.2539 52.7072 81.1475 53.1139C81.041 53.5205 80.7709 53.8634 80.4028 54.0589L73.0248 57.9122C71.5388 58.6993 70.634 60.2822 70.7008 61.9781L71.0928 70.3647C71.113 70.7877 70.9558 71.1997 70.6599 71.4992C70.3639 71.7986 69.9568 71.9577 69.5388 71.9372L61.2508 71.5406C59.5749 71.473 58.0106 72.3886 57.2328 73.8922L53.4248 81.3581C53.2315 81.7305 52.8928 82.0039 52.4909 82.1116C52.089 82.2193 51.6609 82.1515 51.3108 81.9247L44.3108 77.3914C42.9007 76.4862 41.1009 76.4862 39.6908 77.3914L32.6908 81.9247C32.3407 82.1515 31.9126 82.2193 31.5107 82.1116C31.1088 82.0039 30.77 81.7305 30.5768 81.3581L26.7688 73.8922C26.03 72.4532 24.5634 71.5475 22.9608 71.5406L14.4628 71.9372C14.0448 71.9577 13.6376 71.7986 13.3417 71.4992C13.0458 71.1997 12.8886 70.7877 12.9088 70.3647L13.3008 61.9781C13.3676 60.2822 12.4628 58.6993 10.9768 57.9122L3.59879 54.0589C3.23071 53.8634 2.96057 53.5205 2.85412 53.1139C2.74766 52.7072 2.81465 52.274 3.03879 51.9197L7.51879 44.8364C8.41339 43.4095 8.41339 41.5883 7.51879 40.1614Z" fill="#D0231D"/>
<path d="M27.5661 18.2183C36.2155 12.9529 46.9962 12.806 55.7827 17.8338C64.5692 22.8616 70.0012 32.2858 70.0001 42.5C70.0241 48.8666 67.9059 55.0519 63.9941 60.0383C63.5147 60.6525 63.6181 61.5436 64.2251 62.0287C64.832 62.5138 65.7127 62.4092 66.1921 61.795C82.0121 41.5083 67.7181 11.3333 42.0001 11.3333C36.4071 11.33 30.9188 12.8678 26.1241 15.7817C25.5434 16.2089 25.3763 17.0114 25.7372 17.6394C26.098 18.2674 26.8698 18.5175 27.5241 18.2183H27.5661Z" fill="#D0231D"/>
<path d="M60.0881 67.7308C60.4932 67.4322 60.7101 66.9376 60.6571 66.4332C60.6041 65.9289 60.2893 65.4915 59.8311 65.2857C59.373 65.08 58.8412 65.1372 58.4361 65.4358C40.1101 78.9083 14.0001 65.705 14.0001 42.5C13.9767 34.8796 17.0075 27.5752 22.4001 22.2558C22.8018 21.9124 22.9795 21.3702 22.8601 20.8519C22.7407 20.3336 22.3443 19.9268 21.8339 19.7986C21.3235 19.6705 20.7851 19.8425 20.4401 20.2442C14.5105 26.0917 11.1766 34.1217 11.2001 42.5C11.2001 68 39.9281 82.5492 60.0881 67.7308Z" fill="#D0231D"/>
<path d="M23.8001 60.9166C24.7198 61.8721 25.982 62.411 27.3001 62.411C28.6182 62.411 29.8803 61.8721 30.8001 60.9166L60.2 31.1666C61.1131 30.2327 61.6175 28.967 61.6 27.6533C61.6265 25.6273 60.4355 23.7876 58.5893 23.003C56.7432 22.2183 54.6112 22.6457 53.2 24.0833L23.8001 53.8333C22.8594 54.7659 22.3293 56.0424 22.3293 57.375C22.3293 58.7076 22.8594 59.984 23.8001 60.9166ZM25.7881 55.9158L55.188 26.1658C55.7116 25.5973 56.5 25.3633 57.2441 25.5556C57.9881 25.7478 58.5691 26.3358 58.7591 27.0887C58.9491 27.8416 58.7179 28.6394 58.156 29.1691L28.7561 58.9191C28.2325 59.4877 27.4441 59.7217 26.7001 59.5294C25.956 59.3371 25.375 58.7492 25.185 57.9963C24.995 57.2434 25.2262 56.4456 25.7881 55.9158Z" fill="#D0231D"/>
<path d="M30.8002 35.4167C33.893 35.4167 36.4002 32.8796 36.4002 29.75C36.4002 26.6204 33.893 24.0833 30.8002 24.0833C27.7074 24.0833 25.2002 26.6204 25.2002 29.75C25.2002 32.8796 27.7074 35.4167 30.8002 35.4167ZM30.8002 26.9167C32.3466 26.9167 33.6002 28.1852 33.6002 29.75C33.6002 31.3148 32.3466 32.5833 30.8002 32.5833C29.2538 32.5833 28.0002 31.3148 28.0002 29.75C28.0002 28.1852 29.2538 26.9167 30.8002 26.9167Z" fill="#D0231D"/>
<path d="M47.6001 55.25C47.6001 58.3796 50.1073 60.9167 53.2001 60.9167C56.2929 60.9167 58.8001 58.3796 58.8001 55.25C58.8001 52.1204 56.2929 49.5833 53.2001 49.5833C50.1073 49.5833 47.6001 52.1204 47.6001 55.25ZM56.0001 55.25C56.0001 56.8148 54.7465 58.0833 53.2001 58.0833C51.6537 58.0833 50.4001 56.8148 50.4001 55.25C50.4001 53.6852 51.6537 52.4167 53.2001 52.4167C54.7465 52.4167 56.0001 53.6852 56.0001 55.25Z" fill="#D0231D"/>
</svg>
